<svg width="23" height="25" viewBox="0 0 23 25" fill="none" xmlns="http://www.w3.org/2000/svg">
<path d="M21.2997 1.86084C20.1847 1.86084 19.1081 2.45854 18.1497 2.9683C16.7523 3.71163 15.251 4.36868 13.7834 4.96536C12.5206 5.47881 11.3263 6.0785 10.1479 6.76272C9.04505 7.40307 7.87858 7.88709 6.83912 8.64177C6.40293 8.95845 5.90913 9.16446 5.48656 9.4996C5.07925 9.82264 4.57204 10.1039 4.0977 10.3166C3.42258 10.6192 2.76789 11.056 2.08248 11.3196C1.62716 11.4948 2.32701 11.3721 2.47281 11.4649C3.30774 11.9962 4.1578 12.4518 4.96006 13.0535C6.3605 14.1038 7.69773 15.2603 9.1902 16.1761C10.6487 17.0711 12.0964 17.8509 13.62 18.6271C14.3963 19.0225 15.0922 19.5491 15.8622 19.9524C16.7637 20.4246 17.7266 20.9267 18.5219 21.5501C18.8277 21.7897 19.2553 21.9892 19.6203 22.1219C19.9183 22.2303 20.103 22.5945 20.401 22.6938" stroke="black" stroke-width="3" stroke-linecap="round"/>
</svg>
