<svg width="187" height="184" viewBox="0 0 187 184" fill="none" xmlns="http://www.w3.org/2000/svg">
<path d="M9.59543 97.7567C10.6502 99.8661 14.6961 105.141 17.1111 105.443C18.2873 107.795 33.5706 93.3345 35.1742 91.6075C38.7231 87.7856 42.4893 84.3351 46.1487 80.6757C50.5899 76.2345 54.1773 71.0113 58.4471 66.413C60.8108 63.8675 64.2122 61.5553 66.3043 58.9401C68.3277 56.4109 68.292 57.1244 64.767 55.8655C58.4384 53.6053 53.7385 51.638 46.4904 51.638C39.5763 51.638 33.2276 52.2126 27.4878 56.6769C20.1887 62.3539 9.82529 68.8683 8.05814 78.8822C7.41908 82.5035 7.85331 86.2661 8.61327 89.6859C9.07141 91.7475 5.2977 84.5103 6.73436 88.5329C7.86474 91.698 8.0408 94.6474 9.59543 97.7567Z" stroke="black" stroke-width="3" stroke-linecap="round"/>
<path d="M47.0882 82.3838C49.6732 83.6763 53.8094 85.6371 54.7746 88.5329" stroke="black" stroke-width="3" stroke-linecap="round"/>
<path d="M77.834 80.0778C73.1342 80.0778 67.698 81.4899 64.0411 84.6897C61.7139 86.7259 58.2218 89.5999 55.5433 91.0097C52.7603 92.4744 50.6989 95.6771 48.9671 98.1837C47.2707 100.639 44.101 103.792 43.2877 106.639C42.1597 110.587 41.164 114.652 39.7861 118.51C37.8523 123.925 37.8644 128.78 37.8644 134.652C37.8644 138.142 41.9566 146.677 45.1239 148.487C46.3364 149.18 48.7367 152.543 49.5649 153.868C50.6518 155.607 53.862 159.199 55.5433 160.188C58.5864 161.978 60.5743 164.909 64.0411 166.209C67.1359 167.369 69.9639 169.566 72.8378 171.162C79.558 174.896 87.1172 175.55 93.9755 178.294C95.441 178.88 97.7882 178.464 99.356 178.464C102.013 178.464 104.434 179.233 107.042 179.233C112.107 179.233 117.12 179.513 122.031 178.422C139.593 174.519 152.951 159.328 160.677 143.875C165.175 134.878 165.459 125.046 165.459 115.051C165.459 108.157 166.245 99.5342 162.385 93.3156C158.288 86.7157 154.537 83.345 147.354 79.6508C132.794 72.163 116.472 71.6227 100.295 71.6227C91.7016 71.6227 85.6852 72.9582 77.535 75.466C71.8308 77.2211 66.2037 80.5124 60.9238 83.1524" stroke="black" stroke-width="3" stroke-linecap="round"/>
<path d="M143.169 75.466C147.359 71.2758 152.196 66.5363 155.467 61.6304" stroke="black" stroke-width="3" stroke-linecap="round"/>
<path d="M137.788 51.638C141.021 51.9612 144.014 54.3709 147.012 55.4812C150.666 56.8347 154.252 58.7112 157.602 60.6909C161.418 62.9454 166.617 65.0935 169.687 68.1638C171.742 70.2187 175.236 72.6988 177.758 74.0995C179.004 74.7919 183.138 77.5771 183.138 75.8503C183.138 69.3576 184.676 63.4165 184.676 56.8477C184.676 48.7054 177.631 47.4022 171.609 44.5494C166.74 42.2433 160.477 40.877 155.083 40.877C150.299 40.877 143.289 38.3681 138.899 40.877C135.855 42.616 129.869 44.2782 129.333 48.5634C129.168 49.8885 133.205 49.4332 135.098 50.485C137.717 51.9401 140.58 53.4183 143.169 54.7126" stroke="black" stroke-width="3" stroke-linecap="round"/>
<path d="M15.5738 63.1676C13.1857 62.9023 10.2916 60.8309 8.27163 59.7087C7.54878 59.3072 1.93208 55.0415 2.93382 54.7553C4.10986 54.4192 10.1014 58.0146 11.3462 58.9828C12.5862 59.9473 17.166 64.3051 15.9154 63.5093C12.1302 61.1005 8.86773 58.8922 5.75218 55.652C3.1617 52.9579 7.78588 56.1991 8.65595 56.6342C10.4091 57.5107 12.6052 58.7413 14.0365 60.0931C14.5931 60.6188 17.7213 62.5747 15.9581 61.2033C14.1504 59.7974 12.5772 57.8651 10.9619 56.2498C4.89807 50.186 12.6673 56.8183 15.5738 57.7871" stroke="black" stroke-width="3" stroke-linecap="round"/>
<path d="M167.765 42.4143C167.765 39.1235 169.704 34.3601 171.779 31.824C173.266 30.0071 171.795 35.6738 171.609 36.2651C170.561 39.5939 169.08 42.6078 167.808 45.7878C165.865 50.6451 172.856 36.6225 175.452 32.0803C177.173 29.0679 170.188 43.0273 172.206 34.7278C172.659 32.8666 173.67 28.2812 175.452 27.2122C177.799 25.8039 173.165 32.1964 171.779 34.557C166.464 43.6131 174.249 30.3755 174.64 31.3543C175.315 33.041 172.805 36.8165 172.377 38.5283C171.761 40.9931 171.064 40.5202 172.42 38.4856C173.007 37.605 175.967 32.7567 175.751 33.3613C174.883 35.7913 173.143 37.811 172.377 40.1083" stroke="black" stroke-width="3" stroke-linecap="round"/>
<path d="M16.3424 59.3244C20.4047 59.0987 24.8802 55.1772 28.8115 53.7731C32.8025 52.3478 36.0221 49.4676 39.7861 47.7948C43.808 46.0073 46.4661 40.893 49.3941 37.8024C52.5664 34.4538 55.6062 31.2207 58.2335 27.4257C66.788 15.0692 81.678 1.67609 97.6479 1.67609C104.102 1.67609 108.731 2.22422 114.729 4.36634C118.724 5.79323 122.819 7.81768 126.259 10.302C130.22 13.1633 134.764 15.5619 138.173 18.9706C142.614 23.412 146.973 27.8446 152.393 30.7138C155.724 32.4777 164.376 40.0618 167.765 37.8024" stroke="black" stroke-width="3" stroke-linecap="round"/>
<path d="M98.5874 71.6227C98.5874 67.2628 97.0501 62.536 97.0501 57.7871" stroke="black" stroke-width="3" stroke-linecap="round"/>
<path d="M90.1323 57.7872C85.7971 57.7872 88.6914 57.7872 91.7123 57.7872C95.8829 57.7872 108.395 57.7872 104.224 57.7872C98.8863 57.7872 93.5485 57.7872 88.2107 57.7872C84.7907 57.7872 79.9472 57.011 86.4172 56.2499C92.7276 55.5075 98.9763 54.7126 105.334 54.7126C110.095 54.7126 95.8328 53.9439 91.0717 53.9439C89.2213 53.9439 87.3708 53.9439 85.5204 53.9439C83.3283 53.9439 89.9045 53.9439 92.0966 53.9439C97.4344 53.9439 102.772 53.9439 108.11 53.9439C113.302 53.9439 97.6416 54.2031 92.609 55.4812C91.2072 55.8372 86.8925 56.2499 88.3388 56.2499C91.2995 56.2499 94.2602 56.2499 97.2209 56.2499C100.836 56.2499 104.452 56.2499 108.067 56.2499C109.094 56.2499 112.949 56.2499 109.605 56.2499C101.732 56.2499 94.3151 57.0824 86.4172 56.2926C81.0999 55.7608 91.6936 53.8724 93.3777 53.3461C98.1151 51.8656 113.202 52.4066 108.238 52.4066C102.616 52.4066 96.9931 52.4066 91.3706 52.4066C90.8918 52.4066 85.868 52.2171 87.3993 52.5775C90.649 53.3421 94.0757 53.6038 97.3917 53.9439C98.1705 54.0238 106.176 55.237 106.103 55.3104C104.667 56.7464 96.9192 57.5123 94.8295 57.7445C88.9286 58.4001 96.1776 57.7872 98.5874 57.7872C102.374 57.7872 113.733 57.7872 109.946 57.7872C107.201 57.7872 104.015 58.2344 101.32 57.7445C96.7679 56.9167 104.599 55.654 105.462 55.4812C107.929 54.9879 109.507 55.1064 109.348 52.4066C109.259 50.8876 103.307 51.6193 102.431 51.8088C97.4164 52.893 92.5973 53.1753 87.442 53.1753C85.7766 53.1753 84.1112 53.1753 82.4458 53.1753C79.6518 53.1753 81.5981 54.9054 81.6772 56.2499C81.7709 57.8433 82.4458 58.9729 82.4458 56.6342C82.4458 54.4594 86.7183 54.0237 88.2961 53.5596C94.1013 51.8522 100.286 52.4066 106.274 52.4066" stroke="black" stroke-width="3" stroke-linecap="round"/>
<path d="M87.8264 77.7719C80.5432 77.7719 75.4865 84.3668 69.3789 87.5935C67.7513 88.4533 62.8408 90.4972 64.6816 90.4972C66.1227 90.4972 68.9843 87.7858 70.1475 86.9956C70.8626 86.5099 78.5555 80.4241 74.5886 81.9568C68.2455 84.4075 62.5982 89.1645 57.8492 93.9134C57.4031 94.3596 54.8834 98.1293 55.1163 98.0129C57.2739 96.9341 59.2379 94.062 60.9238 92.3762C62.7107 90.5892 69.2361 83.4906 63.2297 88.7037C57.8357 93.3853 53.2567 101.266 51.5293 108.176C51.0041 110.277 52.248 108.161 52.6395 107.407C54.2509 104.304 55.6467 101.114 57.0806 97.9275C57.4865 97.0254 61.7628 87.788 59.9843 90.5827C55.548 97.5541 51.3859 104.569 47.8568 112.019C45.8616 116.231 49.2197 106.399 49.5649 105.443C51.1255 101.121 55.0828 87.9984 54.433 92.547C54.0855 94.9795 50.7041 97.9825 49.992 100.831C49.1766 104.093 48.6255 114.185 48.6255 110.824" stroke="black" stroke-width="3" stroke-linecap="round"/>
<path d="M88.595 83.1524C76.014 83.1524 67.7314 94.8103 63.0589 104.674C59.0827 113.069 53.2373 122.135 53.2373 131.961C53.2373 137.319 56.8728 145.111 59.7281 149.597C61.1423 151.82 62.2936 154.97 64.767 156.344C67.3013 157.752 68.6092 157.288 71.514 157.882C74.2042 158.432 76.4827 160.107 78.9869 161.127C82.7919 162.677 86.939 163.252 90.6874 164.97C94.405 166.674 99.0593 166.965 103.199 167.533C107.845 168.169 113.501 169.289 118.23 168.429C121.63 167.811 124.928 164.844 127.796 163.091C130.854 161.223 134.597 159.589 137.361 157.327C141.418 154.008 143.437 146.397 145.475 141.74C146.962 138.341 148.443 134.798 149.617 131.278C150.376 129.001 149.912 126.594 150.514 124.275C152.107 118.129 152.392 112.197 152.392 105.87C152.392 100.007 153.192 90.9078 148.165 86.654C142.669 82.004 130.891 83.1761 124.123 82.5546C119.223 82.1045 114.002 80.8465 109.263 80.8465C101.861 80.8465 94.4595 80.8465 87.0577 80.8465C76.4928 80.8465 108.178 80.0778 118.743 80.0778C130.477 80.0778 141.074 83.4495 149.617 91.9918C152.131 94.5061 149.905 94.3085 147.61 92.974C145.758 91.8976 143.518 90.936 142.058 89.3443C141.445 88.6746 138.93 87.7643 139.838 87.7643C142.696 87.7643 145.917 91.6227 147.781 93.4864C151.094 96.8001 152.102 100.511 153.93 104.674C155.538 108.338 155.467 112.285 155.467 116.204" stroke="black" stroke-width="3" stroke-linecap="round"/>
<path d="M57.3524 105.725C57.3524 105.376 57.5115 101.973 57.1047 102.849C54.5706 108.307 52.4625 114.026 50.2279 119.612C49.4576 121.538 47.4692 127.413 47.9038 125.384C48.2018 123.994 49.2079 122.419 49.7707 121.155C51.5628 117.132 53.3443 113.103 55.2188 109.116C57.228 104.843 59.7661 100.558 61.1813 96.0292C62.6407 91.3593 56.9498 104.879 55.3903 109.516C54.8568 111.103 54.4123 112.715 53.9997 114.336C53.857 114.896 53.324 116.459 53.733 116.05C56.6241 113.159 58.391 108.525 60.3622 105.001C60.8657 104.101 63.1947 99.9499 61.829 103.592C59.6595 109.377 56.8057 114.923 54.4949 120.66C53.5667 122.965 53.0494 124.176 54.6473 121.155C57.8313 115.137 61.2631 109.155 64.0578 102.944C64.3905 102.205 65.1246 100.964 65.1246 100.087C65.1246 98.9283 63.3883 101.638 62.6672 102.544C58.666 107.574 55.2265 112.954 51.6185 118.26C49.3868 121.542 50.9823 115.657 51.1994 114.45C51.6564 111.908 53.9264 104.544 52.7995 106.868C50.6413 111.32 49.4935 116.439 47.9038 121.117C47.7061 121.699 45.8243 129.044 46.1132 125.346C46.5371 119.92 47.7442 114.579 48.2277 109.154C48.3602 107.667 48.6182 105.949 48.4182 104.449C48.2433 103.137 47.7144 107 47.3704 108.278C46.1369 112.86 45.3796 117.464 44.6654 122.146C44.0986 125.862 44.9042 123.32 45.4274 121.117C46.5074 116.571 46.9454 111.986 47.7514 107.402C48.3976 103.727 45.9441 109.452 45.6941 110.145C44.0057 114.824 42.5604 119.85 41.808 124.775C41.5781 126.28 41.2845 129.468 41.7889 125.937C42.322 122.205 42.9283 118.479 43.2176 114.717C43.2807 113.897 43.397 112.951 43.2938 112.126C43.1869 111.27 43.0211 113.829 42.8748 114.679C42.0734 119.333 41.3723 123.989 41.2555 128.718C41.2012 130.919 41.2352 134.367 43.0081 130.509C45.421 125.257 46.3278 119.41 47.218 113.745C47.357 112.861 47.3925 111.699 47.7324 110.85C48.1786 109.734 47.6339 113.251 47.5609 114.45C47.1463 121.262 46.7542 128.083 46.7228 134.909C46.7198 135.559 47.2377 142.579 46.3037 139.443C45.4917 136.717 44.1241 134.225 43.1605 131.556C42.2686 129.087 42.8898 135.525 42.9891 136.071C43.0777 136.559 44.2023 142.986 44.5892 142.986C44.7336 142.986 43.9913 140.173 43.9796 140.129C43.5354 138.43 43.1138 136.726 42.6843 135.023C42.6055 134.712 41.9223 132.127 41.9223 132.585C41.9223 134.469 42.4406 136.216 42.589 138.071C42.7282 139.812 42.0208 136.201 41.9223 135.9C41.7612 135.407 39.9343 130.299 39.8649 132.623C39.8165 134.246 39.8649 135.877 39.8649 137.5C39.8649 138.879 39.8604 134.735 39.6935 133.366C39.2795 129.972 40.0647 135.085 40.284 135.9C41.0402 138.708 41.6431 141.631 42.5319 144.396C43.2979 146.779 42.4826 139.384 42.2652 136.89C42.0992 134.986 41.6646 132.977 41.7318 131.061C41.7321 131.052 43.0546 134.055 43.1795 134.376C45.0994 139.309 46.8293 144.365 49.0849 149.158C49.5408 150.127 49.9764 151.356 50.6279 152.225C51.1016 152.857 50.8365 150.652 50.7993 149.863C50.5353 144.253 49.4138 138.726 48.5134 133.195C48.5048 133.142 48.0612 129.809 47.8276 129.842C47.5964 129.875 48.5036 133.422 48.5134 133.461C49.4654 137.269 50.2511 141.38 51.6756 145.044C52.8083 147.956 50.9274 138.833 50.3231 135.766C49.5546 131.867 49.0498 127.4 47.599 123.67C46.9049 121.885 47.6461 127.515 47.961 129.404C48.1979 130.826 49.4159 136.682 49.7326 132.09C49.9845 128.438 49.8603 124.605 50.8374 121.041C51.307 119.329 51.3183 123.68 51.3518 124.089C51.5272 126.23 51.3797 128.406 51.8471 130.509C52.2158 132.168 52.1953 127.122 52.209 125.423C52.2141 124.789 52.2362 119.45 52.209 122.718C52.1114 134.427 51.8661 146.131 51.8661 157.845" stroke="black" stroke-width="3" stroke-linecap="round"/>
<path d="M50.4945 148.244C50.5167 148.166 56.4693 153.069 57.1047 154.34C57.1877 154.506 55.3354 152.913 55.3331 152.911C53.5238 151.26 51.7878 149.537 50.0564 147.806C48.6296 146.379 44.3991 142.07 45.9608 143.348C51.5567 147.927 56.3779 153.269 61.3909 158.454C62.7223 159.832 59.0912 155.86 58.9144 155.635C56.2251 152.212 53.5473 148.833 50.9898 145.31C49.48 143.231 50.9046 144.499 51.9804 145.425C55.166 148.164 58.1579 151.172 61.4099 153.825C61.5895 153.972 64.2621 156.083 62.7624 155.197C59.8944 153.502 57.481 150.512 55.1998 148.13C54.3449 147.237 52.4619 144.174 52.7043 145.386C53.0213 146.971 55.9662 149.43 57.0095 150.568C57.4547 151.054 61.2005 153.882 60.9718 154.683C60.7321 155.521 59.6244 153.567 59.0287 152.93C57.0274 150.789 55.0814 148.595 53.1234 146.415C52.003 145.168 50.8911 143.913 49.7326 142.7C49.2539 142.199 48.1705 140.636 48.1705 141.329C48.1705 142.282 49.4935 143.925 49.904 144.643C51.4358 147.324 52.8775 150.039 54.2282 152.816C55.6785 155.797 57.5404 158.797 58.7049 161.902C59.1361 163.052 57.9697 161.951 57.5048 161.617C56.5116 160.901 55.6232 159.949 54.6092 159.293C53.6446 158.668 56.7233 160.194 57.7714 160.664C60.0617 161.692 62.4704 162.647 64.8198 163.522C65.2043 163.665 64.636 162.685 64.3626 162.379C61.8604 159.579 59.3348 156.803 56.9714 153.882C53.8794 150.062 50.5227 145.89 48.2086 141.519C47.3484 139.895 49.9296 142.771 50.304 143.1C50.4438 143.223 52.1709 145.265 52.1709 144.548C52.1709 142.087 50.6319 139.718 50.3993 137.252C50.128 134.376 53.4805 140.359 53.8472 140.967C54.9455 142.788 56.3276 144.632 57.2762 146.529C57.7067 147.39 55.7531 145.349 54.9521 144.815" stroke="black" stroke-width="3" stroke-linecap="round"/>
<path d="M57.6953 152.359C61.0395 152.359 63.9766 152.868 67.2391 153.54C69.4629 153.997 69.4392 154.384 67.4296 153.044C63.4404 150.385 58.8686 148.014 54.495 146.053C54.2369 145.937 52.9972 145.181 53.733 145.844C55.0755 147.052 56.599 148.164 57.981 149.349C61.591 152.443 65.3426 155.421 69.125 158.302C70.9871 159.72 73.0858 160.742 74.9541 162.112C77.9931 164.34 69.2802 157.127 66.7438 154.34C61.5384 148.619 57.0411 142.343 52.0566 136.452C51.2517 135.501 52.3182 136.72 52.5519 137.005C54.1957 139.004 55.8222 141.031 57.5619 142.948C62.8078 148.727 67.8706 154.647 73.3921 160.169C75.3246 162.101 77.2342 164.048 79.2593 165.884C79.8878 166.453 81.2188 167.371 81.6214 168.132C81.9309 168.716 79.7331 167.469 79.5641 167.37C76.276 165.427 73.1009 163.367 69.6965 161.617C67.4037 160.438 65.2473 159.033 63.0482 157.692C62.1927 157.171 61.0593 156.13 59.9812 156.13C59.392 156.13 60.9979 156.726 61.5052 157.026C63.4827 158.194 65.3968 159.485 67.3724 160.664C72.1675 163.527 77.3243 166.067 81.9643 169.16C86.5093 172.19 71.6181 165.648 66.4961 163.75C65.8425 163.508 61.3183 162.467 61.0861 161.693C61.0191 161.47 66.4352 163.322 66.5533 163.369C71.4454 165.304 76.2944 167.345 81.1262 169.427C82.5364 170.035 86.6247 171.056 87.5839 172.399C87.8028 172.705 86.8351 172.547 86.46 172.513C84.2014 172.31 81.9375 171.933 79.7165 171.484C76.557 170.847 73.0972 169.198 69.8488 169.198C69.6049 169.198 70.199 169.553 70.4203 169.655C72.559 170.647 74.6896 171.667 76.8591 172.589C82.2019 174.86 87.7105 176.849 93.2607 178.552C93.9366 178.759 100.256 180.593 96.5181 179.904C91.1844 178.921 85.8806 177.654 80.6499 176.228C80.262 176.122 74.3072 174.672 76.6686 174.646C82.0201 174.588 87.3755 174.646 92.7273 174.646C95.0817 174.646 97.4417 174.676 99.7947 174.57C100.982 174.517 104.073 174.601 103.262 173.732C102.404 172.814 100.686 172.312 99.5851 171.903C97.113 170.986 94.5898 170.177 92.0796 169.37C90.4124 168.834 85.3291 167.982 87.0696 167.789C88.8264 167.593 90.7151 167.789 92.4797 167.789C94.1243 167.789 95.7689 167.789 97.4135 167.789C98.7794 167.789 94.027 167.79 93.8131 167.789C90.0012 167.768 86.1011 167.651 82.3453 166.931C79.4087 166.369 82.4032 166.412 83.6407 166.569C87.4071 167.05 91.0961 168.17 94.8037 168.97C95.5382 169.128 98.7291 169.868 96.0991 169.846C90.8141 169.802 85.588 168.846 80.4594 167.636C79.8532 167.493 72.7979 166.045 76.3257 166.074C78.0697 166.089 96.9484 169.205 96.48 170.532C96.0191 171.838 85.8418 170.746 84.7075 170.684C82.6862 170.574 80.6694 170.398 78.6497 170.265C78.649 170.265 76.0953 169.923 76.0971 169.922C76.4369 169.684 78.0327 170.066 78.1925 170.094C81.5106 170.661 84.7588 171.588 88.0221 172.399C92.5721 173.529 97.1076 174.611 101.623 175.866C103.322 176.337 100.682 176.371 100.195 176.342C99.0479 176.274 97.9377 176.018 96.7848 176.018" stroke="black" stroke-width="3" stroke-linecap="round"/>
<path d="M95.7562 169.503C101.965 169.503 108.178 169.425 114.387 169.503C115.575 169.518 115.901 169.755 114.501 169.922C111.019 170.339 107.538 170.829 104.062 171.294C103.79 171.33 97.7754 172.152 97.7754 172.246C97.7754 172.761 98.8044 172.245 99.3184 172.265C100.706 172.319 102.078 172.469 103.452 172.665C106.127 173.047 109.111 173.215 111.643 174.227C113.857 175.113 109.677 175.46 109.205 175.561C102.683 176.952 83.1065 180.402 89.7746 180.323C95.0819 180.261 100.41 179.319 105.738 179.18C110.625 179.053 115.518 179.104 120.406 179.104C123.512 179.104 119.311 179.104 118.616 179.104C114.958 179.104 111.301 179.104 107.643 179.104C107.03 179.104 103.389 179.37 105.738 178.685C109.351 177.631 112.925 176.446 116.52 175.332C119.164 174.513 122.097 173.892 124.597 172.665C125.949 172.002 122.382 172.246 122.197 172.246C119.392 172.246 116.61 172.256 113.815 172.513C111.683 172.709 112.235 172.883 114.12 172.437C118.783 171.332 123.36 169.886 127.874 168.284C130.073 167.503 132.664 166.982 134.731 165.884C137.221 164.561 129.144 166.664 126.388 167.255C121.654 168.271 116.891 169.323 112.253 170.722C109.101 171.673 113.518 170.631 114.234 170.456C118.039 169.521 121.849 168.384 125.702 167.674C126.953 167.444 130.721 166.853 129.474 167.103C127.874 167.423 126.15 168.511 124.711 169.236C123.542 169.826 121.519 170.58 120.597 171.56C120.367 171.805 122.456 171.351 122.692 171.294C123.684 171.053 123.137 171.595 122.616 171.98C120.86 173.275 119.089 174.561 117.168 175.599C116.662 175.872 114.462 177.208 116.368 176.628C119.483 175.678 122.631 174.868 125.854 174.38C127.042 174.2 130.986 173.014 132.141 173.694C132.53 173.923 131.48 174.319 131.093 174.551C129.855 175.294 128.586 175.986 127.378 176.78C125.32 178.133 123.511 179.7 121.968 181.619C121.357 182.379 121.543 182.564 122.387 181.961C124.473 180.472 126.387 178.732 128.445 177.199C129.409 176.481 130.761 175.664 131.531 174.723C131.54 174.712 128.028 176.236 127.797 176.209C127.333 176.154 129.107 172.885 129.169 172.78C130.627 170.274 132.494 168.034 134.427 165.884C135.131 165.1 137.538 163.483 136.484 163.483C135.735 163.483 134.54 165.206 134.084 165.655C133.69 166.043 132.073 167.979 131.493 167.979C130.254 167.979 133.189 166.159 134.16 165.388C134.757 164.915 140.556 161.086 137.627 163.293C135.32 165.031 133.076 166.796 130.617 168.322C129.694 168.895 128.137 170.189 126.959 170.189C126.76 170.189 129.641 167.289 129.855 167.103C132.521 164.782 135.383 162.712 138.313 160.74C138.557 160.576 141.381 158.93 139.761 159.635C137.578 160.586 135.52 161.768 133.36 162.76C133.255 162.808 130.948 163.88 130.807 163.598C130.363 162.709 134.227 159.96 134.693 159.559C136.369 158.117 138.01 156.662 139.913 155.521C141.329 154.671 138.959 157.131 138.808 157.311C137.236 159.194 135.466 161.027 134.198 163.141C133.065 165.028 137.465 160.161 139.303 158.95C140.947 157.866 145.468 154.359 147.647 154.949C147.847 155.004 142.602 161.576 142.123 162.15C140.751 163.792 139.425 165.788 137.817 167.217C136.628 168.274 139.802 164.701 141.018 163.674C142.298 162.593 143.646 161.799 145.056 160.931C145.173 160.859 142.89 163.465 142.504 163.903C140.208 166.5 137.879 169.067 135.684 171.751C134.485 173.217 133.791 173.445 135.036 171.37C136.322 169.227 137.978 167.426 139.494 165.465C140.588 164.049 137.013 167.265 136.941 167.331C134.28 169.819 131.7 172.424 128.902 174.761C128.761 174.879 126.607 176.964 127.112 175.713C128.555 172.136 132.119 169.306 134.846 166.76C138.035 163.782 141.298 160.893 144.561 157.997C146.935 155.89 142.577 159.871 142.161 160.283C139.882 162.542 140.933 161.47 142.046 159.674C143.431 157.439 144.704 155.199 146.428 153.197C146.522 153.088 147.876 151.335 147.876 152.092C147.876 152.879 146.265 156.567 146.923 155.559C148.304 153.441 150.004 151.764 151.838 150.034C152.808 149.12 153.899 147.229 155.076 146.606C156.136 146.045 153.959 148.728 153.362 149.768C152.125 151.923 150.88 154.111 149.742 156.321C148.748 158.253 150.852 154.552 151.038 154.263C152.351 152.227 153.894 150.384 155.267 148.396C155.332 148.302 156.413 146.877 155.953 147.71C154.857 149.694 153.087 151.365 151.8 153.235C151.711 153.364 149.566 156.534 149.323 155.902C148.847 154.663 150.006 152.771 150.543 151.749C150.985 150.905 152.396 148.605 151.571 149.082C149.248 150.427 147.212 154.112 145.628 156.245C145.513 156.399 143.57 159.334 143.57 158.226C143.57 155.283 144.794 152.025 145.475 149.196C146.242 146.015 147.369 142.808 147.799 139.557C147.819 139.411 147.901 137.402 147.876 138.529C147.826 140.714 146.847 147.191 146.847 145.005C146.847 143.342 148.281 141.253 148.98 139.862C150.581 136.679 152.358 133.695 154.581 130.909C155.057 130.312 156.378 128.525 155.953 130.452C155.166 134.011 153.856 137.448 152.486 140.815C151.858 142.357 151.438 144.998 150.352 146.301C149.687 147.098 150.499 144.217 150.771 143.215C151.399 140.9 152.275 138.539 153.362 136.395C153.912 135.31 154.37 134.969 154.391 136.395C154.414 137.991 154.493 139.645 154.314 141.234C154.294 141.416 153.883 143.582 154.124 142.453C154.819 139.192 156.091 136.021 157.4 132.966C157.955 131.671 158.55 129.374 159.801 128.509C160.072 128.321 160.222 135.316 160.143 136.166C160.095 136.698 159.534 142.017 159.534 139.672C159.534 139.378 159.567 136.788 159.534 137.957C159.462 140.489 158.064 143.796 157.134 146.148C155.996 149.026 158.196 140.035 159.115 137.081C160.088 133.953 159.17 137.738 158.848 138.757C158.112 141.082 157.196 143.396 156.181 145.615C155.463 147.185 156.642 141.416 154.733 142.834C154.224 143.212 152.455 146.086 151.99 145.158" stroke="black" stroke-width="3" stroke-linecap="round"/>
<path d="M155.076 111.212C155.076 118.215 155.076 125.219 155.076 132.223C155.076 133.563 155.068 129.541 155.153 128.204C155.455 123.393 156.508 118.643 157.4 113.917C157.65 112.595 158.162 108.609 158.162 109.954C158.162 112.819 157.637 115.707 157.305 118.546C157.066 120.59 156.448 126.719 156.448 124.661C156.448 122.194 156.497 119.739 156.962 117.307C157.093 116.622 157.797 113.941 157.819 116.203C157.862 120.405 157.819 124.61 157.819 128.813C157.819 129.155 157.614 132.822 157.896 130.794C158.424 126.99 159.599 123.318 160.753 119.67C160.834 119.415 161.934 116.547 161.934 117.174C161.934 120.082 161.934 122.991 161.934 125.899C161.934 127.421 161.757 131.882 162.277 130.452C163.494 127.104 163.127 122.716 163.477 119.212C163.651 117.473 163.991 112.245 163.991 113.993C163.991 117.269 163.991 120.546 163.991 123.822C163.991 124.216 163.991 128.804 163.991 127.27C163.991 123.381 163.979 119.51 163.649 115.631C163.495 113.827 163.251 113.448 162.544 115.441C160.905 120.059 159.767 124.844 158.239 129.499C157.93 130.438 157.843 133.04 157.21 132.28C156.689 131.655 157.134 128.893 157.134 128.166C157.134 125.535 157.57 122.806 157.477 120.203C157.445 119.316 154.969 123.105 154.867 123.27C153.293 125.803 151.943 128.413 150.485 131.004C149.511 132.737 151.468 127.126 152.314 125.327C152.545 124.836 153.3 122.786 152.828 124.47C152.453 125.812 151.759 127.034 151.381 128.356C151.032 129.578 151.711 125.831 151.8 125.537C152.523 123.135 153.563 120.782 154.733 118.565C155.239 117.607 155.076 119.485 155.076 119.784" stroke="black" stroke-width="3" stroke-linecap="round"/>
<path d="M155.419 100.582C155.419 103.58 155.62 112.548 155.248 109.573C154.366 102.521 152.828 81.2834 152.828 88.3903C152.828 90.3462 153.767 92.4023 154.429 94.1814C156.211 98.971 157.861 103.83 159.477 108.678C159.808 109.673 160.563 112.679 160.563 111.631C160.563 109.163 160.627 106.687 160.544 104.22C160.526 103.695 160.198 100.675 160.22 101.077C160.365 103.758 161.554 106.415 162.201 109.002C162.479 110.114 162.66 111.249 162.963 112.355C163.065 112.726 163.033 113.732 163.306 113.459C163.983 112.782 163.298 108.176 163.229 107.249C163.204 106.905 162.963 103.086 162.963 104.525C162.963 108.447 163.396 112.354 163.287 116.279C163.28 116.522 163.234 121.097 162.41 120.717C160.344 119.764 159.692 114.743 159.401 112.831C159.301 112.175 158.901 109.554 158.924 109.65C159.322 111.29 159.785 112.914 160.143 114.564C160.514 116.268 160.656 114.67 160.734 113.764C161.166 108.757 161.248 103.664 161.248 98.6389C161.248 98.1669 160.718 93.9432 160.982 95.8577C161.21 97.5151 161.686 99.2837 162.277 100.849C163.003 102.771 162.178 100.749 161.782 100.011C160.37 97.3803 158.856 94.8086 157.477 92.1621C156.611 90.5007 156.721 90.726 157.515 92.2764C158.981 95.1419 160.11 97.9929 161.229 101.001C161.288 101.159 162.448 103.69 161.344 102.716C158.415 100.132 155.973 96.7995 153.762 93.6099C152.437 91.6989 150.976 89.7901 149.933 87.7045C149.354 86.5476 151.73 88.0535 152.066 88.2379C153.026 88.7641 155.888 90.2308 155.114 89.4571C153.713 88.0557 152.028 86.4732 150.428 85.3043C149.947 84.9529 149.276 84.0606 150.314 84.6947C151.911 85.6709 153.387 87.1008 154.886 88.2379C155.007 88.3297 157.096 90.0853 156.905 90.2191C156.043 90.8222 153.188 87.3959 152.676 86.9425C152.364 86.6659 150.163 85.2506 150.333 84.6566C150.538 83.9399 152.585 85.5198 152.828 85.6472C153.491 85.9941 154.449 86.2604 153.114 86.1615C150.624 85.977 148.219 85.2413 145.856 84.4852C145.286 84.3027 139.804 83.0364 142.885 83.0946C144.451 83.1241 145.99 83.4668 147.533 83.7041C148.996 83.9292 148.821 83.763 147.647 83.0946C145.287 81.7512 142.986 80.4174 140.751 78.8656C139.936 78.2994 138.138 77.5469 140.294 78.1988C141.004 78.4134 145.682 80.7701 145.533 80.8277C144.645 81.169 143.072 80.4007 142.294 80.1228C140.178 79.3671 138.11 78.5598 135.932 77.9893C135.543 77.8875 130.007 76.8834 130.007 76.3129C130.007 76.2327 137.425 78.3726 138.122 78.637C138.522 78.7885 141.315 79.5406 139.513 79.6466C136.81 79.8056 133.972 79.4157 131.341 78.8084C127.815 77.9947 136.573 79.6664 136.141 79.9323C135.604 80.263 134.134 80.0085 133.588 80.0085C131.773 80.0085 129.956 80.0231 128.14 80.0085C127.725 80.0052 123.592 79.6656 124.864 79.6656C129.038 79.6656 133.202 79.8028 137.341 80.3895C139.894 80.7513 142.362 81.3601 144.847 82.0278C145.808 82.286 147.17 82.3925 148.047 82.9041C148.86 83.3783 146.168 83.0973 145.228 83.0565C141.514 82.895 137.832 82.3492 134.179 81.6849C130.356 80.9899 126.587 80.077 122.806 79.1894C121.043 78.7753 118.933 78.5695 117.263 77.8178C115.253 76.9135 121.672 77.5839 123.873 77.6845C126.583 77.8084 134.701 78.2941 131.988 78.2941C128.179 78.2941 124.193 77.092 120.521 76.2367C119.993 76.1138 112.024 74.9097 112.024 74.2556C112.024 74.0999 125.7 74.1794 127.169 74.1794C132.126 74.1794 117.184 73.9033 112.367 72.7316C111.65 72.5572 115.122 72.9915 115.434 73.0555C118.483 73.6799 121.513 74.4081 124.54 75.1319C125.214 75.2931 127.173 75.8058 126.483 75.8748C124.055 76.1176 121.597 75.7081 119.168 76.0653C116.73 76.4238 122.341 76.7337 122.73 76.7701C125.546 77.0329 128.357 77.5611 131.188 77.6083C134.81 77.6687 123.948 77.3668 120.33 77.1892C112.694 76.8144 105.076 76.5796 97.4325 76.5796C97.2419 76.5796 96.1337 76.5796 97.0896 76.5796C98.9829 76.5796 100.874 76.5701 102.766 76.5034C107.584 76.3336 112.385 76.2367 117.206 76.2367C118.282 76.2367 121.613 76.1797 118.463 75.8748C111.878 75.2376 105.326 74.2304 98.7469 73.5127C97.805 73.4099 94.9801 73.1507 95.9276 73.1507C97.553 73.1507 99.1792 73.1355 100.804 73.1698C104.879 73.2555 109.266 73.3589 113.244 74.3318C113.258 74.3353 116.529 75.2053 115.377 75.5509C113.156 76.2172 110.574 76.2746 108.291 76.5796C103.404 77.2324 98.5276 77.8855 93.6798 78.7894C89.679 79.5353 94.4326 79.3322 95.7562 79.3037C100.348 79.2049 104.915 78.6691 109.51 78.637C110.129 78.6326 114.897 78.637 111.682 78.637C104.379 78.637 97.0769 78.637 89.7746 78.637C89.5213 78.637 82.8047 78.9135 82.7263 78.5608C82.6994 78.4398 87.2995 77.8843 87.3744 77.875C93.102 77.1654 98.8944 76.6282 104.595 75.7414C107.069 75.3566 102.023 75.5509 101.681 75.5509C98.1882 75.5509 94.6958 75.5509 91.2033 75.5509C89.0885 75.5509 95.3869 74.919 97.4897 74.6937C100.166 74.4069 102.838 74.1423 105.471 73.5698C107.008 73.2357 100.281 73.4557 99.7947 73.4936C96.993 73.7121 94.0625 74.5223 91.2605 74.5223C89.9346 74.5223 93.7283 73.545 94.9942 73.1507C95.7974 72.9005 96.5411 72.6084 97.242 72.1411C98.2406 71.4754 94.8418 72.122 93.6417 72.122C89.7806 72.122 86.5476 73.1379 82.9168 74.408C80.1716 75.3683 77.3524 76.1894 74.6493 77.2654C74.6179 77.2779 72.5077 78.2021 72.973 78.4846C73.567 78.8453 75.0925 78.5001 75.659 78.4465C78.1783 78.2082 80.6926 77.9307 83.2026 77.6083C86.6289 77.1682 90.0491 76.7086 93.4702 76.2367C96.3618 75.8379 90.8784 77.4328 90.5366 77.5702C86.5273 79.1814 74.394 83.7463 78.4211 82.1802C81.243 81.0828 84.0202 79.919 86.7648 78.637C88.4177 77.8649 90.047 77.0343 91.7558 76.3891C92.2771 76.1923 93.3897 76.0505 93.8131 75.6271C95.3887 74.0516 89.618 77.2075 87.7173 78.3703C83.188 81.1412 78.9543 84.5978 74.3064 87.133C74.0657 87.2644 72.7034 87.9828 73.6778 87.5331C75.7198 86.5906 77.6326 85.2589 79.4498 83.9518C81.238 82.6655 83.2249 81.4616 84.898 80.0276C86.3028 78.8235 81.5315 81.6182 80.0403 82.7136C75.7114 85.8932 71.8197 89.4594 67.8677 93.0765C67.5164 93.398 63.9134 96.0007 64.3626 95.3624C65.4792 93.7757 67.7073 92.6367 69.2012 91.4573C71.6543 89.5206 73.6677 87.2222 75.4875 84.6947C75.8725 84.16 76.4054 83.4871 75.297 83.8565C71.377 85.1632 68.5061 89.9299 65.9247 92.886C64.9779 93.9702 61.6176 98.9056 59.905 98.9056C59.6671 98.9056 61.7165 95.5554 61.8862 95.2862C63.169 93.2504 64.4749 91.2937 66.058 89.4761C66.6202 88.8306 67.8552 86.6148 67.6201 87.4378C66.7945 90.3272 65.8496 93.5173 64.7055 96.2959C63.8883 98.2804 62.7912 101.104 60.7813 102.22C59.6508 102.848 59.0757 101.94 59.7526 100.925" stroke="black" stroke-width="3" stroke-linecap="round"/>
<path d="M11.0621 95.4386C10.3064 95.3547 9.27258 94.5056 8.73804 93.9909C8.56828 93.8274 6.9591 92.2284 7.80462 92.886C10.1728 94.7279 12.615 97.8967 13.9386 100.544C14.8403 102.347 13.4307 100.25 12.9289 99.6676C10.8496 97.2555 8.99938 93.7662 8.05226 90.7143C7.72911 89.6731 10.4427 92.883 10.6049 93.0955C13.0774 96.3354 15.6545 99.8756 18.4533 102.83C20.3257 104.806 18.0714 100.511 17.8437 100.01C15.2603 94.3355 13.9879 88.206 11.4621 82.5231C11.1329 81.7822 11.0748 81.2169 11.405 82.2945C12.1058 84.5813 13.0693 86.6778 14.0719 88.8475C14.7505 90.316 15.3834 91.8078 15.9959 93.3051C16.15 93.6817 16.5971 94.4479 16.3197 93.4575C15.6214 90.9634 14.6499 88.5705 13.9957 86.0472C13.9622 85.918 13.3874 83.1242 13.1956 83.5898C12.9519 84.1817 13.615 85.1081 13.8433 85.59C15.0065 88.0457 16.0182 90.5685 17.2341 93.0003C18.1191 94.7702 19.0069 96.571 19.9772 98.296C20.4804 99.1905 20.8289 99.7107 20.5106 98.296C19.3841 93.2892 18.3447 88.216 18.2628 83.0564C18.2482 82.1358 17.9399 79.4394 18.2818 80.2943C18.7251 81.4024 19.1522 82.5106 19.6344 83.6089C19.9173 84.2533 22.4132 89.8535 21.8822 87.3235C21.4219 85.1306 20.8256 82.9594 20.3392 80.7705C20.0899 79.6487 19.1689 77.2879 19.8058 76.1415C19.9623 75.8598 20.9472 77.6639 21.0059 77.7607C22.244 79.8012 23.5944 81.7526 24.9111 83.7422C25.2752 84.2924 29.4044 89.9707 29.1591 88.6951C28.6368 85.9793 27.7928 83.3191 27.197 80.6181C26.1955 76.0778 25.9692 71.592 25.6349 66.9787C25.618 66.7452 25.1469 64.1226 25.8064 64.045C26.3146 63.9853 27.423 66.4324 27.597 66.712C29.6492 70.0089 31.5976 73.3768 33.6167 76.6939C34.8803 78.7698 33.2921 73.0331 33.2167 72.4459C32.9584 70.4375 32.9052 68.3881 32.7404 66.3691C32.7048 65.9327 32.3411 64.0253 32.7404 63.626C33.2336 63.1328 36.8165 68.7905 37.1027 69.1694C37.3488 69.495 40.5126 73.183 40.5126 72.5411C40.5126 67.0996 37.4326 61.793 38.2267 56.2347C38.5616 53.8905 42.9236 60.0548 43.4843 60.6352C44.9722 62.1752 46.504 63.6739 48.0181 65.188C48.2124 65.3823 50.0493 67.4765 49.6564 66.1405C49.1514 64.4236 48.007 61.3923 48.8563 59.5875C49.7811 57.6222 57.3491 63.2742 58.9906 63.626C59.1531 63.6608 56.6955 58.252 56.3999 57.4539C56.358 57.3408 58.994 60.0316 59.6764 60.559C60.746 61.3855 60.2579 60.1154 61.6766 60.3304C63.0278 60.5351 65.1615 62.4027 64.5531 60.197C64.3052 59.2984 63.2562 57.9108 64.6864 58.1968C65.8049 58.4205 63.3696 55.8157 62.229 55.8157C61.9999 55.8157 62.2852 56.4603 62.3052 56.5205C62.4969 57.0955 61.3881 57.2522 61.048 57.3015C59.1702 57.5741 57.1747 57.3777 55.276 57.3777C54.1113 57.3777 50.8549 56.0379 51.8661 56.6157C52.2366 56.8274 46.6798 56.9952 45.5988 56.8634C41.9796 56.422 47.1289 55.6622 48.2277 55.3204C49.7488 54.8471 50.3388 54.6492 48.2467 54.6346C44.9578 54.6116 41.668 54.6346 38.3791 54.6346C38.2939 54.6346 35.3987 54.7415 36.5884 54.4441C38.4345 53.9826 40.4991 53.8521 42.2652 53.1297C44.0412 52.4031 38.4311 52.9201 36.5122 52.9201C34.7851 52.9201 29.6036 52.9201 31.3307 52.9201C33.3055 52.9201 35.2803 52.9201 37.2551 52.9201C39.2501 52.9201 41.9664 52.5336 43.8653 53.3392C45.624 54.0853 40.1785 56.3144 40.0554 56.3681C36.2011 58.05 32.1954 59.4771 28.1876 60.7495C27.5521 60.9512 25.6606 61.5994 26.3017 61.4162C27.9926 60.9331 29.5733 59.9431 31.1403 59.1684C31.3784 59.0507 33.4937 58.1723 33.35 58.3683C31.3367 61.1137 27.9292 63.214 25.3683 65.3976C23.2863 67.1727 21.3326 69.088 19.2534 70.8648C18.2642 71.7101 19.1999 70.8486 19.5201 70.5028C20.2858 69.6758 25.4257 64.8285 21.6536 66.5977C19.1843 67.7558 16.8624 69.33 14.7577 71.0553C14.4328 71.3216 10.6323 74.7269 12.6051 72.6554C14.5036 70.662 16.6044 68.9772 18.7962 67.3216C20.1818 66.2748 24.2131 63.0539 23.1014 64.3879C21.288 66.564 18.5731 68.4001 16.5864 70.4457C12.4877 74.6659 8.71726 79.1683 5.11864 83.8184C3.96947 85.3034 2.35807 86.9914 1.70878 88.8094C1.45622 89.5166 2.75081 87.7243 3.21369 87.133C5.37247 84.3754 7.48101 81.5764 9.57622 78.7703C13.006 74.1768 22.7034 60.0018 19.8249 64.9594C17.4014 69.1332 15.2517 73.8688 14.0148 78.5417C13.7993 79.3557 13.7422 79.8526 14.3767 78.8656C16.5238 75.5256 18.7025 72.2 20.7964 68.8265C21.4605 67.7564 23.2558 64.4583 22.8347 65.6452C21.5415 69.2895 19.2344 72.8242 17.3865 76.1986C15.988 78.7524 14.6768 81.4355 13.0813 83.8756C10.6061 87.6613 17.8156 76.1666 20.2439 72.3506C20.7107 71.6172 22.5295 67.6735 23.5967 67.3597C24.272 67.161 23.3588 68.7547 23.1204 69.417C22.4324 71.3281 21.591 73.1798 20.8154 75.0557C19.8807 77.3164 18.8646 79.6081 18.1485 81.9516C18.0776 82.1836 17.8483 82.7688 18.0723 82.6755C18.9301 82.318 20.5368 79.7424 20.9297 79.2465C24.5856 74.6337 28.3273 70.0902 31.9784 65.4738C33.121 64.0292 34.2232 62.5025 35.5216 61.1876C35.7138 60.9931 36.7712 59.9484 36.2265 61.0924C32.9764 67.9176 27.8784 73.7629 24.8539 80.7324C24.2597 82.1016 27.3982 79.1378 28.4924 78.1226C31.7584 75.0923 34.6163 71.6944 37.6933 68.4836C39.7776 66.3086 38.2211 68.4396 37.5028 69.5694C35.581 72.5921 33.5843 75.5213 31.3879 78.3512C31.3501 78.3999 28.711 81.7522 29.5401 81.8373C30.4507 81.9307 31.9914 80.4013 32.4928 79.9895C34.4258 78.4017 36.3006 76.7346 38.1886 75.0938C39.687 73.7914 42.3477 72.1094 43.2748 70.2552C43.6953 69.4142 41.8425 71.4751 41.1603 72.122C38.8176 74.3435 36.4736 76.5656 34.2072 78.8656C32.2308 80.8713 31.1758 82.013 29.2925 84.0661C28.5039 84.9256 26.3643 86.747 25.8445 88.0093C25.4895 88.8713 27.4971 87.1241 28.2257 86.5425C31.7088 83.7624 35.0374 80.7827 38.3791 77.8369C39.9384 76.4622 41.3932 74.9572 43.0652 73.7222C44.3903 72.7434 41.0975 76.3673 40.0364 77.6273C36.4857 81.8438 32.8339 85.9731 29.2734 90.181C28.0218 91.6601 26.7726 93.1529 25.7302 94.7909C25.025 95.8991 27.754 93.11 28.6829 92.1812C29.5084 91.3557 31.3515 88.5692 31.1784 89.7238C31.075 90.4131 29.8647 91.6324 29.521 92.105C28.513 93.4911 27.5329 94.8982 26.5684 96.3149C26.3901 96.5768 23.6787 101.045 25.1397 98.7151C27.2228 95.3934 29.4582 92.1758 31.5593 88.8665C31.6022 88.799 33.6309 85.7544 32.7023 86.2187C30.5511 87.2943 28.6214 89.3594 26.8732 90.962C25.2215 92.476 23.3923 93.9331 21.9203 95.6291C20.5746 97.1796 23.9555 94.7438 24.1681 94.6004C26.3492 93.1295 28.4586 91.525 30.4926 89.8571C33.6919 87.2337 30.2538 90.0989 29.0829 91.0953C28.864 91.2816 22.6456 96.6419 25.1206 94.0671C29.2008 89.8224 32.9574 85.2986 36.8932 80.9229C38.1393 79.5375 41.5057 75.2455 40.8745 76.9987C39.9923 79.4495 37.9218 81.8069 36.5122 83.9708C35.4111 85.6612 33.8251 87.425 32.9881 89.2666C31.4615 92.625 37.6456 83.5441 39.9411 80.6562C43.0631 76.7286 46.218 72.5183 49.8088 68.9979C52.4169 66.4409 45.3982 74.8212 43.1795 77.7226C42.992 77.9679 40.0909 81.3475 40.3412 81.723C40.8023 82.4146 41.4876 80.5184 42.0366 79.8942C43.7005 78.0022 45.3708 76.1159 47.0275 74.2175C49.1575 71.7769 51.2711 69.328 53.5425 67.0168C54.2013 66.3464 51.2655 69.4343 50.8946 69.8551C50.6383 70.1459 47.3143 73.875 49.6564 72.8459C52.8381 71.4479 55.8733 68.9513 58.3429 66.5215C59.6661 65.2197 57.5962 66.6595 57.2571 66.8644C55.1301 68.1495 53.0459 69.5078 50.9517 70.8457C49.134 72.007 51.095 70.1079 51.4851 69.6837C53.6967 67.2789 56.0349 64.9721 58.1524 62.483C62.4539 57.4268 47.8065 70.8035 42.6462 74.9795C36.9578 79.5828 48.4339 69.0291 43.732 69.9694C42.02 70.3118 40.5447 71.2374 38.9886 71.9696C37.1254 72.8464 40.8015 69.4764 41.0841 69.1884C41.321 68.9469 44.6442 65.4629 43.7701 65.2642C42.2913 64.9281 39.7442 66.72 38.4172 67.2644C36.0091 68.2523 39.7046 66.012 39.8649 65.9119C43.4745 63.6584 47.1043 61.4378 50.7041 59.1684C52.1566 58.2527 56.5027 55.8245 54.7997 56.0443C51.5599 56.4623 48.0863 58.4699 45.2369 59.9685C44.6282 60.2886 41.3662 61.8299 44.0177 61.7401C46.6519 61.6508 48.9444 60.3972 51.428 59.7018C53.5834 59.0982 47.3338 61.5202 45.3512 62.5592C41.2208 64.7238 44.537 63.9007 46.7989 63.2069C48.9485 62.5475 51.1523 61.9839 53.2567 61.1876C54.99 60.5318 52.3364 61.2068 52.0566 61.3019C50.3827 61.8707 48.721 62.6448 47.1799 63.5117C45.4305 64.4957 48.4298 64.2368 48.9896 64.2165C50.4769 64.1624 51.898 63.9167 53.352 63.626C54.4523 63.4059 52.0876 64.5403 51.828 64.6927C49.8288 65.8669 55.1452 61.3282 53.9044 61.9686C52.9688 62.4515 43.2197 68.2801 43.37 68.7312C43.4443 68.9542 50.0457 64.2073 50.3421 63.9688C53.2861 61.6006 57.0498 58.8866 59.1049 55.6252C60.2892 53.7457 52.0016 54.9775 53.5806 54.9775C54.9321 54.9775 51.0769 54.9573 50.5707 55.0537C49.3224 55.2915 54.4491 54.9775 50.6088 54.9775C48.589 54.9775 45.2921 54.5067 43.4272 55.5109C39.8488 57.4377 35.7815 58.5105 32.0546 60.1208C30.103 60.9641 30.4062 60.4637 28.0352 60.4637C27.7889 60.4637 25.192 60.728 25.0063 60.3875C24.8197 60.0453 28.4807 58.2648 28.6067 58.1968C30.6603 57.089 32.7094 55.9414 34.6454 54.6346C35.1307 54.307 36.8876 53.0408 35.1787 53.3392C33.5298 53.6271 32.0484 54.5321 30.6831 55.4537C30.2158 55.7691 28.4354 56.5864 28.2638 57.1872C28.1791 57.4837 30.5078 57.3358 30.3021 57.5301C29.7325 58.068 28.8149 58.1022 28.5686 58.9398C27.6143 62.1844 26.9649 65.2228 25.4254 68.3121C22.0603 75.0648 8.33748 93.1724 12.9099 87.1711C14.7471 84.7598 16.5597 82.3312 18.4152 79.9323C19.2176 78.8949 21.2354 76.0636 19.3677 78.7132C19.0091 79.2219 18.4183 80.8647 17.7866 81.0753C17.4208 81.1972 17.9265 78.5348 18.0532 78.256C19.4788 75.1199 15.7611 84.7542 14.5291 87.9712C14.509 88.0237 13.8052 90.3655 13.8052 89.3047C13.8052 87.1096 13.88 84.6411 14.491 82.5231C14.6225 82.0672 13.5544 87.8845 12.2622 86.1615C11.7237 85.4434 10.727 84.6513 9.76672 85.3043C8.60094 86.097 7.97606 86.8511 7.97606 88.2379C7.97606 89.8137 8.40078 90.0921 9.76672 90.3715C11.9531 90.8187 13.6799 92.3118 15.8245 92.8479C17.3927 93.2399 17.3593 93.5003 16.7388 95.0957C16.2933 96.2414 16.6499 96.5607 17.2341 97.4198C17.5784 97.926 17.5524 98.7416 18.3009 98.8485C19.3595 98.9997 20.2999 98.9482 21.3488 99.2104" stroke="black" stroke-width="3" stroke-linecap="round"/>
<path d="M131.746 47.7974C132.976 47.7974 134.371 48.0066 135.577 47.7874C135.691 47.7666 133.393 46.0656 133.043 45.8623C132.439 45.5118 131.466 44.6154 132.115 45.8323C132.228 46.0439 133.28 47.7864 132.724 47.0792C131.644 45.7048 133.935 46.6291 134.679 46.8996C135.11 47.0563 134.965 46.3867 134.978 46.0418C135 45.4419 136.405 46.8923 136.594 47.0393C137.54 47.7747 137.312 46.5389 137.312 45.8024C137.312 45.0709 137.312 44.3395 137.312 43.608C137.312 43.268 137.219 42.3849 137.572 43.1492C138.349 44.8335 139.039 46.5487 139.896 48.1963C140.265 48.9073 140.185 47.4411 140.185 47.3186C140.185 46.1793 140.096 45.0422 140.005 43.9072C139.979 43.5776 140.132 42.7818 139.836 42.9297C139.55 43.0725 140.224 45.6844 140.265 45.8623C140.639 47.4775 141.047 49.0871 141.432 50.7C141.562 51.2461 141.719 52.822 141.94 52.3059C142.187 51.7317 141.983 50.5977 141.98 50.0117C141.972 48.3361 141.856 46.6684 141.811 44.9945C141.794 44.3795 141.406 42.7142 141.841 43.1492C142.448 43.756 142.722 45.5628 142.988 46.3211C143.176 46.8577 145.111 53.2681 145.89 53.1238C146.607 52.9912 146.071 45.2585 146.02 44.3661C145.978 43.6372 145.93 42.9119 145.93 42.1816C145.93 41.1317 146.034 44.2802 146.15 45.3236C146.202 45.7946 147.327 52.8844 147.686 52.7049C148.128 52.484 148.094 50.5059 148.125 50.2112C148.346 48.0921 148.494 45.9663 148.713 43.8474C148.72 43.7798 148.932 41.6052 149.162 41.6729C149.552 41.7877 149.426 44.9477 149.441 45.2239C149.545 47.0698 149.71 48.909 149.97 50.7399C150.086 51.557 150.214 53.8315 150.638 53.1238C151.479 51.7233 151.653 49.5984 151.995 48.0268C152.13 47.4059 152.128 46.0673 152.573 45.5431C152.729 45.36 152.751 46.001 152.753 46.2413C152.767 47.7572 152.753 49.2738 152.753 50.7898C152.753 51.4413 152.574 55.3042 153.112 52.645C153.74 49.5445 153.842 46.3633 154.628 43.2888C154.917 42.1602 154.905 43.455 154.908 43.8474C154.92 45.9785 154.908 48.11 154.908 50.2411C154.908 51.4362 154.875 52.6374 154.917 53.832C154.925 54.0312 155.014 55.3484 155.446 54.6001C156.521 52.7402 156.792 50.4327 157.601 48.4557C158.645 45.9031 155.86 59.3483 156.354 56.6349C156.644 55.0395 156.637 53.3949 156.882 51.7872C156.944 51.3872 157.316 48.0418 157.69 47.9669C157.82 47.941 157.764 48.2237 157.77 48.3559C157.785 48.6736 157.78 49.4085 157.78 49.6726C157.78 51.3322 157.827 52.983 157.92 54.64C157.962 55.3851 157.957 56.1741 158.139 56.9042C158.263 57.3987 158.443 55.9246 158.498 55.418C158.772 52.9261 158.803 49.9235 159.745 47.5679C159.838 47.3364 159.755 48.0666 159.755 48.316C159.755 49.8189 159.755 51.3217 159.755 52.8246C159.755 54.221 159.755 55.6175 159.755 57.0139C159.755 58.0628 159.713 58.4008 159.775 57.0538C160.001 52.136 160.843 47.0889 162.069 42.3213C162.171 41.9254 162.373 40.8062 162.528 41.1841C163.008 42.3505 162.628 44.3693 162.628 45.583C162.628 49.0808 162.628 52.5785 162.628 56.0763C162.628 56.5326 162.625 56.9985 162.837 56.1362C163.371 53.9686 163.727 51.7538 164.204 49.5728C164.58 47.8538 164.826 45.8913 165.56 44.2763C165.855 43.6272 165.992 45.6496 166.039 46.361C166.335 50.7835 166.177 55.225 166.668 59.6373C166.865 61.4147 167.11 60.4607 167.336 59.2483C167.842 56.5407 168.275 53.8211 168.812 51.1189C169.087 49.7355 169.371 48.348 169.79 46.9994C169.983 46.3764 170.244 45.8183 170.308 46.8597C170.591 51.4108 169.656 56.0068 169.63 60.5649C169.627 61.1569 169.472 62.8983 169.67 62.3404C170.233 60.7531 170.348 58.8845 170.717 57.2434C171.074 55.6592 171.504 54.0976 171.944 52.5353C171.961 52.4772 172.594 50.5576 172.642 50.6102C172.986 50.985 172.815 53.1565 172.822 53.443C172.882 55.958 172.782 58.4827 172.952 60.9938C172.956 61.059 172.984 62.8763 173.401 62.6796C174.335 62.2383 174.577 59.1746 174.737 58.3805C175.227 55.9483 175.436 53.1982 176.413 50.8895C176.854 49.8465 176.735 53.1327 176.832 54.2609C177.1 57.3765 177.259 60.5402 177.849 63.6172C177.866 63.7036 178.023 64.9132 178.288 64.874C178.889 64.785 179.163 62.1237 179.236 61.7619C179.727 59.3284 180.303 56.9557 180.941 54.5602C181.093 53.9922 181.279 57.027 181.3 57.2932C181.493 59.6813 181.216 62.7047 182.098 64.9737C182.18 65.183 182.344 64.5855 182.388 64.3653C182.723 62.6913 182.769 60.9653 182.916 59.2682C183.004 58.2531 183.012 57.2013 183.186 56.196C183.281 55.6428 183.275 55.866 183.275 56.2958C183.275 59.8733 183.275 63.4509 183.275 67.0285C183.275 68.2853 183.275 69.5421 183.275 70.7989C183.275 70.9693 183.359 71.4359 183.176 71.567C182.909 71.7578 180.167 69.338 179.964 69.183C179.678 68.9647 177.38 66.7006 177.57 67.8863C177.96 70.3258 179.505 72.6386 180.373 74.9384C180.472 75.2022 180.821 75.8747 180.732 76.1853C180.68 76.3662 180.496 75.8901 180.403 75.7264C179.323 73.8249 178.333 71.8637 177.37 69.9012C176.158 67.4293 173.198 59.7132 174.139 62.3005C174.686 63.8048 175.415 65.5452 176.433 66.7891C177.296 67.8441 177.006 64.6049 177.031 64.2157C177.074 63.5553 177.38 60.8356 178.348 62.5C179.059 63.7237 179.299 65.2476 180.044 66.43C180.322 66.8721 180.177 65.6168 180.263 65.4725C180.318 65.3809 180.915 67.5942 180.931 67.8863C181.023 69.5278 179.509 69.0253 178.448 68.5048C175.075 66.8497 171.918 64.7655 168.543 63.0985C167.991 62.8259 166.996 62.0611 166.338 62.0611C165.734 62.0611 167.315 62.7781 167.845 63.0686C168.665 63.5185 169.447 64.0109 170.209 64.5548C170.425 64.7093 171.424 65.3153 170.548 65.1732C168.089 64.7744 166.315 62.9596 164.124 62.0013C163.543 61.7469 165.119 62.7894 165.62 63.1783C166.954 64.213 168.199 65.3462 169.5 66.4201C170.047 66.8712 170.695 67.4768 171.346 67.7866C171.417 67.8203 171.503 67.4269 171.575 67.3676C172.552 66.5632 174.359 67.4447 175.296 67.9063C175.911 68.2097 176.734 68.6856 175.525 68.6145C172.998 68.4658 170.37 66.726 168.234 65.5323C166.337 64.4722 160.806 61.1773 162.887 61.8018C163.396 61.9544 163.894 62.1335 164.383 62.3404C164.731 62.4874 165.803 62.7073 165.431 62.7693C164.603 62.9073 162.885 61.6025 162.229 61.2632C160.513 60.3758 158.799 59.4965 157.132 58.5201C157.097 58.4998 155.655 57.7614 155.725 57.6024C155.872 57.2723 157.994 57.4927 158.279 57.4927C158.677 57.4927 162.019 57.7483 161.73 57.1336C161.605 56.8687 161.413 56.6779 161.231 56.4554C160.952 56.1123 162.114 56.201 162.548 56.2858C164.559 56.6783 167.125 58.1498 169.211 57.8518C169.779 57.7706 168.121 57.4926 167.575 57.3132C166.31 56.8968 165.034 56.5121 163.775 56.0763C161.984 55.4564 164.299 55.6973 163.366 55.6973C160.384 55.6973 157.401 55.6973 154.419 55.6973C152.423 55.6973 150.201 55.9426 148.205 55.6574C147.329 55.5323 149.143 55.3668 148.683 54.9392C147.866 54.1782 146.495 54.163 145.621 53.453C145.108 53.0358 149.487 51.1375 149.92 50.5803C150.837 49.4019 146.72 47.9599 146.01 47.6577C145.842 47.5863 144.807 47.3168 144.833 46.9994C144.893 46.2578 147.118 45.7927 147.586 45.6428C148.821 45.2476 150.075 44.9218 151.327 44.5855C151.49 44.5415 153.101 44.1993 152.095 44.0668C151.311 43.9637 150.514 43.9778 149.731 43.8574C148.065 43.601 153.102 43.8496 154.788 43.8873C156.48 43.9252 158.283 43.8721 159.955 44.2065C160.712 44.3579 159.908 44.4409 159.636 44.4758C159.291 44.5199 156.723 44.7143 158.119 45.1441C159.49 45.5658 163.674 46.5094 162.249 46.351C161.979 46.3211 161.416 46.2288 161.231 46.0019C161.149 45.9005 161.48 45.8958 161.61 45.9022C162.872 45.9637 164.123 46.2987 165.331 46.6403C165.496 46.6869 168.973 48.0469 169.052 47.8372C169.267 47.2623 173.899 48.9445 174.528 49.2237C174.821 49.3541 174.878 49.3882 175.176 49.3235C176.445 49.0477 178.015 49.4778 179.226 49.8122C180.364 50.1266 181.249 50.536 181.979 51.4281C182.214 51.7154 182.666 54.3282 182.388 54.2709C180.885 53.9614 179.348 53.0571 178.009 52.3558C175.994 51.3002 174.019 50.0932 172.164 48.7749C172.124 48.7468 170.186 47.3095 170.917 47.2388C172.296 47.1053 174.266 48.4444 175.435 49.0143C176.676 49.6188 177.868 50.2784 178.986 51.089C178.996 51.0963 180.268 51.9487 179.724 51.8969C179.322 51.8586 178.248 51.1091 177.889 51.468C176.87 52.4876 176.406 52.9105 174.837 53.0939C173.44 53.2572 171.828 53.1614 170.588 53.9218C169.662 54.4889 168.937 55.32 167.885 55.6773C166.249 56.2328 164.559 55.7548 162.927 56.0963C162.421 56.2022 163.275 56.6363 163.376 56.7047C163.984 57.116 164.682 57.5164 165.062 58.171C165.856 59.5388 163.582 59.7752 162.738 59.9066C161.802 60.0521 161.423 60.2333 161.162 59.4478C160.926 58.74 160.268 58.7444 159.795 58.3505C159.603 58.1905 159.474 58.0769 159.237 57.9516C156.682 56.6055 154.167 55.1887 151.746 53.6126C150.152 52.5751 148.566 51.482 147.097 50.2711C146.698 49.942 145.468 49.1398 145.332 48.5554C145.197 47.9795 148.865 47.4184 147.646 46.5405C146.97 46.0537 145.512 45.7345 145.402 44.7451C145.312 43.9358 145.689 43.9191 144.733 43.7476C144.259 43.6624 142.555 43.5885 142.2 43.2689C142.082 43.163 142.373 43.0002 142.13 42.9596C141.852 42.9133 141.543 42.9497 141.262 42.9497" stroke="black" stroke-width="3" stroke-linecap="round"/>
<path d="M68.2551 166.749C65.5342 166.885 62.9573 168.596 60.6434 169.863C58.9438 170.794 57.2285 171.697 55.5306 172.631C54.8906 172.983 52.9675 173.729 52.6474 174.476C52.338 175.198 54.1521 173.993 54.8386 173.611C56.8008 172.521 58.7643 171.503 60.8356 170.632C62.1339 170.086 65.4752 168.376 62.258 170.113C59.4283 171.641 56.7392 173.427 53.8775 174.899C53.225 175.235 56.0549 173.019 56.4916 172.631C56.7962 172.36 60.1841 169.643 58.8366 170.709C58.2865 171.144 55.4313 173.684 56.088 173.227C58.2692 171.71 60.5532 170.307 62.6617 168.691C64.8185 167.037 59.6069 171.052 59.0673 171.516C58.6041 171.915 56.1534 174.416 58.0678 172.958C58.2333 172.832 60.5903 171.392 60.4128 171.747C59.5436 173.485 57.9268 175.173 56.7223 176.706C55.3764 178.419 59.2075 173.116 60.6434 171.478C61.4439 170.565 64.235 168.261 63.1806 168.864C62.123 169.468 61.1553 170.389 60.2974 171.247" stroke="black" stroke-width="3" stroke-linecap="round"/>
<path d="M136.997 169.095C140.935 169.095 144.054 171.19 147.255 173.39C147.885 173.823 149.824 174.806 149.06 174.806C147.451 174.806 144.793 172.59 143.577 171.745C142.051 170.686 139.16 169.614 138.071 168.09C137.969 167.947 140.198 168.774 140.538 168.912C143.52 170.127 146.458 171.425 149.471 172.568C152.218 173.61 150.423 173.262 148.717 172.568C147.593 172.11 141.776 168.654 145.222 170.649C146.934 171.64 148.67 172.829 150.248 174.03C150.566 174.272 153.014 175.674 152.623 175.674C150.965 175.674 148.874 174.484 147.369 173.938C145.798 173.369 144.394 172.442 142.846 171.814C142.324 171.602 140.894 171.549 141.292 171.151C142.589 169.855 148.26 173.658 149.745 174.03" stroke="black" stroke-width="3" stroke-linecap="round"/>
<path d="M55.8322 175.278C56.1435 175.278 53.5432 177.997 53.0956 178.5C50.6227 181.282 53.4072 178.654 54.4511 177.477C56.9362 174.676 59.8215 171.717 62.9164 169.575C64.7716 168.29 62.9275 171.277 62.7374 171.8C61.4059 175.462 66.6122 169.346 65.8576 170.316C63.553 173.28 60.9327 176.252 58.1339 178.756C56.4946 180.223 60.5903 175.065 62.1748 173.539C64.0706 171.713 60.0122 174.69 59.515 175.048C57.0774 176.8 53.9363 178.563 56.7529 174.255C58.2441 171.974 62.6324 168.583 57.6736 168.859C56.9249 168.9 51.7926 170.501 53.0956 169.524C58.2182 165.682 48.689 175.684 52.9678 172.183C54.9991 170.521 57.1585 169.053 59.3104 167.554C59.9508 167.108 61.7436 165.355 62.6351 165.355C63.6481 165.355 61.1589 166.743 60.4357 167.452C59.5062 168.364 58.5941 169.294 57.6736 170.214" stroke="black" stroke-width="3" stroke-linecap="round"/>
<path d="M141.918 162.849C139.997 160.928 144.019 162.801 144.705 163.13C146.93 164.196 150.842 165.664 152.301 167.81C152.891 168.678 149.678 166.717 150.076 167.989C150.417 169.08 152.996 171.345 150.639 171.109C149.259 170.971 147.402 170.175 146.265 169.396C144.48 168.171 146.695 168.891 147.621 169.293C151.8 171.11 138.695 164.843 144.322 166.531C147.013 167.339 148.376 167.918 150.204 168.731C151.043 169.104 150.269 167.375 151.611 168.884C152.299 169.659 153.041 170.577 153.324 171.595C153.425 171.959 153.243 173.035 153.452 172.721C153.778 172.232 156.096 172.72 154.143 172.056C153.761 171.926 149.521 169.903 150.076 169.779C151.512 169.46 155.854 169.754 152.045 169.754" stroke="black" stroke-width="3" stroke-linecap="round"/>
</svg>
