<svg width="31" height="26" viewBox="0 0 31 26" fill="none" xmlns="http://www.w3.org/2000/svg">
<path d="M2.2352 3.77057C3.31855 3.8789 4.50987 4.98798 5.38177 5.56216C7.82737 7.17267 10.0283 9.01528 12.2018 10.967C15.1721 13.6342 18.1982 16.2162 21.3405 18.6754C22.8909 19.8888 24.4499 21.0963 25.9625 22.3338C26.8215 23.0367 27.9888 23.2912 28.7929 24.0953" stroke="black" stroke-width="3" stroke-linecap="round"/>
<path d="M3 24.1187C3 24.412 3.41193 23.7098 3.55705 23.5466C4.36297 22.6399 5.11157 21.72 5.98096 20.8667C7.60572 19.2721 9.66704 17.9392 11.1299 16.1996C12.4481 14.632 13.8058 13.0419 15.2551 11.5926C16.6915 10.1562 18.3691 9.05073 19.8168 7.60296C22.2721 5.14775 23.9388 5.1223 25.5 2" stroke="black" stroke-width="3" stroke-linecap="round"/>
</svg>
