<svg width="118" height="133" viewBox="0 0 118 133" fill="none" xmlns="http://www.w3.org/2000/svg">
<path d="M84.0035 11.6733C78.27 11.6733 72.6441 10.895 66.8812 10.895C60.1172 10.895 53.4308 10.5059 46.6456 10.5059C40.5929 10.5059 34.6451 10.895 28.572 10.895C26.0236 10.895 23.5359 11.2842 20.962 11.2842C19.2936 11.2842 19.7946 13.4107 19.7946 14.5919C19.7946 22.7639 19.7946 30.936 19.7946 39.108C19.7946 41.8176 19.7946 49.9464 19.7946 47.2368C19.7946 44.3663 19.0808 41.6659 19.0163 38.827C18.841 31.1154 18.4054 23.3273 18.6272 15.5647C18.6717 14.0065 19.2346 12.0624 20.962 12.0624C23.9163 12.0624 26.9752 12.3078 29.9124 12.0408C34.7853 11.5978 39.515 10.1714 44.3972 9.72757C47.9017 9.40898 51.3229 8.64577 54.8177 8.25747C57.908 7.91409 61.1353 8.17099 64.2436 8.17099C69.8897 8.17099 86.6662 10.5059 81.0201 10.5059C70.5605 10.5059 60.0881 11.2842 49.5858 11.2842C42.1488 11.2842 34.7118 11.2842 27.2748 11.2842C23.954 11.2842 18.6272 11.3839 18.6272 15.7593C18.6272 25.8874 19.0163 36.1124 19.0163 46.3072" stroke="black" stroke-width="3" stroke-linecap="round"/>
<path d="M4.22881 59.5381C11.1781 59.5381 17.9388 59.719 24.8535 60.4029C30.2606 60.9377 35.7727 61.4839 41.1976 61.4839C42.872 61.4839 45.4782 62.291 45.4782 60.23C45.4782 56.3881 45.0072 52.7281 44.0081 49.0312C43.7689 48.1462 42.9836 45.3673 43.1433 45.4424C45.8687 46.725 48.392 49.6448 50.9262 51.3661C54.3876 53.7172 57.6319 56.299 60.5684 59.2355C61.7991 60.4662 64.1844 61.9274 64.9354 63.4296" stroke="black" stroke-width="3" stroke-linecap="round"/>
<path d="M2.28308 60.7056C2.28308 64.3376 2.28308 67.9696 2.28308 71.6016C2.28308 73.3945 4.33781 72.0176 5.78539 71.9908C9.96219 71.9134 14.1469 71.9908 18.3245 71.9908C24.2099 71.9908 29.953 72.7691 35.836 72.7691C40.0078 72.7691 44.0449 73.9365 48.2022 73.9365" stroke="black" stroke-width="3" stroke-linecap="round"/>
<path d="M48.5913 73.9365C48.5913 76.6317 48.5913 79.3269 48.5913 82.0221C48.5913 83.3095 48.1382 85.5642 48.6778 86.7783C49.3209 88.2253 48.9837 88.3291 49.8453 86.7783C50.495 85.6087 51.8291 84.2683 52.8719 83.4489C56.1477 80.8751 59.2355 77.9103 62.4276 75.2985C64.5834 73.5347 66.9524 72.3087 68.8269 70.4342" stroke="black" stroke-width="3" stroke-linecap="round"/>
<path d="M62.9897 63.8187C65.0271 64.0451 66.473 67.8272 68.0486 68.8776" stroke="black" stroke-width="3" stroke-linecap="round"/>
<path d="M1.89394 64.9862C2.00714 65.8918 4.32883 66.6804 5.0071 67.321C6.76915 68.9852 4.48788 65.8647 4.22881 65.3753C3.97966 64.9047 2.78866 63.6356 2.84518 63.1269C2.88853 62.7368 5.35972 64.9496 5.48272 65.0726C7.11709 66.707 8.87452 68.2792 10.3687 70.045C11.0851 70.8918 12.607 72.8651 11.5793 70.3693C11.3823 69.8908 7.97475 62.6001 10.1092 63.6674C12.0388 64.6321 13.6326 66.2054 15.4924 67.2994C16.4873 67.8847 17.7162 68.3674 18.6272 69.0506C19.0959 69.4021 18.5048 65.6752 18.4326 65.4185C18.42 65.3738 17.5328 62.9532 18.0651 63.1053C19.5418 63.5272 21.6391 66.5452 22.5835 67.5805C24.1014 69.2444 25.6637 70.8317 27.3397 72.3367C27.5647 72.5387 30.3342 75.4246 30.215 74.0662C30.0135 71.7681 28.95 69.1808 27.9667 67.1048C27.4471 66.0081 27.9566 66.0136 29.1341 66.2401C31.9835 66.788 33.861 69.5685 32.6364 64.8997C31.3105 59.8449 34.5841 63.2429 37.2197 64.1214C37.5731 64.2392 38.402 64.7409 39.4681 65.6131C40.8542 66.7472 41.7149 68.498 42.9271 69.8072C43.3197 70.2312 44.8218 72.3152 44.6783 70.7369C44.5034 68.8129 43.9216 66.9754 43.9216 65.0294C43.9216 63.2301 46.3225 66.3636 46.6456 66.7373C46.9359 67.0729 49.9302 70.766 50.1047 69.8937C50.5412 67.7111 50.1479 65.1201 50.1479 62.8891C50.1479 59.2708 52.6933 64.6873 52.7855 64.4241C53.409 62.6424 52.0214 59.436 51.791 57.5924C51.6678 56.6073 51.4834 55.1481 52.1801 56.6412C52.7265 57.812 50.5659 54.6234 49.7588 53.6145C48.3697 51.8781 48.8413 52.6691 49.4561 54.263C50.0392 55.7749 51.3123 57.8396 51.1424 59.5381C51.0119 60.8431 48.2364 58.7801 47.986 58.5436C46.6412 57.2735 47.5856 58.2152 48.2022 59.149C48.9706 60.3125 51.2636 63.767 50.2776 62.781C49.8896 62.393 48.2932 60.4162 48.6562 61.0515C49.695 62.8694 50.761 64.8695 51.4667 66.8454C51.7187 67.551 50.6515 66.0168 50.5587 66.4346C50.225 67.9361 51.0953 69.8783 51.3154 71.3638C51.7975 74.6179 52.4828 77.7766 52.4828 81.2654C52.4828 81.4409 51.8761 86.2135 51.1208 84.7028C50.3024 83.066 50.2497 80.3954 50.1479 78.563C50.1215 78.0881 50.1479 80.4655 50.1479 79.9899C50.1479 78.8907 49.7993 77.8411 49.7588 76.747C49.7473 76.4363 49.2575 81.0507 49.8453 77.655C50.0477 76.4853 50.3899 75.2264 51.618 74.8013C51.9571 74.6839 53.0934 75.1024 53.1746 74.931C53.9208 73.3558 53.2177 70.2889 53.2611 68.5749C53.3515 65.004 55.8839 67.9507 56.9147 69.4397C57.1549 69.7865 59.1264 72.94 58.8388 72.0772C58.3856 70.7175 57.1958 69.0211 57.1958 67.5588C57.1958 66.6588 60.3828 70.9714 60.6332 68.4668C60.9891 64.9077 60.6019 67.3666 62.3844 68.6398C62.7015 68.8663 62.6006 66.7957 62.6006 66.5644C62.6006 66.3424 62.4943 65.5605 62.7951 65.4402C62.9698 65.3703 63.2378 66.0079 63.1194 66.0671C62.4223 66.4157 55.6566 61.9131 55.9851 62.2621C56.1619 62.45 57.428 63.4564 56.6769 63.4296C54.1058 63.3377 51.6371 61.0036 49.9317 59.3219C49.4932 58.8895 46.754 55.3908 48.8508 57.16C52.1596 59.9519 55.0731 63.1372 57.8876 66.413C59.8293 68.6731 54.6577 63.0246 54.2556 62.4783C52.7225 60.3954 51.5199 57.823 55.0987 60.0354C58.3071 62.0187 61.2931 64.7045 63.6815 67.6237C65.0448 69.2899 59.911 65.7247 59.509 65.3537C57.9663 63.9296 54.2371 58.9423 55.0987 60.8569C56.6406 64.2833 57.3703 67.731 57.1093 71.5151C57.0423 72.486 55.5321 76.9047 53.888 74.6283C53.6136 74.2482 52.9402 71.2268 53.0665 71.2773C53.852 71.5915 53.668 75.3397 53.6286 75.9903C53.5043 78.0409 54.0761 75.1999 55.1203 74.3256C56.1337 73.4772 56.7634 73.3127 56.7634 74.7148C56.7634 76.8725 57.9621 74.7927 59.0118 74.023C63.7096 70.5779 60.6454 77.3873 57.9741 74.931C54.8763 72.0824 54.0228 67.2285 53.2611 63.2999C53.0131 62.0207 52.8036 59.8285 51.4018 59.2355C49.6658 58.501 49.5104 55.967 48.0076 54.6954C46.8651 53.7286 44.6999 52.5243 44.6999 50.7824C44.6999 47.2387 48.3835 57.1452 48.5697 60.6839C48.7643 64.3807 47.3613 66.9319 43.5325 66.9319C42.7095 66.9319 40.651 66.5462 39.9004 66.9751C39.5274 67.1883 41.3264 69.2647 41.5003 69.6559C41.7894 70.3065 34.6024 67.2127 34.5821 67.321C34.3952 68.3181 32.5822 68.1737 31.8581 68.0128C30.8847 67.7965 30.9406 67.3547 31.3825 67.7966C31.6112 68.0253 28.4916 67.1723 28.0531 66.9319C27.8014 66.7938 25.6318 65.3016 25.6318 65.7644C25.6318 66.3383 26.3792 66.5427 25.1562 66.5427C23.4894 66.5427 21.1741 65.8302 20.0973 64.4457C19.9529 64.2601 22.4305 65.357 22.8645 65.7428C24.2284 66.9552 22.3963 65.7134 21.9781 65.2023C19.0295 61.5984 39.8662 70.3392 35.4901 68.7479C32.5888 67.6929 28.0151 65.6915 25.3724 63.862C24.0405 62.9399 25.2696 63.0768 25.9993 63.6241C27.4492 64.7115 20.816 64.9824 20.3567 64.9862C17.2569 65.0116 14.4777 64.8958 11.4064 64.9862C10.4951 65.013 11.789 65.9806 10.8875 65.9806C9.94731 65.9806 8.23667 65.3138 8.12026 64.2079C7.97654 62.8425 11.3607 63.1227 10.7578 64.2079C9.67012 66.1657 4.66324 63.8187 8.79045 63.8187C11.0302 63.8187 14.1034 63.6402 16.0329 65.0294C17.6012 66.1586 16.5982 68.9907 15.1465 69.8072C14.1908 70.3448 14.7198 69.3831 15.514 69.8937C16.4012 70.4641 16.4549 71.3041 15.514 71.7746C13.7617 72.6507 15.7656 68.457 15.9896 68.1209C17.5811 65.7337 20.0041 64.7261 22.67 64.0349C23.8737 63.7228 23.8819 63.8244 24.0968 64.7916C24.2817 65.6235 26.4895 66.466 27.1884 66.9319" stroke="black" stroke-width="3" stroke-linecap="round"/>
<path d="M21.7403 15.1756C21.7403 6.12437 21.7403 33.278 21.7403 42.3293C21.7403 52.3681 22.9078 22.2742 22.9078 12.2354C22.9078 0.258367 22.9078 36.1894 22.9078 48.1665C22.9078 54.3351 22.9078 35.8291 22.9078 29.6604C22.9078 26.5257 22.9078 23.3909 22.9078 20.2561C22.9078 18.7464 23.2499 23.7893 23.2753 24.3854C23.4902 29.4352 23.6861 34.4619 23.6861 39.5188C23.6861 42.2895 23.9014 45.1006 23.2969 47.8205C22.7881 50.1103 21.1829 47.4746 19.6 47.4746C17.6907 47.4746 21.6397 47.8638 22.3241 47.8638C23.6784 47.8638 23.6861 47.6293 23.6861 46.2207C23.6861 42.2409 24.4153 38.3023 24.4644 34.3302C24.5163 30.1231 24.4644 25.912 24.4644 21.7046C24.4644 19.6852 23.6706 18.7057 23.2753 16.9267C23.0332 15.8372 22.5934 15.5647 24.0752 15.5647C26.5391 15.5647 28.9807 15.9539 31.469 15.9539C37.9259 15.9539 44.3828 15.9539 50.8397 15.9539C59.9486 15.9539 69.0575 15.9539 78.1664 15.9539C79.2532 15.9539 82.1448 15.929 82.7496 14.7865C84.1289 12.1813 77.7867 13.2299 76.6314 13.2299C71.5941 13.2299 66.5569 13.2299 61.5196 13.2299C56.6508 13.2299 51.4419 12.7138 46.6024 13.2515C41.265 13.8445 35.663 14.0082 30.3015 14.0082C28.3299 14.0082 26.4737 14.3973 24.4644 14.3973C22.2988 14.3973 21.4365 14.0913 22.216 16.4295C24.3625 22.8692 23.6614 29.2117 22.9294 35.8003C22.5137 39.5416 22.5186 43.2815 22.5186 47.0855" stroke="black" stroke-width="3" stroke-linecap="round"/>
<path d="M20.1837 68.8776C20.1837 83.9434 20.5729 98.9469 20.5729 114.018C20.5729 114.976 20.44 114.195 21.135 113.997C22.0155 113.745 22.6529 113.24 23.7293 113.24C33.2276 113.24 42.6225 114.197 52.0936 114.408C57.3368 114.524 62.4974 115.831 67.6594 116.548C69.0736 116.744 75.216 117.91 70.7726 117.91" stroke="black" stroke-width="3" stroke-linecap="round"/>
<path d="M22.9078 89.8914C22.9078 91.0661 22.9078 87.5422 22.9078 86.3675C22.9078 81.2104 23.1749 89.274 23.2969 90.4535C23.6247 93.6219 24.3001 96.6954 24.767 99.8363C24.9854 101.305 25.2426 101.954 25.2426 99.9227C25.2426 92.4503 26.1653 84.1817 24.3779 76.8335C24.0875 75.6399 24.0752 78.0759 24.0752 78.2171C24.0752 79.7881 24.0752 81.3591 24.0752 82.9301C24.0752 84.8123 24.0669 79.1582 23.859 77.2875C23.6359 75.2798 23.0514 73.3097 22.9078 71.299C22.8309 70.2222 22.4089 75.216 22.324 75.8606C22.1192 77.4173 22.1295 82.3903 22.1295 77.8279C22.1295 76.4195 21.7877 68.5949 22.3457 74.1743C23.4823 85.5406 24.3388 97.0197 24.4643 108.441C24.4845 110.276 24.8386 109.802 24.8535 108.224C24.8913 104.219 24.8535 100.21 24.8535 96.2042C24.8535 94.5828 24.8535 92.9614 24.8535 91.3399C24.8535 89.7185 24.8644 94.5828 24.8535 96.2042C24.8341 99.066 24.6941 101.962 24.3779 104.809C24.3355 105.19 24.1477 107.714 24.0536 106.019C23.8136 101.7 23.0132 88.7661 22.9078 93.0911C22.886 93.9817 22.9078 100.412 22.9078 97.1122C22.9078 94.2981 22.5186 96.7178 22.5186 98.0635" stroke="black" stroke-width="3" stroke-linecap="round"/>
<path d="M20.5729 110.127C24.1905 110.127 27.8081 110.127 31.4257 110.127C32.6364 110.127 36.2684 110.127 35.0577 110.127C32.9813 110.127 30.9579 110.001 28.8963 109.716C25.6511 109.269 15.9134 108.181 19.1893 108.181C24.745 108.181 30.4824 107.794 35.8793 109.349C47.0007 112.553 31.9013 110.826 31.9013 111.878C31.9013 112.267 45.0305 113.887 45.8457 114.018C49.0645 114.536 52.1816 115.15 55.2933 116.115C57.4621 116.789 51.0347 116.719 50.9478 116.721C49.8868 116.739 33.7048 117.204 33.5876 116.267C33.5193 115.72 45.8233 115.579 46.4727 115.575C49.1461 115.56 51.9077 115.504 54.5582 115.099C55.978 114.883 50.4006 114.376 49.975 114.321C44.5119 113.613 38.9093 112.767 33.4147 112.462C28.5202 112.19 43.2137 112.073 48.1157 112.073C52.0504 112.073 55.9851 112.073 59.9198 112.073C62.207 112.073 60.3472 112.073 59.2712 112.073C50.9478 112.073 42.6244 112.073 34.3011 112.073C34.1506 112.073 31.8881 111.83 33.1336 111.705C35.7366 111.445 38.4789 111.684 41.0895 111.684C46.2126 111.684 52.9365 110.877 57.8443 112.765C58.0945 112.861 53.786 113.238 53.3043 113.24C49.2257 113.262 45.1465 113.24 41.0679 113.24C38.9591 113.24 35.0183 112.903 39.4464 113.456C43.5696 113.972 47.7158 114.26 51.8558 114.602C54.7664 114.842 58.1832 114.633 61.0224 115.38C64.2214 116.222 54.37 115.766 51.0992 115.272C47.3631 114.708 58.6569 115.125 62.4276 114.883C63.423 114.819 64.4141 114.797 65.411 114.797C65.7137 114.797 66.5331 115.011 66.3191 114.797C65.7203 114.198 63.1584 114.402 62.3844 114.321C61.5612 114.235 59.0921 114.018 59.9198 114.018C62.4252 114.018 64.9013 113.887 67.4 113.716C68.7322 113.625 70.1212 113.773 71.4428 113.608C71.9462 113.545 68.6539 113.076 68.2432 113.024C66.897 112.853 64.7491 112.888 63.5086 112.267C62.4499 111.738 65.8705 112.073 67.0541 112.073C67.9261 112.073 70.542 112.073 69.67 112.073C67.9117 112.073 66.1533 112.073 64.3949 112.073C59.5047 112.073 63.7108 112.219 65.6489 113.067C66.8009 113.571 64.5147 114.256 64.2869 114.321C62.0888 114.946 59.8245 115.316 57.6281 115.964C55.0521 116.724 60.4985 116.353 58.1902 116.353C48.3513 116.353 38.3004 116.949 28.5287 115.575C27.9664 115.496 23.2321 114.829 24.0752 114.408" stroke="black" stroke-width="3" stroke-linecap="round"/>
<path d="M85.5601 2.3338C85.5601 29.905 85.9493 57.4505 85.9493 85.0271C85.9493 85.9785 85.171 85.2478 85.171 85.6108C85.171 87.3605 84.4314 89.0139 84.3927 90.7562C84.2898 95.3845 83.2253 100.03 83.2253 104.679C83.2253 112.463 82.8361 135.812 82.8361 128.028" stroke="black" stroke-width="3" stroke-linecap="round"/>
<path d="M82.8361 130.752C92.3027 122.232 104.284 115.747 115.524 110.127" stroke="black" stroke-width="3" stroke-linecap="round"/>
<path d="M115.913 110.127C115.913 97.0905 116.571 83.8579 115.308 70.8666C114.513 62.6882 113.968 54.3072 113.968 46.091C113.968 36.175 113.968 26.259 113.968 16.343" stroke="black" stroke-width="3" stroke-linecap="round"/>
<path d="M84.0036 1.55551C87.1771 1.55551 89.4314 2.34234 92.2621 3.89038C95.8307 5.842 100.113 7.01032 103.439 9.33841C106.874 11.743 110.952 13.3277 113.968 16.343" stroke="black" stroke-width="3" stroke-linecap="round"/>
<path d="M84.0036 121.801C85.2759 122.579 86.1294 123.955 87.0951 125.066C87.8796 125.968 88.5096 126.946 88.0463 125.196C87.4389 122.901 86.6017 120.669 85.9493 118.386C85.8506 118.04 85.0894 115.858 85.8196 117.002C86.9598 118.788 88.5381 121.507 90.3596 122.666C90.7594 122.921 90.3301 121.696 90.1434 121.261C89.2674 119.217 88.2691 117.224 87.3329 115.207C86.5751 113.575 83.965 109.566 84.1765 107.662C84.2638 106.877 85.1895 108.877 85.6466 109.522C86.6083 110.877 87.5683 112.229 88.5868 113.543C89.4741 114.688 91.1926 116.886 90.165 113.932C89.426 111.807 88.5388 109.276 87.3761 107.338C85.4881 104.191 94.8893 119.941 93.1701 116.699C91.2212 113.024 89.9948 108.892 88.5436 105.003C88.1217 103.873 86.7631 99.1821 88.7382 102.474C90.6716 105.696 92.3224 109.038 94.0781 112.354C94.1856 112.557 94.8946 114.058 94.6402 112.786C94.1395 110.283 93.3878 107.864 92.5431 105.457C91.7648 103.239 90.9856 101.025 90.2299 98.7985C89.7976 97.5252 87.8554 94.2766 89.0192 94.9503C90.2691 95.674 91.3728 98.6676 92.0891 99.8363C93.2177 101.678 94.3661 103.506 95.5914 105.284C97.8533 108.568 96.567 106.12 95.8509 103.771C94.8537 100.5 92.6039 95.5309 93.3863 92.0101C93.4877 91.5536 96.935 97.3527 97.2345 97.977C98.0849 99.7497 98.9332 101.524 99.872 103.252C100.167 103.796 100.737 105.514 100.737 104.895C100.737 103.054 98.5834 100.49 98.0993 98.6256C97.5807 96.6281 97.2492 94.5301 99.1802 97.069C100.833 99.2425 102.614 101.447 103.98 103.814C105.197 105.924 104.969 103.456 104.801 102.258C104.553 100.485 103.351 97.3541 103.936 95.5989C104.092 95.1335 107.364 100.927 107.655 101.479C107.865 101.879 109.734 106.341 109.428 104.636C108.811 101.202 107.856 97.7785 107.395 94.3234C107.247 93.2093 108.485 97.8305 108.693 98.604C109.223 100.583 109.687 102.257 109.687 99.058C109.687 98.2335 109.314 91.7689 110.163 93.9558C110.913 95.8902 111.964 101.836 112.325 99.793C112.552 98.5062 111.962 96.5529 111.741 95.3827C110.897 90.9069 109.918 86.4544 109.19 81.9572C108.67 78.745 107.972 69.0011 108.152 72.2502C108.205 73.2044 108.897 78.2366 108.909 77.3091C108.992 70.9299 108.779 64.524 108.433 58.1545C108.35 56.6108 108.19 55.073 108.131 53.528C108.093 52.5482 108.158 55.4895 108.217 56.4682C108.476 60.7562 108.868 65.0747 109.601 69.31C110.152 72.4983 109.705 62.8385 109.666 59.603C109.592 53.5435 108.381 47.115 108.93 41.0754C109.187 38.2543 110.672 46.4664 111.546 49.1609C112.442 51.9229 114.256 60.3653 114.184 57.4627C114.062 52.6057 112.378 47.5907 111.698 42.7833C111.339 40.25 110.594 32.6088 110.876 35.1517C111.146 37.5833 111.832 40.2033 112.606 42.5238C112.75 42.9559 113.108 43.7877 113.168 42.74C113.311 40.2401 113.044 37.6725 112.757 35.1949C112.237 30.7033 111.492 26.1554 110.465 21.7478C110.039 19.9163 110.681 21.8863 111.071 22.4829C112.089 24.0395 111.409 18.3247 111.654 19.6724C112.173 22.5266 112.022 18.0663 112.022 18.7644C112.022 22.4407 107.94 17.3503 106.747 16.4295C105.736 15.6499 106.544 17.0891 106.769 17.4888C107.747 19.2275 105.23 17.3317 104.65 16.9051C103.891 16.3468 102.615 14.6828 101.602 14.5703C101.292 14.5359 102.077 15.3057 101.818 15.4783C99.6519 16.9221 93.0882 10.502 94.5321 12.6678C94.59 12.7546 95.7018 13.6219 95.3969 13.5542C94.4097 13.3348 92.5666 12.0312 92.0675 11.1328C91.7767 10.6093 93.2427 11.1181 93.2566 11.1112C93.8163 10.8313 92.5242 10.0909 92.0891 9.64108C91.2112 8.73337 90.3494 7.82566 89.6245 6.78735C87.395 3.59372 92.7988 7.68164 93.8403 7.88993C95.1101 8.14389 92.0968 5.97348 91.1811 5.05782C89.2356 3.11227 92.1606 5.77288 92.6512 6.22525C94.065 7.52884 95.5458 9.0444 96.5859 10.6788C97.1645 11.588 93.2551 9.87816 92.9971 9.74918C89.1092 7.8052 92.5905 11.0854 91.3108 12.3651C90.9056 12.7703 89.8256 12.0888 89.4948 12.6678C89.0347 13.4729 90.0143 14.9725 90.2083 15.7161C90.7734 17.8824 87.3201 16.9674 89.884 17.2078C92.6859 17.4705 97.66 17.1653 100.088 18.7644C101.063 19.4065 92.5246 21.8782 91.5703 22.0937C84.8697 23.6068 92.6581 22.0569 92.3269 22.7855C91.6058 24.3721 91.2711 23.8412 89.0624 26.4608C87.8994 27.8402 84.7218 32.0753 85.3223 30.3739C86.0128 28.4176 88.1127 26.3896 89.3435 24.8177C91.5073 22.0543 93.7222 19.3324 95.9806 16.6457C97.0403 15.385 98.0566 14.0076 99.2235 12.8407C99.9202 12.1439 98.1291 14.4801 97.5588 15.2837C96.2816 17.0834 95.0551 18.9186 93.797 20.7317C93.6188 20.9885 91.8096 23.4114 93.5376 22.1586C94.8011 21.2426 99.0281 16.0676 100.694 16.4727C101.369 16.6371 90.4509 34.2906 89.4083 35.93C88.2254 37.7901 87.1572 39.7074 86.0574 41.6158C85.6448 42.3317 84.3779 43.9871 86.0141 42.3509C90.5718 37.7933 94.8309 32.8674 99.8072 28.7524C100.196 28.4309 101.416 27.7289 101.212 28.1903C99.6378 31.754 97.0664 35.0822 94.9861 38.3513C92.7188 41.9143 90.3648 45.4398 88.2842 49.1177C86.7421 51.8436 87.1385 51.7577 88.976 49.5068C90.9032 47.1459 96.2958 40.0434 95.332 42.9346C93.8505 47.379 91.0761 51.7998 88.7598 55.8629C86.2239 60.3111 89.8252 55.189 90.8352 53.8955C92.2838 52.0403 93.7628 50.2066 95.2239 48.361C95.2261 48.3582 97.2608 45.7695 96.867 47.3449C95.803 51.6009 92.8429 55.8223 90.792 59.6678C90.5015 60.2124 88.8775 62.3753 89.0192 63.0837C89.0351 63.1629 91.8362 60.188 91.8729 60.1435C93.1926 58.5436 94.4697 56.911 95.8292 55.344C96.7339 54.3014 98.1117 52.1941 99.4396 51.6039C100.933 50.9401 98.7237 54.8235 98.0128 56.2953C96.101 60.253 93.875 64.0548 91.7216 67.8831C91.4332 68.3958 86.388 76.9373 89.43 74.9094C91.3904 73.6024 93.1933 71.9967 95.0077 70.499C95.7525 69.8843 97.7284 67.6371 98.8775 67.775C101.244 68.0591 96.2632 81.1603 95.7644 82.368C95.6011 82.7632 91.4552 90.7177 93.2998 90.4103C95.5162 90.0409 97.6307 88.1419 99.6775 87.2323C100.789 86.7384 100.375 87.6421 100.002 88.3132C98.8613 90.366 97.4905 92.2947 96.3049 94.3234C95.7937 95.198 91.8206 100.921 94.5537 101.306C97.0102 101.653 104.073 98.5062 101.688 99.1877C100.805 99.4401 95.4986 103.253 95.9373 103.425C97.7813 104.149 100.897 103.483 102.812 103.209C102.969 103.186 98.7508 106.193 97.8831 106.776C97.2048 107.232 91.9519 110.638 95.5914 109.284C97.8403 108.447 100.377 106.462 102.726 106.106C103.75 105.951 101.646 107.888 100.953 108.657C99.5302 110.236 98.1144 111.769 96.9318 113.543C96.4321 114.292 94.47 116.783 96.3049 114.948C96.8043 114.449 99.418 112.144 99.3099 112.375C98.5087 114.092 96.8465 115.851 96.3913 117.672C95.9854 119.296 98.1184 114.803 99.0505 113.413C100.536 111.198 102.191 109.101 103.98 107.122C104.519 106.525 107.367 103.043 106.487 105.717C106.05 107.046 105.579 108.369 105.017 109.651C104.715 110.343 103.369 111.875 104.109 111.727C105.724 111.404 108.161 105.835 109.082 104.571C109.321 104.243 113.108 99.4919 112.519 101.717C111.891 104.091 110.615 106.268 110.163 108.7C109.809 110.603 112.763 105.649 113.233 103.771C113.353 103.289 112.043 104.991 111.936 104.506C111.517 102.622 112.986 99.1419 111.59 97.6311C109.408 95.2712 103.754 98.8876 101.796 99.9444C99.3935 101.241 96.4855 102.588 98.7262 98.7121C100.41 95.7988 103.61 92.8611 104.671 89.6753C105.221 88.027 100.528 90.3805 100.045 90.5833C95.4594 92.5063 102.438 81.2817 101.515 81.3303C100.397 81.3891 95.4488 85.9797 98.0128 83.1895C99.4276 81.6498 101.344 80.1148 102.423 78.3036C102.935 77.4448 100.523 78.9912 99.6991 79.5575C98.0049 80.7223 96.3189 81.8925 94.5969 83.0165C93.4164 83.7872 91.2838 84.6894 90.4677 85.9135C89.7049 87.0577 93.2371 85.6112 94.5105 85.092C97.7931 83.7534 101.031 82.2731 104.261 80.8114C105.598 80.2063 106.929 79.4757 108.304 78.9521C109.634 78.4452 105.896 80.4746 104.671 81.2005C101.686 82.9698 98.7235 84.7778 95.7211 86.5189C94.4046 87.2823 91.2187 90.1245 91.7 88.6808C91.9151 88.0353 94.6304 86.4487 94.9212 86.2378C98.0718 83.9528 101.202 81.6483 104.304 79.298C106.018 77.9992 108.391 76.7503 109.795 75.0823C111.413 73.1611 105.461 77.6306 103.396 79.0602C100.335 81.1796 97.3109 83.3507 94.2727 85.5028C93.8849 85.7775 92.098 87.2377 93.7538 85.7838C97.1359 82.8142 101.347 79.2789 103.482 75.2337C104.688 72.9501 97.6662 75.5172 96.9318 75.7957C94.5144 76.7127 91.9507 78.2765 94.7699 74.8445C95.6093 73.8227 102.091 66.481 99.4829 65.2888C96.843 64.082 92.5654 68.2503 90.4028 69.3316C90.0899 69.4881 90.7375 68.7111 90.9649 68.4452C92.8576 66.2326 94.6147 63.9115 96.4562 61.6568C98.329 59.3638 100.325 57.1612 102.034 54.7387C102.315 54.3398 103.883 52.2615 102.25 53.6577C99.5154 55.9966 96.1167 58.3685 93.9916 61.3109C91.6254 64.5872 101.024 57.3096 104.369 55.0413C104.592 54.8897 105.177 54.3471 104.931 54.4576C102.87 55.3815 100.982 56.7264 99.0721 57.9167C97.783 58.7203 90.8898 63.1731 96.2832 60.338C98.3927 59.2292 100.395 57.9322 102.423 56.6844C103.219 56.1948 106.849 54.6791 107.136 53.5712C107.255 53.1123 102.513 54.3486 102.51 54.3495C100.042 55.1282 97.636 56.1299 95.2455 57.1168C94.6468 57.364 93.0862 58.3579 93.4295 57.8086C94.7629 55.6751 99.0478 53.4464 100.888 51.9066C100.999 51.8137 109.295 45.5833 104.715 46.1559C102.497 46.433 100.398 47.3837 98.3371 48.1881C96.9938 48.7123 97.1306 48.3467 97.9912 47.3233C99.4634 45.5726 101.095 43.9513 102.639 42.2644C104.158 40.6049 107.635 37.3606 103.028 38.0054C100.991 38.2907 97.0102 40.1352 100.607 37.1839C100.701 37.1065 104.053 34.476 103.807 34.3302C102.989 33.847 100.69 34.8526 99.9585 35.1085C99.4941 35.271 94.6093 37.4897 96.24 36.4705C97.8855 35.442 99.5011 34.364 101.104 33.2708C102.215 32.5139 104.488 31.3901 105.125 30.1144C105.488 29.3886 103.496 30.2701 102.726 30.5252C100.257 31.3428 97.8415 32.3325 95.4617 33.3789C93.4641 34.2573 89.9769 36.1227 93.9051 33.4654C95.4716 32.4057 97.1231 31.4755 98.7046 30.4387C100.049 29.5572 100.082 29.2683 98.3587 29.8334C96.3128 30.5042 94.3341 31.3842 92.3486 32.2115C91.5308 32.5522 89.2309 33.8046 89.884 33.206C92.1391 31.1388 95.6651 29.7767 98.3154 28.2552C98.6016 28.0909 101.061 26.9353 100.931 26.3527C100.832 25.9071 97.9534 26.8276 97.7966 26.8716C96.9397 27.1121 93.4442 28.2105 93.5592 28.1471C95.4031 27.1311 97.4537 26.4752 99.3964 25.6825C100.939 25.0533 104.17 24.2466 105.234 22.8288C106.034 21.761 102.545 22.7726 101.234 23.0233C99.1214 23.4275 96.6933 23.7717 94.705 24.6664C92.0829 25.8464 100.422 23.9134 103.201 23.1747C104.748 22.7636 106.367 22.5058 107.893 22.0289C108.665 21.7875 106.308 22.3689 105.536 22.6126C104.855 22.8278 98.994 25.2946 99.2883 25.4663C100.352 26.0869 101.906 25.8193 103.072 26.3743C103.964 26.7992 103.89 28.3513 104.023 29.1416C104.651 32.8731 105.11 36.6076 105.579 40.3619C105.638 40.8273 106.182 44.0131 105.601 43.4318C104.512 42.3424 106.351 46.4258 106.574 47.9503C106.864 49.9313 108.201 54.0088 106.877 55.8629C106.59 56.2646 106.228 56.3469 105.882 56.0358C105.25 55.4666 105.796 57.736 105.796 58.5869C105.796 59.64 106.066 72.6287 104.671 72.1637C102.045 71.2881 101.204 61.6458 102.142 64.2511C103.315 67.5094 104.426 71.0069 105.169 74.3905C105.846 77.4751 103.082 72.8957 102.683 72.2934C101.458 70.4496 100.1 66.4463 98.0993 65.2456C97.7436 65.0322 98.1647 66.0773 98.2722 66.4779C98.7026 68.0822 99.391 69.5964 99.9153 71.1692C100.139 71.8417 100.322 73.8517 100.931 74.3256C101.967 75.1315 101.839 71.8574 102.164 70.5855C102.673 68.5884 107.927 51.7297 109.968 59.1274C110.144 59.7662 111.604 66.7666 111.806 66.2185C111.901 65.9594 112.251 62.7693 112.498 62.8242C113.209 62.9823 113.421 70.5153 113.492 71.3422C113.527 71.7463 114.231 75.799 113.752 74.0878C113.677 73.8227 113.284 72.3792 113.211 73.5906C113.024 76.6811 113.189 79.8382 113.189 82.9301C113.189 83.4055 113.79 95.1488 111.719 92.356C111.426 91.9604 109.983 88.1187 109.601 88.1187C109.13 88.1187 108.831 89.3806 108.131 89.4807C107.547 89.5641 107.005 88.3032 106.552 88.6808C106.271 88.9149 104.893 93.0976 104.715 92.0101C104.14 88.5042 104.529 84.4145 104.931 80.8979C104.948 80.7468 104.996 80.2934 104.974 80.4439C104.606 83.0216 103.938 85.5378 103.201 88.0322C102.142 91.6185 100.95 95.1764 99.6126 98.6688C99.4037 99.2142 97.9309 103.947 97.4939 100.809C96.6695 94.8882 96.7696 87.8961 97.7101 81.9788C97.7832 81.5189 98.1314 80.2263 98.229 80.6817C98.409 81.5217 98.2568 84.4665 98.229 84.919C98.21 85.2269 97.8381 92.2695 97.0183 92.2263C96.6439 92.2066 95.9106 82.0124 95.6779 80.8979C95.2014 78.6158 93.87 79.011 93.0404 80.8546C92.9606 81.0319 91.9095 83.8135 91.8081 82.9517C91.4452 79.8675 91.7865 76.5669 91.7865 73.4609C91.7865 71.7 91.5546 71.1982 90.5325 73.0285C89.8131 74.3167 89.2181 75.6799 88.6733 77.0497C88.3952 77.7488 87.9602 79.9179 87.895 79.1683C87.8577 78.739 87.9667 75.1715 87.6788 76.4876C87.1013 79.1277 87.047 81.8854 86.1871 84.465C86.0853 84.7705 87.2402 79.7178 87.4626 81.3303C87.9701 85.0095 87.5488 89.2765 86.7492 92.8749C86.705 93.0739 85.9246 96.2228 86.5114 95.1665C87.5853 93.2335 89.1739 91.4221 90.5325 89.6753C91.7779 88.0741 90.8438 91.4491 90.7704 91.7939C89.9301 95.7366 88.6956 99.674 87.16 103.403C86.0897 106.003 87.4619 100.425 87.5923 100.009C88.1391 98.2673 88.8882 96.6389 89.7543 95.0368C90.7138 93.2616 89.6442 95.3473 89.4516 95.7286C89.1537 96.3183 85.7689 101.596 86.2087 102.085C86.2573 102.139 90.462 100.158 91.0082 100.096C92.894 99.8802 93.763 101.212 94.4889 102.755C95.8778 105.706 97.2799 106.805 100.802 106.949C101.236 106.967 104.391 106.37 103.591 106.884C101.184 108.431 98.6984 109.906 96.6292 111.9C94.2356 114.206 97.0926 113.438 96.5859 114.235C96.1866 114.862 91.7532 118.299 94.1429 118.299C94.9133 118.299 96.5821 118.871 96.9318 118.299C97.6106 117.188 98.9937 116.54 99.9585 115.726C101.634 114.313 103.031 112.502 104.585 110.949C106.119 109.414 107.754 108.118 109.687 107.1C112.055 105.854 111.847 98.1922 111.936 96.2475C112.209 90.2225 111.488 84.0882 110.833 78.109C109.793 68.6193 109.071 59.0691 107.741 49.6149C107.386 47.0874 107.421 42.1746 105.882 39.9512C105.867 39.9286 105.846 41.2036 105.407 40.6862C104.361 39.4566 104.628 36.9149 104.628 35.4328C104.628 33.1533 105.444 32.0071 107.871 32.4925C108.15 32.5484 109.615 33.1804 109.449 32.8168C109.004 31.8378 107.785 30.0554 107.785 29.0119C107.785 28.5792 108.174 25.8338 106.877 26.1581C102.907 27.1506 98.1586 26.3363 96.7805 22.2018C95.664 18.8524 89.1713 19.2411 87.1167 16.4295C86.1788 15.146 86.2533 12.8043 85.9493 11.2841" stroke="black" stroke-width="3" stroke-linecap="round"/>
</svg>
