<svg width="72" height="67" viewBox="0 0 72 67" fill="none" xmlns="http://www.w3.org/2000/svg">
<path d="M13.0468 40.0692C13.0468 44.8413 13.0132 49.5887 13.7132 54.3141C14.0896 56.8543 13.4875 59.8864 14.1922 62.3529C14.6609 63.9931 15.8303 64.0606 17.3578 64.0606C19.3608 64.0606 21.1735 64.4355 23.1682 64.4355C25.0729 64.4355 32.165 65.4622 32.165 63.1026C32.165 60.9229 32.165 58.7431 32.165 56.5633C32.165 55.8136 32.165 55.0638 32.165 54.3141C32.165 53.2436 32.8082 53.6038 33.2896 53.0021C33.8694 52.2774 37.0067 52.301 37.9755 52.0857C39.3434 51.7817 41.2593 51.987 42.6613 52.0649C44.0744 52.1434 43.411 60.4939 43.411 61.978C43.411 63.7709 43.5318 64.4355 45.4728 64.4355C47.0656 64.4355 48.6651 64.0606 50.1586 64.0606C51.28 64.0606 53.8689 63.6655 54.8445 63.1235C55.9658 62.5005 58.2542 62.936 59.5303 62.936" stroke="black" stroke-width="3" stroke-linecap="round"/>
<path d="M59.5303 63.3109C59.5303 59.2846 59.5303 55.2582 59.5303 51.2319C59.5303 47.0084 58.7806 42.6726 58.7806 38.5697" stroke="black" stroke-width="3" stroke-linecap="round"/>
<path d="M12.6719 40.0692C12.6719 38.452 12.6398 37.4804 13.4217 36.1122C14.2123 34.7286 16.0379 34.0642 16.7955 32.7384C17.4902 31.5227 18.8794 30.6951 19.607 29.3855C20.3496 28.0488 21.1861 26.7234 22.2519 25.6576C24.6542 23.2553 27.0012 20.4707 29.1661 17.7646C30.3945 16.2291 33.8281 13.0787 35.7263 13.0787C41.2518 13.0787 45.7743 19.3573 49.3256 22.9086C51.4723 25.0552 53.2108 27.7224 54.7403 30.3226C56.2922 32.9607 58.7806 34.4949 58.7806 37.82" stroke="black" stroke-width="3" stroke-linecap="round"/>
<path d="M5.92435 34.0713C5.92435 31.24 9.12959 28.6417 10.4228 26.1991C11.5043 24.1562 13.2434 21.1968 14.9212 19.6389C16.5203 18.154 17.6613 15.5084 18.8364 13.6619C19.7718 12.192 21.1528 10.9707 22.4185 9.70492C23.7367 8.38674 24.9008 6.78473 26.542 5.87295C27.9488 5.09144 28.7741 3.35681 30.4781 2.97814C33.3929 2.33041 36.4657 3.51732 39.1001 4.10274C41.4905 4.63396 44.4462 7.19966 46.1184 8.87188C48.6402 11.3937 52.4451 11.9914 54.8445 14.3908C56.1463 15.6926 57.61 16.8231 58.9264 18.1394C60.0808 19.2939 60.6533 20.8831 61.7795 22.0755C64.1061 24.5389 65.2544 27.6627 67.0277 30.3226" stroke="black" stroke-width="3" stroke-linecap="round"/>
<path d="M56.1565 14.2033C56.1565 13.0712 55.2347 2.26182 56.1565 2.20759C59.5619 2.00728 63.0343 2.20759 66.4445 2.20759C67.3262 2.20759 68.2078 2.20759 69.0894 2.20759C70.1463 2.20759 69.6517 4.80687 69.6517 5.49809C69.6517 10.6803 68.5271 15.7234 68.5271 20.9509C68.5271 24.3247 68.5271 27.6985 68.5271 31.0723" stroke="black" stroke-width="3" stroke-linecap="round"/>
<path d="M45.6602 8.95519C47.0898 10.226 48.8355 11.3624 50.3461 12.5373C51.852 13.7085 53.0215 15.2136 54.657 16.2651C57.87 18.3305 59.8399 22.118 62.9041 24.0332C64.0003 24.7183 64.6544 26.4747 65.7156 27.3237C66.7821 28.1769 66.6764 30.3415 67.59 31.0723C67.8717 31.2977 68.3811 32.455 67.59 31.8221C67.0157 31.3626 66.7743 30.7015 66.1113 30.3226C65.2043 29.8043 63.9732 28.004 63.279 27.1362C61.4044 24.793 59.39 22.0592 57.2811 19.8263C56.24 18.724 55.325 17.6177 54.0947 16.6608C53.1377 15.9164 51.4923 14.6421 50.9084 13.6202C49.6501 11.4183 46.7115 10.2147 44.9938 8.49702C43.1746 6.67783 49.8269 10.3389 52.033 11.6626C55.2812 13.6115 45.4103 7.98332 42.099 6.14369C41.3147 5.70799 38.3736 5.20652 40.4121 5.20652C41.8673 5.20652 43.6138 6.14095 44.9105 6.7893C47.5923 8.1302 45.297 6.87906 43.9733 6.14369C42.33 5.23074 40.3094 4.52721 38.5378 3.89449C35.2788 2.73059 31.931 1.67115 28.6038 3.51962C27.8252 3.95217 26.9439 4.13126 26.1672 4.54009C25.9575 4.65045 24.0846 5.89297 24.0846 5.87295C24.0846 4.77249 30.4343 5.20652 30.9571 5.20652C33.1679 5.20652 35.5083 5.58139 37.6006 5.58139C39.4987 5.58139 35.7006 5.95626 34.9765 5.95626C32.8614 5.95626 30.4707 7.20349 28.4164 7.74729C27.2328 8.06059 25.9794 8.64996 24.9592 9.33006C24.3645 9.72654 22.8956 11.1232 22.1269 11.0378C20.8451 10.8954 25.6163 7.83989 25.7923 7.74729C26.4726 7.38922 27.7744 7.06958 28.333 6.62269C29.184 5.94196 28.7414 6.98359 28.0415 7.37242C24.3228 9.43836 21.4833 14.0139 18.5032 16.994C17.0495 18.4477 15.1197 20.6968 14.0881 22.4504C13.2789 23.8261 11.3632 24.6562 10.506 26.1991C9.31342 28.3458 7.6541 30.1453 6.11177 32.0303C5.55911 32.7058 3.67513 35.9547 3.67513 35.3833C3.67513 34.0334 5.31094 32.3162 6.13259 31.2598C7.55988 29.4247 8.87332 27.6158 10.4227 25.845C13.9286 21.8383 17.9367 18.6851 21.6687 14.9531C22.743 13.8789 24.4215 12.7891 25.0426 11.3918C25.2757 10.8673 25.838 10.0563 26.3338 9.72575C27.0281 9.26287 25.3835 11.1 24.8551 11.7459C19.9742 17.7115 14.4511 23.7282 8.5484 28.7398C6.32089 30.6311 4.50311 32.7536 2.55053 34.821C0.461917 37.0325 3.39272 33.0659 4.05 32.6551C5.18805 31.9438 6.1209 30.6487 7.23637 29.7811C7.89468 29.2691 11.3955 26.4374 10.2353 28.9898C9.63816 30.3035 8.72753 31.368 8.09023 32.5718C7.31747 34.0315 5.86219 35.2412 6.75737 32.6551C8.06698 28.8718 11.5413 26.7916 13.6091 23.575C14.3487 22.4245 15.6346 21.5573 16.3998 20.4095C17.1449 19.2918 15.5876 22.9919 14.9211 24.1581C14.3997 25.0707 13.5963 26.1135 12.6719 26.6572C11.9969 27.0543 9.20768 30.3369 9.96457 28.8231C11.3955 25.9612 13.7474 23.8006 16.2332 21.8673C18.5858 20.0375 20.7697 17.6674 22.1269 14.9531C23.6869 11.8332 27.0699 9.94979 28.7912 7.08086" stroke="black" stroke-width="3" stroke-linecap="round"/>
<path d="M40.6788 8.90699C40.7061 8.68876 42.6903 9.90835 42.9079 10.0534C43.6996 10.5812 44.545 11.0861 45.2572 11.7093C46.7734 13.0359 48.3514 14.3189 49.8499 15.6509C50.707 16.4127 51.7617 16.9674 52.6521 17.696C53.6801 18.537 54.7291 19.4553 55.8436 20.1798C57.1026 20.9981 58.2244 22.2492 59.2828 23.3076C60.6345 24.6593 61.871 26.1081 63.0333 27.6242C64.4786 29.5094 65.9871 31.5395 66.6352 33.8727C66.6709 34.0012 66.9149 34.5165 66.5928 34.3115C66.1313 34.0178 65.6572 33.7474 65.2624 33.3632C64.5645 32.6842 64.0505 31.9339 63.6065 31.0705C62.9229 29.7412 61.8844 28.692 61.059 27.4756C59.7436 25.5371 58.2596 23.5581 56.6008 21.8994C55.0546 20.3532 53.6201 18.6549 51.9516 17.2431C51.2654 16.6625 50.6944 15.7808 49.9136 15.3395C49.486 15.0979 49.2149 14.7062 48.8309 14.4125C48.6888 14.3038 48.2685 13.8836 48.6469 14.1931C51.2501 16.323 53.3544 19.1141 55.6384 21.5809C57.3253 23.4027 59.0793 25.2134 60.9316 26.86C63.596 29.2283 65.5038 32.3272 67.7816 35.0191C68.2614 35.5861 68.5742 36.2243 68.5742 35.2456C68.5742 34.5866 68.5995 33.9226 68.5742 33.2642C68.5418 32.4213 68.1921 31.5387 68.1921 30.6883" stroke="black" stroke-width="3" stroke-linecap="round"/>
<path d="M37.367 9.03437C37.5039 8.34973 38.6706 7.80029 39.2776 7.66153C39.947 7.50852 40.76 7.63323 41.443 7.63323C42.5533 7.63323 41.1637 7.92481 40.7778 7.98705C39.7759 8.14865 38.8452 8.48222 37.8765 8.75131C36.7658 9.05983 38.2977 9.14868 36.9566 8.75131C35.9406 8.45029 34.5997 8.65224 33.5457 8.65224C31.6303 8.65224 29.9028 9.38638 28.295 10.3364C27.5409 10.782 26.8963 11.337 26.1862 11.8366C25.8896 12.0453 25.0324 12.9294 25.8748 12.3462C26.3966 11.9849 26.7998 11.4898 27.3043 11.1007C27.5252 10.9303 27.7738 10.7869 27.9694 10.5912C28.0626 10.498 27.7379 10.6416 27.6864 10.6903C25.8296 12.4439 23.9324 14.2908 22.2658 16.2241C20.221 18.5961 18.2273 21.1284 16.4914 23.7322C15.7846 24.7924 16.3606 24.0759 16.7391 23.4845C17.6571 22.0501 18.9126 20.8369 19.782 19.3589C20.101 18.8166 20.4783 18.4079 20.9213 17.9649C20.9627 17.9234 21.3277 17.4554 21.3671 17.4554C21.5122 17.4554 21.1573 17.6565 21.0628 17.7667C20.9067 17.9489 20.7574 18.1384 20.617 18.3328C20.2114 18.8945 19.6999 19.3961 19.2654 19.9392C17.6644 21.9404 15.9951 23.8478 14.4463 25.8976C13.6058 27.0101 12.7382 28.3701 11.5096 29.0961C10.5076 29.6882 9.71372 30.5736 8.89837 31.3889C8.40337 31.8839 7.8084 32.3627 7.37693 32.9174C6.9454 33.4723 6.46314 33.9075 6.0324 34.4459C5.76883 34.7754 6.46306 34.2898 6.54191 34.1912C6.67457 34.0254 6.5898 34.3489 6.47114 34.4459C6.21423 34.6562 5.91314 34.8147 5.65027 35.0191C4.93589 35.5748 4.23043 36.2495 3.4778 36.7387C3.02505 37.033 2.43591 37.6616 1.95636 37.8214" stroke="black" stroke-width="3" stroke-linecap="round"/>
<path d="M15.6614 59.4212C16.0229 59.5015 16.3568 60.0126 16.6045 60.2526C17.7193 61.3326 18.788 62.4192 19.9801 63.4172C20.5209 63.87 21.1018 64.5716 21.7672 64.8568C21.9573 64.9383 21.6706 64.453 21.5934 64.2611C21.188 63.2531 20.7701 62.2516 20.3028 61.2703C19.2105 58.9765 17.9441 56.7825 16.9148 54.4571C16.8076 54.215 15.8997 52.7531 16.1205 52.4218C16.2067 52.2926 16.3325 52.6491 16.4308 52.7693C16.7679 53.1813 17.124 53.5829 17.4857 53.9731C18.4981 55.0654 19.6292 56.0723 20.7619 57.0384C21.0771 57.3072 21.9527 58.1736 21.7175 57.8326C20.6051 56.2196 19.3372 54.7745 18.342 53.0672C17.0471 50.8459 16.0162 48.4922 15.0409 46.1175C14.9875 45.9874 14.2612 43.8525 14.47 43.9333C16.1547 44.5854 17.8232 47.0764 19.0618 48.3017C20.9503 50.1699 22.9399 51.8831 24.9938 53.5636C25.0668 53.6233 26.411 54.9193 26.5575 54.8542C26.9598 54.6754 26.2034 51.8603 26.1604 51.6276C25.253 46.7173 24.8201 41.6999 24.8201 36.7106C24.8201 35.6821 24.9206 36.3015 25.3413 36.9588C26.6495 39.0028 28.0943 40.9574 29.4739 42.9529C30.3145 44.1688 31.1012 45.573 32.1545 46.6263C32.5165 46.9883 31.4086 43.4416 31.3478 43.2507C30.0692 39.2365 28.9619 35.2211 28.1956 31.0764C27.9665 29.8367 27.2781 28.0499 27.5131 26.7576C27.5455 26.5795 28.8564 28.2595 28.8658 28.2717C30.9887 31.0115 33.2505 33.6305 35.4432 36.3134C36.5539 37.6726 37.5993 39.6584 39.0173 40.7315C39.5752 41.1537 38.4161 37.4699 38.3968 37.4055C37.4116 34.1259 36.5989 30.7825 36.0388 27.403C35.869 26.3778 35.192 23.6544 36.3615 26.0378C37.6908 28.747 39.1639 31.3672 40.581 34.03C41.0105 34.8372 41.4275 35.6505 41.8716 36.45C42.0284 36.7321 42.345 37.6034 42.368 37.2814C42.4691 35.8663 41.5691 33.8531 41.2139 32.5283C40.3399 29.2688 39.4927 25.9853 39.0297 22.6375C38.853 21.3602 38.6409 20.0895 38.4588 18.8151C38.4204 18.5459 39.0423 20.1387 39.0793 20.2175C40.9657 24.2335 43.6374 27.8863 45.7808 31.7713C46.1922 32.517 46.2212 32.1779 45.967 31.4859C45.1048 29.1389 44.2177 26.8506 43.4973 24.4493C43.1867 23.4138 42.7581 22.3768 42.5169 21.322C42.5105 21.2938 43.8488 23.5977 44.0558 23.9777C46.9334 29.2616 49.793 34.7506 53.0904 39.7883C53.728 40.7625 52.7436 38.9415 52.6933 38.8451C51.8901 37.3068 51.3653 35.6639 50.7325 34.0548C50.5677 33.6359 50.0405 32.424 50.3353 32.7641C51.4094 34.0034 52.1532 35.7447 53.0159 37.1325C54.0406 38.7808 55.1182 40.3946 56.1557 42.0345C56.4124 42.4403 56.692 42.8471 56.8879 43.2879C56.9526 43.4334 56.954 43.8106 57.0865 43.7223C57.4118 43.5054 55.5388 39.8725 55.4359 39.627C54.5639 37.546 54.0198 35.3633 53.2145 33.2605C53.1547 33.1044 52.4824 31.4957 53.0159 32.5035C53.9005 34.1744 54.7879 35.8562 55.5104 37.6041C55.6879 38.0336 57.7678 42.3705 56.3667 41.5009C55.1932 40.7725 54.1875 39.8678 53.2145 38.8948C53.1139 38.7941 51.7919 37.3394 51.6508 37.9392C51.2974 39.4413 52.0211 41.5318 52.172 43.0273C52.4084 45.369 52.5195 47.7111 52.5195 50.0639C52.5195 50.1752 52.6327 51.8847 52.3582 51.6524C51.2763 50.737 50.5701 49.3567 49.8513 48.1651C49.445 47.4915 49.0324 46.823 48.5979 46.1671C48.4206 45.8994 48.0867 45.1003 48.0022 45.4101C47.8671 45.9057 48.3825 47.1189 48.4986 47.5322C48.8255 48.6959 49.1712 49.8539 49.4915 51.0195C49.8731 52.4088 50.2824 53.8172 50.4594 55.2513C50.5242 55.7757 50.6972 56.4249 50.1864 55.7974C49.8715 55.4105 47.2854 52.3091 48.1015 54.333C48.311 54.8526 49.7026 57.7295 49.1191 58.2546C48.7014 58.6306 47.4191 57.4877 47.208 57.9567C46.794 58.8766 47.587 60.0923 47.3693 61.0717C47.2238 61.7264 45.2527 59.9308 45.061 59.7686C43.9784 58.8526 45.4307 61.2508 45.5823 61.655C45.6315 61.7862 46.0921 62.9379 46.0042 63.0697C45.9133 63.2061 44.7872 61.3656 44.7135 61.233C43.8721 59.7184 43.7203 59.3379 45.4209 60.0913C47.3104 60.9284 49.9491 62.2456 50.9558 59.719C51.5786 58.1559 51.6526 56.4844 51.7997 54.8294C51.8106 54.707 51.7487 53.2127 52.0728 53.6628C52.7324 54.579 53.241 55.9775 54.1329 56.6909C54.3529 56.8669 54.2612 55.5568 54.257 55.5244C54.239 55.387 53.8336 53.581 53.9591 53.5884C54.1713 53.6009 55.9885 56.6729 55.8206 55.5988C55.4682 53.3431 53.3409 46.8102 53.9095 49.0214C54.1877 50.1036 54.5979 51.1734 54.9767 52.2233C55.0975 52.5578 55.3796 54.0224 55.6965 54.2337C55.858 54.3413 55.7481 52.1433 55.7462 52.124C55.5956 50.5969 55.4393 49.0435 55.1008 47.5446C54.785 46.1458 55.049 48.7214 55.2994 48.9718C55.4899 49.1623 55.2152 48.439 55.1505 48.1776C54.916 47.2306 54.6782 46.285 54.4059 45.348C53.9303 43.7119 53.3057 42.1345 52.7677 40.5205C52.4932 39.6969 52.5195 42.0228 52.5195 42.32C52.5195 43.1323 47.7951 40.7942 47.2576 40.5329C45.2267 39.5456 46.6737 42.1655 46.935 43.1142C47.4537 44.9981 46.6203 44.4341 45.1479 43.561C44.2554 43.0317 42.4077 41.4926 43.1871 43.561C43.2996 43.8596 44.9666 47.0313 43.7456 46.5022C42.3348 45.8909 41.16 44.2974 40.0597 43.2631C39.461 42.7003 38.8517 41.5552 38.1486 41.1534C37.4229 40.7387 39.1179 42.5153 39.613 43.1887C40.8862 44.9202 42.1166 46.6868 43.2119 48.5374C43.2856 48.662 44.2825 50.6877 43.7331 50.1384C41.5712 47.9764 39.8677 45.0623 38.1362 42.5682C36.2202 39.8085 34.4604 36.9091 32.3654 34.2782C32.3111 34.2099 30.9187 32.3777 31.2485 33.3971C31.8026 35.1097 32.7468 36.7042 33.3955 38.3859C33.7443 39.2903 34.4007 40.5116 34.4007 41.5133C34.4007 41.8549 31.4786 38.9873 30.9879 38.5721C30.4221 38.0933 31.0808 39.4559 31.0996 39.5029C31.7325 41.085 32.3186 42.6865 32.8494 44.3056C33.0238 44.8373 34.658 48.2956 33.2838 46.7132C30.2086 43.1721 27.8566 39.0964 24.9193 35.4447C24.2177 34.5725 24.8664 36.3503 24.4974 36.3134C23.7905 36.2428 21.524 33.717 22.1891 35.7922C22.3408 36.2656 24.0257 40.3991 22.6483 39.8379C21.546 39.3889 20.6719 38.572 19.7071 37.9019C19.6328 37.8504 18.3668 37.1274 18.3668 37.2318C18.3668 37.8921 19.3184 39.1312 19.5582 39.8503C19.6481 40.1202 17.7413 38.2933 17.4608 38.1005C16.4526 37.4073 17.1444 40.4257 17.1754 40.93C17.2547 42.2183 17.2251 43.512 17.2251 44.802C17.2251 45.0815 17.3233 45.7576 16.952 45.2488C16.2918 44.344 15.844 43.2773 15.2642 42.32C14.6297 41.2722 14.9925 41.4364 15.7607 42.1959C16.3516 42.7801 21.2371 48.8498 22.0898 48.3761C22.3923 48.208 20.2617 41.6794 20.1538 40.8431C20.0581 40.1012 20.2809 40.3777 20.7371 40.6818C21.6788 41.3096 22.666 41.8898 23.6659 42.4192C23.8658 42.5251 24.7952 43.1895 24.7952 42.6054C24.7952 41.0825 23.8465 39.4029 23.3805 37.9888C22.9224 36.5987 22.1643 34.9656 22.1643 33.4715C22.1643 32.9489 23.4079 33.7357 23.6907 33.8438C25.6246 34.5832 26.3569 34.9554 25.7136 32.3422C25.5708 31.7619 24.4663 26.7404 24.9193 26.8569C25.9777 27.129 27.1305 28.7184 28.1708 28.7184C28.722 28.7184 27.7973 27.2151 27.8233 26.981C27.8419 26.8138 29.1847 27.4526 29.387 27.4526C29.7046 27.4526 28.7018 25.5356 29.9579 26.3729C31.5882 27.4598 30.5461 25.9638 30.1688 24.983C29.6275 23.5754 29.1878 22.1968 28.9651 20.7015C28.8875 20.1808 28.5369 18.7143 28.8658 19.1254C29.7581 20.2408 30.9237 21.2629 31.9187 22.29C32.6926 23.0888 33.639 24.689 34.6489 25.1939C34.9005 25.3198 34.4111 24.2159 34.3759 24.1267C33.8487 22.79 33.2555 21.5491 32.8618 20.1554C32.546 19.0371 32.1467 17.945 31.9187 16.8047C31.8691 16.5566 31.8327 16.0997 32.018 16.5813C32.7493 18.4828 34.4923 20.2442 35.7162 21.8432C36.1732 22.4403 36.5724 23.1462 37.1061 23.6799C37.5659 24.1397 36.8342 21.9962 36.8331 21.9921C36.4064 20.3766 35.8449 18.7325 35.5921 17.0777C35.5759 16.9719 35.3288 15.8177 35.5424 15.9111C36.7349 16.4329 38.0604 18.3292 38.8932 19.2619C39.8021 20.2799 40.6323 21.3733 41.5986 22.3396C42.3785 23.1196 41.8663 21.5839 41.7599 21.2847C41.278 19.9295 40.5682 18.6715 40.0349 17.3383C39.7473 16.6194 39.6303 15.8082 39.2531 15.1293C38.3777 13.5536 41.5075 17.9428 42.6038 19.3736C46.0326 23.8484 49.6052 28.3567 52.6064 33.1364C53.0981 33.9195 53.8953 35.2702 53.1897 33.6825C52.5808 32.3125 51.2187 30.5004 49.8389 29.8105C49.1722 29.4772 49.1743 30.065 49.1688 30.58C49.142 33.0741 49.2256 35.5625 49.3922 38.0509C49.532 40.1393 49.6156 42.2129 49.6156 44.3056C49.6156 44.8502 49.8022 45.546 49.1936 44.9261C46.9009 42.5909 45.124 39.5797 43.5346 36.7354C42.4479 34.7908 42.9141 39.1802 42.9141 39.8503C42.9141 42.267 42.6368 43.7524 39.948 42.3696C37.7584 41.2435 35.8202 39.6489 33.805 38.2494C33.3048 37.902 31.5293 36.4122 30.7769 36.6857C30.1626 36.9091 31.2662 44.4842 31.2858 45.286C31.2998 45.8628 31.5228 47.0762 31.2858 47.6687C31.2368 47.7911 30.3126 46.3869 30.2681 46.316C29.4909 45.0782 28.6499 43.8981 27.6496 42.8288C27.5907 42.7658 26.6881 41.7131 26.6195 42.1586C26.4348 43.3592 26.8297 44.793 26.9422 45.981C27.1876 48.5715 27.3888 51.1685 27.5999 53.7621C27.6255 54.076 28.2324 57.758 27.2276 57.3114C26.053 56.7894 25.1134 55.5033 24.1003 54.7301C23.1252 53.986 22.0063 53.2562 20.8488 52.8189C19.7896 52.4188 21.5388 57.0743 21.6927 57.5844C22.022 58.676 22.2445 59.8001 22.5862 60.8855C22.6514 61.0924 22.9742 61.8878 22.5366 61.3323C22.2247 60.9365 21.2708 60.1438 21.2708 59.5577C21.2708 59.5405 22.5049 60.0596 22.5986 60.1037C23.445 60.502 24.2631 60.9542 25.1303 61.3075C26.6517 61.9273 26.2293 60.722 26.0487 59.4212C25.974 58.8836 25.6228 57.3717 25.9618 57.7954C26.3124 58.2336 26.6371 58.694 26.9298 59.1729C28.4366 61.6386 27.4918 54.5631 28.3942 54.5067C28.7073 54.4872 28.6065 54.8893 28.7913 55.028C28.9211 55.1253 28.841 54.7061 28.841 54.544C28.841 53.9359 28.8359 53.3276 28.841 52.7197C28.8462 52.0853 28.5183 48.6988 29.9082 49.1952C30.949 49.5669 31.5739 50.7349 32.6881 51.1063C33.6668 51.4326 33.715 50.118 34.4255 50.0391C35.583 49.9105 36.4231 49.8748 37.5529 49.5923" stroke="black" stroke-width="3" stroke-linecap="round"/>
<path d="M59.5538 6.30567C59.5538 6.81703 59.7926 7.98265 59.5165 8.40925C59.3717 8.63311 57.3132 6.99656 57.0779 6.80829C55.8881 5.85652 57.1464 7.95107 57.3385 8.48371C57.6509 9.35002 57.9147 10.2389 58.1203 11.1365C58.217 11.5582 58.8172 12.6156 58.4461 12.393C58.3113 12.3121 57.8618 11.3666 57.9063 11.8997C58.0706 13.8721 59.0514 15.9226 59.6282 17.8102C60.0447 19.1733 59.7376 17.5808 59.6375 17.1028C59.4225 16.0755 58.7844 14.6623 60.0378 16.172C61.5131 17.9492 62.8762 19.8275 64.3008 21.645C64.5146 21.9179 64.5304 21.8572 64.4776 21.4775C64.3252 20.3799 64.0509 19.3108 63.7795 18.2384C63.7173 17.9923 62.8674 14.4764 63.612 15.3343C64.2371 16.0545 64.8512 16.7886 65.4736 17.5123C65.6927 17.7672 66.5294 19.1066 66.9721 19.0574C67.1534 19.0373 64.9047 13.5573 64.6917 13.0632C64.6715 13.0163 64.0737 11.7523 64.3566 11.7415C64.7335 11.727 65.2505 12.2489 65.576 12.4116C66.5974 12.9224 66.7475 12.8832 66.3857 11.5367C66.2768 11.1313 64.3443 7.42629 64.6172 7.18061C64.9286 6.90039 66.3691 8.0109 66.7208 8.1114C67.1572 8.23608 66.7581 6.98359 66.7581 6.80829C66.7581 6.35193 67.4236 7.07353 67.5585 6.9386C67.9162 6.58094 67.3668 5.90916 67.1583 5.70066C67.0927 5.63511 66.0089 4.44603 65.9297 4.72333C65.7301 5.42164 65.0408 5.10878 64.3939 4.86295C64.0605 4.73627 61.0311 3.38508 61.1919 3.91355C61.4251 4.67966 62.6203 5.66007 62.5695 6.47321C62.5402 6.9423 58.0934 2.73442 60.3356 6.28705C60.4732 6.50498 62.7509 10.3756 62.6626 10.4197C62.5971 10.4525 60.9143 8.90522 60.922 8.9398C61.0914 9.70185 61.907 10.6078 62.3089 11.2388C63.2501 12.7167 64.2365 14.1588 65.0454 15.7159C65.1052 15.8311 66.5212 18.5376 65.7342 17.8381C65.5454 17.6703 63.9536 16.3259 64.2729 16.9911C64.7681 18.0229 65.3345 19.0677 65.9203 20.0441" stroke="black" stroke-width="3" stroke-linecap="round"/>
<path d="M53.9494 60.6557C52.9863 59.6925 53.9823 61.0299 54.2162 61.4765C55.1109 63.1846 51.3785 61.3084 50.9226 61.0148C50.4898 60.736 48.711 59.7136 48.6756 59.0756C48.6662 58.9068 51.3727 59.0012 51.4869 59.0038C53.1175 59.0404 54.7389 59.1782 56.3709 59.1782C56.8009 59.1782 56.9225 59.187 56.6069 58.7986C56.3801 58.5195 54.9955 56.9033 55.9399 57.9264C56.2115 58.2206 56.3151 58.5171 55.9502 57.947C55.6335 57.4521 54.5537 56.6247 54.483 56.059C54.3795 55.2315 56.2783 58.7666 56.1246 57.947C55.9763 57.1559 53.9513 52.0281 54.7292 51.4624C54.9272 51.3184 57.5228 53.9548 57.8997 54.2737C58.4679 54.7545 57.3291 52.7105 57.2738 52.591C56.4051 50.7151 55.7068 48.7549 55.0883 46.7837C54.4156 44.6392 56.3437 47.586 56.8839 48.0662C57.5453 48.6541 56.24 46.5663 56.1657 46.4348C55.4999 45.2577 55.0179 44.0977 54.6163 42.8129C54.5765 42.6855 54.9633 43.4578 55.0165 43.6645C55.2167 44.4433 54.3858 44.224 53.8366 44.2083C49.2172 44.0763 44.4565 43.3026 39.9543 42.2794C39.307 42.1323 39.917 42.5568 40.139 42.8232C40.8857 43.7192 41.5288 44.6617 42.1192 45.6653C42.7142 46.6768 43.6411 47.2708 44.3457 48.1996C44.5617 48.4843 45.6385 50.5206 45.6385 49.4308C45.6385 48.6317 47.2948 50.5083 47.588 50.7852C48.6567 51.7945 46.9793 49.371 46.9313 50.2106C46.9025 50.7151 47.2889 53.6027 46.4799 52.8168C46.3032 52.6451 45.6042 51.6471 45.3717 51.6471C45.0987 51.6471 45.3791 52.7642 45.4128 52.8988C45.6647 53.9064 44.9108 52.7443 45.5975 53.8633C45.8399 54.2585 46.1508 54.6162 46.3773 55.0125C46.4657 55.1672 46.561 52.5354 46.5619 52.4063C46.6178 44.6719 47.7905 37.0159 48.0394 29.3C48.0449 29.13 48.3532 30.2824 48.4088 30.4491C48.8431 31.7521 49.4708 32.9403 49.9581 34.2147C50.2874 35.0758 50.1021 35.1941 49.2502 34.7585C47.7592 33.9961 46.4151 32.8302 45.1255 31.7727C44.9995 31.6694 43.2994 30.2008 44.0584 30.8596C45.2491 31.893 46.2552 33.1169 47.1776 34.3891C47.3127 34.5755 48.4038 35.796 47.5469 35.4152C45.9767 34.7173 44.52 33.5748 43.1042 32.6141C42.9802 32.5299 41.0203 31.1491 41.3292 31.824C42.2444 33.824 43.424 35.6971 44.3149 37.7135C44.4968 38.1251 45.9371 40.7859 45.2897 41.2225C44.8632 41.5101 43.9356 41.429 43.4941 41.438C41.8188 41.4722 40.1394 41.4401 38.4665 41.3457C36.6716 41.2443 34.9346 40.9892 33.1619 40.7506C32.5005 40.6615 33.7589 42.0475 33.9109 42.2896C34.0503 42.5116 35.7855 45.8538 34.7215 45.2036C34.261 44.9222 33.9056 44.3907 33.4081 44.1775C32.6835 43.867 34.4225 45.3864 34.8856 46.0244C36.3845 48.0895 33.8347 46.5876 32.9772 45.9628C32.489 45.6071 31.8196 45.1263 32.8849 45.5524C34.81 46.3225 36.6253 47.3532 38.4973 48.2406C38.6239 48.3007 40.7956 49.4369 40.7956 49.0615C40.7956 48.6707 40.4352 48.0424 40.3031 47.7276C39.4169 45.6152 38.4972 43.518 37.6559 41.3867C36.3601 38.1038 35.0982 34.786 34.1879 31.3726C34.0651 30.9118 33.253 29.0663 33.8493 30.4081C34.3555 31.5469 34.9233 32.6792 35.4807 33.794C36.305 35.4425 34.5402 33.6176 34.034 33.1476C33.1129 32.2923 32.1028 31.3928 31.315 30.4081C30.8022 29.767 31.3123 29.9225 31.7973 30.1003C32.4471 30.3386 32.955 30.8195 33.5928 31.0648C33.8982 31.1822 32.4943 30.3127 32.3718 30.2234C31.6591 29.7039 26.5698 25.5086 25.5487 26.5297C25.2589 26.8195 26.6387 28.1287 26.0207 28.1508C25.1403 28.1823 22.5254 27.5466 22.5527 28.7459C22.5664 29.3488 23.4071 30.7364 22.4706 30.7364C21.7722 30.7364 21.2599 30.5038 21.2599 31.2905C21.2599 32.2017 20.3767 31.8953 19.6798 32.2139C19.0242 32.5136 19.2986 33.0323 19.0847 33.6504C18.7903 34.5006 17.4963 33.8418 17.1557 34.4302C16.698 35.2208 17.1261 36.4775 16.3554 37.1081C15.9347 37.4524 15.0801 37.168 14.9702 37.6622C14.9134 37.9182 14.5776 37.9909 14.3854 38.1239C13.9761 38.4073 13.9467 38.7064 13.78 39.1397C13.5433 39.7551 13.892 40.5445 14.3341 40.9865C14.9645 41.617 15.7442 41.9258 16.3041 42.6385C18.4485 45.3678 20.0796 48.5064 21.8139 51.4932C23.3158 54.0797 25.2648 56.3901 26.7902 58.9832C27.4033 60.0256 27.945 61.5129 28.791 62.3589C28.9652 62.5331 29.4893 62.7126 29.7555 62.8309C30.6221 63.2161 30.4942 61.8879 30.4942 61.4355C30.4942 59.8506 29.2578 58.5582 29.2014 56.9209C29.1448 55.2804 29.0614 53.6274 29.0167 51.9754C28.9987 51.3091 28.9398 50.2364 28.4626 49.7592" stroke="black" stroke-width="3" stroke-linecap="round"/>
<path d="M21.732 6.07378C21.8069 5.47481 23.5585 4.5037 23.0562 4.83853C22.441 5.2487 22.0359 6.37351 21.5937 6.96316C19.6324 9.57824 18.2123 12.5984 16.3958 15.3233C12.7332 20.8172 9.51235 26.6536 4.82394 31.342C4.00347 32.1625 3.24526 33.1126 2.48191 33.9608C2.02167 34.4721 3.149 32.3609 3.32187 32.0535C4.04113 30.7749 5.1572 29.8177 6.03942 28.664C6.83133 27.6284 7.5337 26.5266 8.3024 25.4622C9.08607 24.3772 9.89653 23.0677 10.8421 22.1221C11.9579 21.0063 12.6449 19.6409 13.6486 18.446C14.7952 17.081 16.202 15.8728 17.463 14.6118C18.2776 13.7972 19.1901 12.6724 20.309 12.2994" stroke="black" stroke-width="3" stroke-linecap="round"/>
<path d="M55.3456 23.8474C57.0648 25.5666 58.6947 27.3787 60.1593 29.3141C61.2397 30.7418 62.65 31.8863 63.7431 33.2775C64.551 34.3058 66.8088 36.566 68.1924 35.8742" stroke="black" stroke-width="3" stroke-linecap="round"/>
</svg>
