<svg width="138" height="113" viewBox="0 0 138 113" fill="none" xmlns="http://www.w3.org/2000/svg">
<path d="M5.79003 94.0396C5.79003 82.7464 5.79003 71.4533 5.79003 60.1601C5.79003 59.0309 5.20106 56.5301 6.73112 56.5301C9.41189 56.5301 12.4851 56.9514 15.201 57.1687C21.0705 57.6383 26.9723 58.7056 32.7122 59.5887C36.5906 60.1854 36.0396 69.7721 36.0396 72.8313C36.0396 78.6907 36.0396 84.5502 36.0396 90.4097C36.0396 91.8853 36.9497 98.8816 34.0902 96.594C32.2957 95.1585 28.0563 95.5486 25.8892 95.1152C22.648 94.4669 19.3814 94.6446 16.0749 94.6446C12.8483 94.6446 9.62164 94.6446 6.39502 94.6446" stroke="black" stroke-width="3" stroke-linecap="round"/>
<path d="M51.1644 95.8546C51.1644 82.7044 52.3744 69.7154 52.3744 56.5637C52.3744 50.3906 52.3744 44.2174 52.3744 38.0443C52.3744 36.2908 51.9237 33.7567 52.408 32.0616C52.5144 31.6893 61.2669 32.9354 62.1887 32.9354C69.4038 32.9354 76.6189 32.9354 83.834 32.9354C86.4571 32.9354 87.768 54.1793 88.3714 57.4376C89.1186 61.4723 88.5448 66.4014 87.9345 70.4449C86.8746 77.4664 85.0661 84.3219 83.8004 91.2835C83.4887 92.9977 83.6445 95.2496 81.7165 95.2496C77.2391 95.2496 71.5512 95.1492 67.1631 94.1741C62.983 93.2452 57.8547 94.0396 53.5844 94.0396C51.3123 94.0396 47.6721 94.7363 45.7195 93.4346" stroke="black" stroke-width="3" stroke-linecap="round"/>
<path d="M101.379 93.4346C101.379 84.5617 101.334 75.6877 101.379 66.815C101.437 55.2772 103.126 44.033 104.269 32.5993C104.96 25.6872 105.009 18.8499 105.009 11.8952C105.009 10.8558 105.42 2.16935 105.479 2.2153C109.201 5.11003 116.265 4.50082 120.738 4.50082C123.651 4.50082 127.523 4.92689 130.149 5.6772C131.161 5.96625 132.838 5.0782 132.838 6.6183C132.838 9.62541 133.531 12.4159 133.914 15.3907C135.48 27.5687 135.863 39.447 135.863 51.7238C135.863 59.3646 135.863 67.0054 135.863 74.6463C135.863 79.4103 134.048 83.89 134.048 88.5947C134.048 90.0356 133.736 95.2925 132.704 96.3251C132.212 96.8173 124.247 95.8546 123.293 95.8546C119.517 95.8546 115.742 95.8546 111.966 95.8546C109.546 95.8546 107.126 95.8546 104.706 95.8546C102.175 95.8546 100.742 94.2309 98.3538 93.4346" stroke="black" stroke-width="3" stroke-linecap="round"/>
<path d="M5.79002 89.1997C5.96592 87.7924 8.97535 88.8676 9.72246 89.1997C11.591 90.0302 6.03965 85.2144 5.25224 84.427C1.75779 80.9325 5.04207 82.6143 7.60499 84.2253C10.6926 86.166 19.4477 92.5225 17.016 89.8047C14.295 86.7636 10.8188 83.468 8.84858 79.8559C8.07128 78.4309 9.15355 79.2623 9.95774 79.7887C13.7149 82.248 17.3302 84.7779 20.814 87.62C22.2394 88.7829 26.1817 92.6516 24.8809 91.3508C22.3568 88.8267 20.0296 86.1185 17.621 83.4859C15.2231 80.865 12.9095 78.1194 10.7644 75.2849C10.0153 74.295 8.99159 72.9076 11.0669 73.9068C17.0501 76.7876 21.4409 82.5099 26.8303 86.1747C31.4147 89.2922 20.1432 77.3285 16.6799 72.9993C15.5902 71.6372 15.1468 70.4137 17.1168 72.0919C20.3343 74.8327 23.3926 77.7208 26.3597 80.7298C27.418 81.8029 34.0532 89.6799 30.4602 84.0909C27.082 78.8358 22.7588 73.2701 18.7973 68.4283C17.5616 66.9179 24.6376 69.5876 25.7211 70.0752C30.7389 72.3332 25.1541 64.614 24.2759 62.9161C24.1983 62.7663 22.3148 59.219 22.8642 59.219C25.3686 59.219 28.5894 61.5031 30.5275 62.8489C33.2748 64.7568 37.4105 67.7065 33.0146 63.185C28.794 58.8438 33.7783 61.9024 35.7707 63.79C37.4886 65.4175 32.9857 63.3538 32.4097 63.0506C30.1788 61.8764 32.0925 64.9055 30.4602 65.4706C28.5553 66.13 25.6022 64.7803 24.2759 63.4539C22.7131 61.8911 20.6051 60.9844 18.8646 59.6223C11.432 53.8055 24.4616 69.5673 16.6463 65.2689C15.8752 64.8448 10.5148 60.9266 11.3694 63.3195C11.5406 63.799 14.6818 70.2491 13.6549 69.7055C11.4142 68.5192 11.0631 64.8995 9.28552 63.3195C7.0103 61.297 10.9672 69.1722 11.7055 72.1255C11.9782 73.2164 12.4153 74.4922 11.8399 72.4616C10.8024 68.7996 9.68066 65.22 9.15108 61.4373C8.84254 59.2334 8.69115 56.944 8.81497 54.7151C8.87012 53.7226 11.1096 57.5036 11.2686 57.7737C12.9938 60.7067 15.1854 63.3066 17.1504 66.0755C17.3271 66.3246 19.5841 69.688 19.6712 69.4702C20.1585 68.2519 20.2715 67.2047 21.8895 67.4536C24.2035 67.8096 29.1386 71.4274 30.4602 73.4699C31.6652 75.3322 30.3029 70.008 30.1241 69.3694C29.6982 67.8483 35.8995 73.5967 36.611 74.3438C40.4073 78.3299 37.7879 75.0521 35.4682 73.1674C33.3513 71.4474 32.9397 68.9552 33.0146 73.6043C33.0356 74.9021 34.9038 84.0155 32.2752 80.7298C31.0202 79.161 26.3578 73.6719 26.3597 73.7388C26.3986 75.061 28.9771 82.1235 27.4353 80.1248C24.657 76.5233 20.476 73.209 18.2596 69.2686C17.3983 67.7374 17.7407 68.9842 18.1587 69.9744C19.3855 72.8798 21.76 75.4685 23.3012 78.2426C24.7576 80.8641 28.1747 88.8039 28.1747 85.805C28.1747 85.2119 26.5915 81.3515 27.3681 81.7045C32.0106 83.8148 36.0657 88.1132 39.6696 91.6196C42.2039 94.0854 40.7948 92.8389 38.9301 91.6196C37.4408 90.6458 34.9103 89.8047 33.1491 89.8047C30.9536 89.8047 31.8977 92.3642 31.8047 94.0396C31.7053 95.8278 27.4159 92.592 26.9647 92.191C26.1359 91.4543 21.9866 87.2341 23.0323 88.6283C23.7769 89.6211 26.6416 92.969 26.2589 94.3085C25.6974 96.2736 13.2479 90.9962 11.9072 90.4097C10.8338 89.9401 9.23119 88.6619 8.00832 88.6619C6.83413 88.6619 9.78807 90.1962 10.6299 91.0146C12.7874 93.1121 16.2047 97.9277 11.8399 93.4346C4.26003 85.6318 17.5171 89.855 16.2093 87.3847C15.3395 85.7418 16.1961 86.3093 17.5874 87.0822C17.9161 87.2648 19.238 88.1507 19.5704 87.8552C19.7912 87.659 19.7184 86.4807 19.7384 86.5108C20.7758 88.0669 25.5016 89.8047 27.2672 89.8047C27.9793 89.8047 30.5089 88.3462 30.5947 89.8047C30.733 92.156 29.0215 91.8733 26.9647 91.4852C23.5654 90.8438 20.7995 88.1984 17.8899 86.5108C14.4125 84.494 10.9905 82.3641 7.73943 79.9904C5.09283 78.0579 3.89581 75.4685 2.16006 72.8649" stroke="black" stroke-width="3" stroke-linecap="round"/>
<path d="M51.7694 94.6446C51.715 94.1007 49.3982 89.8719 50.2905 89.8719C52.0936 89.8719 56.2402 94.1936 58.0882 95.2496C60.5767 96.6716 54.2022 90.9999 52.6433 88.5947C50.8999 85.9048 50.1739 83.7757 53.5844 86.3092C54.4041 86.9181 57.5429 89.3733 57.1807 88.83C55.6972 86.6047 53.4661 84.6986 52.3744 82.2423C51.0329 79.2238 57.1491 83.2337 57.8193 83.7211C58.692 84.3559 63.4514 88.1096 62.3231 86.9814C59.7046 84.3629 57.2738 80.7655 56.1388 77.2343C55.1612 74.1928 61.3809 79.0624 62.0543 79.5198C63.1302 80.2507 68.0656 84.3878 67.4992 83.7548C64.1819 80.0472 61.5816 75.6482 58.4243 71.7894C55.2681 67.9317 57.9834 70.0831 60.2729 71.991C62.2303 73.6222 64.3208 75.1969 66.1548 76.9654C66.854 77.6397 67.5591 78.6665 66.5581 77.3015C62.7264 72.0764 59.7139 66.0217 57.5504 59.9248C56.0046 55.5685 56.6918 55.7741 60.3065 57.8073C62.9725 59.307 65.5259 61.1051 68.037 62.8489C69.3408 63.7543 71.9413 64.8207 72.8097 66.21C75.1662 69.9805 67.6899 58.8831 65.8187 54.8496C65.0069 53.0999 60.0308 45.9987 64.2726 47.1864C69.7664 48.7246 75.4108 51.6714 80.4393 54.379C83.4754 56.0139 78.7818 50.4534 78.389 49.8752C77.8821 49.1289 72.9055 41.6837 76.1035 42.7498C76.8615 43.0024 81.3921 45.2603 81.2796 45.0353C79.7011 41.8784 77.7072 38.9852 76.7085 35.4899C75.8438 32.4635 85.2669 37.1704 83.5315 37.1704C81.7106 37.1704 81.0681 35.8588 82.3551 38.7837C83.4662 41.3089 85.0053 43.5936 86.1195 46.1108C86.5215 47.0191 88.0017 49.1579 88.0017 50.1441C88.0017 51.4145 84.7905 47.6501 86.2539 50.7491C86.7382 51.7745 90.5568 59.1173 89.7494 60.0256C88.7999 61.0938 86.0781 57.5183 87.3295 60.1601C88.0668 61.7166 89.546 63.8901 86.8589 62.7145C86.2128 62.4318 86.8589 63.4883 86.8589 63.79C86.8589 64.4781 86.1405 64.5276 86.2875 65.3361C86.3861 65.878 87.2916 67.3864 86.7245 67.8905C86.282 68.2839 85.3164 66.92 85.0776 67.7561C84.7683 68.8384 86.7753 71.5033 83.9684 69.8399C80.4862 67.7764 81.4619 70.4724 82.624 72.8649C84.296 76.3073 82.2038 74.411 80.5401 73.5035C77.7482 71.9807 80.0111 75.7128 80.5065 77.0998C83.2719 84.8431 66.9351 64.6225 73.5827 75.9235C75.2431 78.7462 76.6995 82.6991 78.8596 85.0992C80.8614 87.3234 75.4357 82.9525 74.8935 82.4103C73.6448 81.1616 70.1576 75.2891 73.0786 79.1837C75.0628 81.8293 77.9388 84.5027 79.4646 87.3847C80.6251 89.5768 76.2056 88.0018 75.0616 87.6536C72.2827 86.8078 71.0915 85.6391 72.7088 89.2333C73.4158 90.8043 76.4558 94.9074 75.9355 96.7285C75.6248 97.8159 68.2126 94.3517 67.4992 94.0396C66.7075 93.6933 59.2982 91.5091 59.2982 90.4097C59.2982 90.2451 62.9936 94.1318 62.0543 92.6952C59.679 89.0624 57.3779 84.0705 57.2143 79.6543C57.133 77.4589 59.7969 78.9992 57.6849 76.9654C54.2885 73.6948 52.3744 69.9908 52.3744 65C52.3744 62.3936 56.3401 64.3672 57.4832 65.3025C60.4555 67.7344 54.3193 61.592 53.618 60.4962C53.1195 59.7173 50.5445 55.4857 53.2483 56.799C55.5885 57.9357 61.81 62.6047 59.9704 60.7651C57.3809 58.1756 55.2521 56.021 54.0549 52.4296C53.1693 49.7729 57.8609 54.6308 58.8949 55.3201C62.0352 57.4137 58.0024 53.7797 57.2143 52.5977C56.6552 51.7591 53.3207 45.3842 54.5255 46.9175C56.1213 48.9486 61.7297 54.3233 59.9032 52.4968C57.3687 49.9623 55.64 45.69 54.5255 42.3464C53.6961 39.8582 53.6302 39.1712 56.0043 40.9348C56.8792 41.5847 60.7983 43.9826 60.7098 43.8253C59.6197 41.8872 58.4478 40.1596 57.5168 38.1115C56.0777 34.9454 62.1809 37.585 63.2306 38.0443C66.0303 39.2691 63.9499 38.125 62.5248 36.6998C59.7576 33.9326 60.0374 32.9328 63.8692 34.8849C67.3109 36.6382 70.2188 39.3976 73.5491 41.2709C73.7588 41.3888 71.9088 37.4368 71.1291 36.5654C68.9448 34.124 75.1384 36.891 75.6666 37.204C76.3855 37.6301 81.352 41.5737 78.6579 39.8592C76.3224 38.373 73.4488 35.7712 75.0616 39.8928C75.3995 40.7564 78.1 44.4303 76.2716 44.4303C75.1823 44.4303 74.2691 43.8676 73.2466 43.5564C72.3524 43.2842 70.5241 41.9495 70.5241 42.8842C70.5241 44.4026 73.1556 47.5654 74.0196 48.7997C74.6415 49.6881 71.0167 48.6966 70.8266 48.598C69.1423 47.7246 67.6623 46.342 65.8187 45.7747C63.9707 45.2061 67.4992 51.492 67.4992 52.2952C67.4992 54.196 61.9631 49.3315 61.4829 49.0013C59.2251 47.4491 63.4835 52.1403 64.1381 53.1691C64.9134 54.3873 61.2491 50.3488 60.7098 49.2702C60.021 47.8926 63.1965 49.7001 63.5331 49.9424C65.3294 51.2358 66.6793 52.8917 68.5747 54.1102C71.6239 56.0703 69.5351 52.5184 69.0453 51.1188C67.342 46.2523 72.8705 52.3097 74.1205 53.1691C78.3722 56.0921 74.7365 51.3302 73.8852 48.6988C73.7005 48.128 72.0106 44.4742 72.4736 43.9597C73.3825 42.9498 76.2683 45.2233 76.8766 45.6739C78.4737 46.8569 79.7444 48.4143 81.3804 49.5391C81.8433 49.8573 82.6608 51.0698 82.624 50.4802C82.602 50.1279 81.7013 48.7325 82.3887 48.7325C83.5701 48.7325 84.6485 50.427 85.5145 51.0852C87.9793 52.9584 82.154 49.9418 81.5484 50.6146C79.8303 52.5237 82.4932 60.7656 82.624 63.185C82.645 63.5747 83.2379 65.0341 82.624 65C80.7831 64.8977 78.7873 62.7348 77.4479 61.6726C76.9362 61.2667 72.6138 57.5368 72.1375 57.6729C71.4077 57.8814 72.8709 59.006 73.3138 59.6223C74.4685 61.2288 75.7143 62.7697 76.8429 64.395C78.1165 66.2289 79.2578 68.3576 80.0696 70.4449C80.3829 71.2507 76.5264 68.5425 76.238 68.2938C74.0725 66.4271 71.7967 64.8044 69.4486 63.185C68.4427 62.4913 67.6868 61.7647 68.7764 63.5547C69.5508 64.827 74.4773 70.5464 73.8852 72.1255C73.4315 73.3355 65.4083 66.8699 64.4742 66.815C64.3838 66.8097 68.4746 73.5385 69.0117 74.6127C70.4804 77.5502 65.2097 72.7421 64.2053 72.0246C63.9876 71.8691 65.1266 76.2465 65.0792 77.0998C64.9855 78.786 62.0543 75.2724 62.0543 76.4949C62.0543 78.2174 64.7429 82.7461 65.8187 84.2253C66.8208 85.6032 62.3034 84.3597 62.0543 84.3597C60.3093 84.3597 68.212 91.6196 64.7767 91.6196C63.2977 91.6196 59.8022 88.5678 63.2979 89.2669C64.1785 89.443 71.1368 93.2142 70.7594 92.1574C69.6732 89.1159 66.2892 85.8824 66.2892 82.5448C66.2892 82.2355 71.9457 85.4856 72.9441 86.0403C74.673 87.0008 72.3391 83.5671 72.3391 82.5448C72.3391 81.6264 75.4677 84.3597 75.9691 84.3597C76.5642 84.3597 77.8275 82.5228 77.7504 81.9062C77.333 78.5666 76.7819 77.7646 80.204 79.8559C81.5883 80.7019 85.0122 84.1338 84.0692 82.8137C82.7602 80.981 78.1025 76.1605 79.9351 77.4696C81.0261 78.2488 82.624 81.8016 82.624 80.4609C82.624 78.4459 79.599 77.3167 79.599 75.2849C79.599 74.3331 83.8536 78.3294 82.4895 76.9654C81.7412 76.2171 76.8942 70.6801 79.8679 73.7388C82.4271 76.3711 84.5228 80.7105 87.7328 82.5448C88.6336 83.0595 84.9246 81.3893 84.1701 81.0659C83.3624 80.7198 84.6528 85.7913 84.4053 86.41C84.255 86.7858 81.1917 83.4727 82.3551 85.3008C82.9864 86.2928 86.3602 89.5672 85.985 90.8802C85.7706 91.6308 82.019 85.7772 82.019 89.9391C82.019 90.8852 83.3972 94.5864 81.8845 94.6446C80.2749 94.7065 77.0199 92.9572 77.784 95.2496" stroke="black" stroke-width="3" stroke-linecap="round"/>
<path d="M60.8443 60.1601C62.6077 60.1601 68.8217 61.2304 70.188 60.0592C70.7788 59.5529 70.6509 51.352 70.6586 51.3541C72.3767 51.8227 74.0461 57.3006 74.6246 58.6812C75.0754 59.7569 75.9694 64.58 77.1454 65.168C77.2434 65.217 76.149 55.9763 77.784 62.2439C78.3778 64.5201 78.685 66.917 79.599 69.1005C80.8605 72.1139 81.0764 65.2236 81.1451 64.6639C81.2643 63.6936 82.6379 52.2001 83.834 55.589C84.7164 58.0892 85.6708 60.5398 86.8589 62.9161C87.0191 63.2366 89.1599 66.7624 89.2453 66.378C89.6675 64.4781 89.2789 62.128 89.2789 60.1601" stroke="black" stroke-width="3" stroke-linecap="round"/>
<path d="M69.9192 59.5551C68.0243 59.5551 68.1042 59.0727 68.1042 57.1015C68.1042 53.6408 68.1566 51.7378 68.3731 56.9334C68.8297 67.8939 66.1561 78.9444 59.4326 87.7544C57.7013 90.023 57.1411 89.1118 57.3488 86.578C57.7513 81.6666 59.2515 76.8571 61.4493 72.4616C61.9038 71.5525 67.432 64.3567 67.432 64.7311C67.432 65.3109 66.6985 65.5496 66.4236 65C66.0273 64.2073 66.2892 62.8605 66.2892 62.0086C66.2892 59.5435 69.2201 59.6858 71.0955 60.5298C72.1747 61.0154 74.6172 64.8861 74.0869 61.5717C73.3914 57.2249 70.0998 53.4107 69.1797 49.2702C68.2133 44.9212 68.7777 41.7134 64.0037 40.0609C61.4449 39.1752 59.6343 37.1916 59.6343 40.7331C59.6343 50.637 59.6343 60.541 59.6343 70.4449" stroke="black" stroke-width="3" stroke-linecap="round"/>
<path d="M101.545 93.4102C102.939 93.4102 104.029 94.4708 105.168 95.1697C105.328 95.2682 107.387 96.612 107.393 96.5669C107.504 95.6824 105.692 94.0406 105.271 93.4102C103.965 91.4512 101.964 88.7974 101.39 86.5017C101.333 86.2716 104.726 88.4541 105.271 88.7269C106.7 89.4414 108.414 89.8207 109.67 90.8486C110.716 91.7044 110.747 91.5309 110.11 90.3053C108.454 87.1204 106.589 84.0788 105.013 80.8352C102.537 75.7429 104.704 79.0236 107.238 81.3009C110.826 84.5256 121.199 94.6091 117.536 91.4696C114.741 89.0741 113.184 83.7111 111.611 80.4471C110.66 78.4751 108.583 75.2608 108.583 72.9952C108.583 72.6941 112.556 76.4823 112.982 76.9281C115.784 79.8604 118.5 83.0233 121.003 86.2171C122.525 88.1591 121.784 85.9033 121.365 84.7164C119.158 78.462 116.747 72.1468 115.259 65.6727C114.816 63.7459 114.532 61.7772 114.224 59.8251C114.165 59.4502 113.858 58.5868 114.224 58.6866C114.887 58.8674 115.834 60.5672 116.19 61.0153C118.074 63.3827 119.881 65.8074 121.753 68.1826C123.429 70.3079 124.984 72.6037 126.902 74.5218C127.802 75.4218 126.124 67.8813 125.971 67.1217C124.398 59.3325 123.564 51.4233 122.763 43.5242C122.492 40.8615 121.675 37.1442 124.574 40.4192C126.424 42.509 128.434 44.5986 130.68 46.2669C132.09 47.3141 131.294 42.8586 131.249 42.2304C130.889 37.1899 130.085 32.1551 129.593 27.1197C129.457 25.72 129.087 23.8256 130.447 25.412C130.843 25.8734 131.854 27.689 132.491 27.689C133.178 27.689 132.543 23.6099 132.491 23.2903C132.275 21.9633 131.684 13.6029 131.353 13.7685" stroke="black" stroke-width="3" stroke-linecap="round"/>
<path d="M131.353 13.7685C130.895 12.8016 129.031 7.63312 129.593 8.64533C130.598 10.4531 132.57 12.3368 129.956 9.57681C128.089 7.60637 130.038 11.3283 128.093 10.8705C127.145 10.6475 126.249 9.57681 125.298 9.57681C124.262 9.57681 124.956 12.9458 125.065 13.5356C125.118 13.8205 125.631 17.0883 125.014 16.951C123.777 16.6762 121.815 14.3776 120.9 13.5356C115.9 8.93564 120.459 15.4245 118.674 15.4245C117.526 15.4245 113.445 10.5891 112.827 9.57681C112.21 8.56705 112.502 9.83556 112.154 9.83556C111.581 9.83556 110.233 6.77653 109.929 6.3425C109.768 6.11302 108.597 4.15982 108.557 4.29841C108.031 6.14194 108.532 8.80185 108.532 10.6894C108.532 12.9146 108.532 15.1398 108.532 17.365C108.532 18.2669 108.066 15.6018 108.066 14.7C108.066 12.7918 108.278 11.2912 109.463 9.80968C110.337 8.71661 116.041 9.57284 117.277 9.93906C118.906 10.4218 117.849 7.81874 119.709 8.74883C121.265 9.52661 125.093 13.0102 124.082 11.595C123.189 10.3443 121.027 5.99837 120.667 9.60269C120.561 10.6575 120.54 18.4259 119.244 18.4259C117.183 18.4259 115.453 15.4173 113.189 15.1657C111.457 14.9733 112.413 18.7262 112.154 20.1854C112.109 20.4373 111.736 22.7868 111.429 22.5141C110.684 21.8515 109.872 20.6198 109.463 19.7196C109.061 18.8347 108.256 16.8083 107.497 16.2007C106.836 15.6722 106.48 20.8914 106.436 21.1945C106.208 22.7411 106.386 27.4496 105.271 23.549C104.967 22.4827 104.34 18.4456 104.34 21.8931C104.34 25.0498 104.214 34.5173 104.34 31.3631C104.455 28.4811 105.731 24.9863 106.901 22.4106C107.487 21.1234 107.542 24.0271 107.626 24.5323C108.096 27.3519 109.459 29.9578 110.602 32.5534C112.515 36.9021 111.238 28.9277 111.093 27.7148C110.749 24.8203 110.901 22.0479 111.326 19.1763C111.448 18.3524 111.38 16.865 112.05 17.7273C113.687 19.8317 115.335 21.8635 117.846 22.9798C120.748 24.2696 115.174 17.0453 115.052 13.872C115.028 13.2466 115.795 16.1866 116.087 16.7699C117.891 20.3779 120.222 23.6454 122.452 26.9904C124.914 30.6831 123.803 26.7307 123.927 24.1959C123.983 23.0359 126.118 13.7934 126.799 15.2692C127.594 16.9916 129.648 18.6108 130.784 20.1854C131.47 21.1364 132.505 22.961 133.682 23.4455C134.055 23.5993 134.136 13.5982 134.147 12.7335C134.158 11.8698 134.613 8.33274 134.613 11.0775C134.613 13.6338 134.459 16.2429 134.717 18.7881C134.823 19.8368 135.585 22.046 134.975 23.0833C134.223 24.3621 130.33 19.9695 129.956 19.5644C127.918 17.3565 125.921 15.1317 123.927 12.8887C122.228 10.9771 122.97 15.5228 122.97 16.4336C122.97 21.2635 122.97 26.0934 122.97 30.9233C122.97 31.2099 122.872 37.3156 122.866 37.3143C121.714 37.0582 120.435 30.0026 120.175 29.0344C119.129 25.1426 118.172 21.2087 117.484 17.2357C117.2 15.5959 118.119 21.4969 118.416 22.3588C119.972 26.8821 121.241 31.6279 122.97 36.0723C123.05 36.2805 123.937 39.3325 124.134 39.3325C124.592 39.3325 124.363 36.6001 124.341 36.3052C123.999 31.6907 123.984 27.8665 124.807 23.342C125.02 22.1665 124.824 23.8993 124.858 24.2994C125.049 26.4906 125.692 29.3673 126.488 31.4149C127.811 34.8169 126.242 27.5028 126.23 26.6022C126.192 23.9584 125.905 21.0421 126.333 18.4259C126.403 17.998 127.578 15.0414 127.627 16.7699C127.731 20.4282 127.886 24.202 129.723 27.5078C130.232 28.4238 129.063 23.9069 128.765 23.0574C128.429 22.0958 128.632 19.2341 128.067 20.0819C127.057 21.5959 126.951 24.426 126.799 26.1882C126.19 33.254 126.438 40.6724 125.195 47.6641C124.71 50.391 124.201 49.2614 123.798 47.1983C123.029 43.2715 123.435 39.0639 123.435 35.0891C123.435 31.0774 122.201 24.761 123.901 20.9616C124.785 18.9858 124.893 22.4409 124.936 22.8246C125.456 27.507 126.168 32.1505 126.954 36.7968C127.555 40.3453 128.274 46.5143 130.654 49.4235C130.945 49.7784 133.265 53.4794 134.044 52.7872C134.96 51.9732 134.147 45.9909 134.147 44.9731C134.147 40.1669 134.613 35.4327 134.613 30.6128C134.613 28.2737 134.354 33.8183 134.328 34.0282C133.37 41.9118 132.026 49.7619 130.913 57.6258C130.681 59.2656 129.346 75.1857 125.764 67.2252C120.033 54.4893 117.846 38.6994 117.846 24.8428C117.846 24.374 117.846 19.8996 117.846 22.5399C117.846 29.1379 117.846 35.7359 117.846 42.3339C117.846 45.6631 117.846 48.9923 117.846 52.3215C117.846 53.2101 117.778 50.2091 117.743 49.8893C116.949 42.6439 118.24 35.1464 116.941 27.9995C116.779 27.1103 116.538 27.3067 116.19 28.0512C114.615 31.427 114.626 35.7443 113.629 39.3325C113.121 41.1621 108.861 53.778 107.704 45.8011C107.048 41.2863 107.449 36.0382 108.169 31.5701C108.275 30.9174 109.317 27.5753 108.532 30.0694C107.058 34.7488 106.161 39.6735 104.806 44.4039C103.702 48.2575 102.513 52.0865 101.442 55.9439C101.061 57.3165 101.08 54.4662 101.08 54.1845C101.08 41.0296 108.631 27.7322 115.647 16.951C115.659 16.9325 118.968 11.7736 119.218 13.1475C119.737 16.0024 119.244 19.4063 119.244 22.2812C119.244 29.153 119.167 36.135 118.519 42.9808C118.278 45.5292 118.587 49.6154 117.484 51.9593C116.988 53.0144 117.147 49.651 117.018 48.4921C116.59 44.6332 116.921 40.5261 117.381 36.6933C117.81 33.1142 119.165 29.5839 119.244 25.9812C119.301 23.3452 118.666 26.112 118.286 27.0939C115.348 34.684 114.886 44.1156 110.188 50.9501C109.18 52.4152 109.053 49.1836 109.023 48.6473C108.785 44.3642 108.777 39.8093 109.774 35.6324C110.88 30.9953 112.231 26.3218 114.302 22.0224C115.346 19.8536 114.997 22.1378 114.793 23.1868C112.171 36.672 110.446 50.5375 106.669 63.758C106.507 64.3229 105.291 68.1484 105.271 67.7944C105.141 65.4483 106.025 63.1411 106.772 60.9636C108.655 55.4782 111.06 49.904 113.655 44.7144C114.443 43.1375 118.267 39.6868 116.63 40.3416C115.43 40.8219 115.992 43.7436 115.958 44.6626C115.741 50.5054 115.518 56.3012 115.518 62.1538C115.518 71.1863 114.881 80.4898 115.88 89.4773C115.976 90.3434 116.039 95.7374 117.018 93.4102C118.517 89.8511 118.615 85.3248 119.347 81.5597C121.1 72.5458 123.74 63.4569 126.695 54.7537C128.109 50.5907 127.161 53.2597 127.161 55.8922C127.161 58.0104 128.505 60.1096 128.791 62.2832C129.647 68.7829 130.34 75.5786 130.421 82.1289C130.485 87.2205 129.961 102.353 129.05 97.3431C128.42 93.8798 129.04 89.7938 129.464 86.3982C130.397 78.9313 131.784 71.4527 132.854 63.965C134.144 54.9296 134.613 46.1265 134.613 37.0297C134.613 35.6062 134.743 26.237 132.051 26.8351C129.498 27.4025 128.554 34.1273 128.041 35.8653C125.888 43.1603 123.418 50.3739 121.572 57.7551C118.581 69.7197 115.819 81.7703 111.688 93.4102C111.052 95.2039 108.317 105.376 105.737 105.519C102.205 105.716 101.419 93.9466 101.08 91.3402C99.9502 82.6571 100.35 73.7083 102.503 65.2329C104.935 55.6548 108.422 46.3041 111.999 37.1073C113.121 34.222 113.688 30.9766 115.259 28.2841C115.425 27.9996 114.703 32.7426 114.586 33.5366C113.892 38.2423 113.833 43.0395 113.344 47.7676C112.334 57.5301 110.508 67.1414 108.532 76.747C106.885 84.7508 105.123 92.7288 103.357 100.707C102.95 102.545 102.704 104.576 102.011 106.347C101.36 108.012 101.08 106.988 101.08 105.882C101.08 102.886 100.93 99.852 101.338 96.8774C103.015 84.6632 107.956 73.2041 111.766 61.5846C112.495 59.3604 114.534 56.035 114.534 53.6928C114.534 52.0211 113.697 56.9341 113.422 58.5831C112.332 65.1216 112.512 71.9031 112.025 78.5065C111.445 86.3605 110.258 94.089 109.282 101.897C108.889 105.044 108.997 104.45 108.997 102.001C108.997 97.3493 110.237 92.563 111.326 88.0801C113.483 79.2051 116.909 70.4081 120.9 62.2056C121.893 60.1644 121.26 62.9495 121.107 63.7063C120.107 68.6411 120.175 73.9373 120.175 78.9464C120.175 85.1907 120.175 91.4351 120.175 97.6795C120.175 99.1612 120.175 97.2464 120.175 96.8515C120.175 94.4275 121.46 78.7135 123.332 78.7135C123.595 78.7135 122.976 82.0194 122.97 82.3359C122.924 84.4727 122.97 86.6155 122.97 88.7528C122.97 89.8391 123.377 94.8234 124.263 91.0815C124.678 89.3311 125.833 75.766 127.058 75.919C127.548 75.9804 126.285 80.2138 126.23 80.473C125.543 83.7066 125.543 87.2953 125.997 90.564C126.075 91.1235 127.303 96.4699 127.653 94.5487C128.067 92.27 128.935 90.0404 129.024 87.7178C129.109 85.514 130.056 82.7427 130.525 80.5765C132.596 71.0192 135.079 60.7565 135.079 50.9243C135.079 49.0197 135.071 43.1102 132.051 43.1102C129.227 43.1102 126.896 51.0262 126.23 53.3565C125.781 54.9267 124.832 57.3169 124.832 54.1586C124.832 53.485 125.503 43.5659 123.539 46.1116C120.818 49.6382 119.353 54.0124 116.811 57.6516C113.988 61.694 111.775 66.8277 108.273 70.3301C106.277 72.3257 104.286 72.4519 101.545 72.4519" stroke="black" stroke-width="3" stroke-linecap="round"/>
<path d="M102.59 105.248C102.59 103.613 102.59 101.977 102.59 100.342C102.59 99.7773 102.513 98.0924 102.605 98.649C102.853 100.137 103.619 101.509 104.127 102.919C105.02 105.4 105.805 108.052 106.208 110.668C106.388 111.836 103.867 108.684 103.708 108.478C102.657 107.122 100.633 104.628 100.633 102.795C100.633 101.851 103.464 102.16 103.987 102.189C105.03 102.247 106.416 102.677 107.186 103.447C107.818 104.079 106.128 103.664 105.944 103.571" stroke="black" stroke-width="3" stroke-linecap="round"/>
<path d="M100.354 101.615C99.9529 101.515 99.4824 93.1073 100.136 92.4533C101.342 91.2476 102.59 98.1551 102.59 98.7577C102.59 99.9051 101.472 99.9794 101.472 98.7577C101.472 96.8428 102.091 96.5838 103.987 96.5838" stroke="black" stroke-width="3" stroke-linecap="round"/>
<path d="M110.136 77.0186C110.136 75.4917 110.253 80.0782 110.121 81.5993C110.065 82.2399 109.722 82.5849 109.08 82.6087C107.7 82.6598 107.328 81.1011 107 80C106.043 76.796 105.864 73.4033 105.959 70.0776C106.005 68.495 106.075 66.1832 107.776 65.4348C112.779 63.2335 114.707 69.7965 115.043 73.5093C115.439 77.8827 114.607 82.2059 113.071 86.2888C112.21 88.5782 111.095 91.3932 109.018 92.9037C106.196 94.956 103.236 90.9932 102.652 88.6335C101.351 83.3816 102.697 78.0602 106.503 74.2546C107.061 73.696 110.529 71.0966 111.254 72.5466" stroke="black" stroke-width="3" stroke-linecap="round"/>
</svg>
