<svg width="69" height="69" viewBox="0 0 69 69" fill="none" xmlns="http://www.w3.org/2000/svg">
<path d="M3.98195 65.1922C3.98195 60.3046 10.2727 55.4103 13.4953 52.2982C15.8602 50.0145 18.9798 48.5929 21.8195 47.1496C26.5681 44.736 31.0983 45.4483 36.0896 45.4483C45.5121 45.4483 56.7264 49.7818 62.0311 58.0289C63.2217 59.8798 64.5839 62.2127 65.9069 63.8938C66.2171 64.288 67.1231 66.0921 66.986 66.5801C66.7991 67.245 64.7009 66.401 64.2333 66.401C61.3843 66.401 58.4236 65.7055 55.6008 65.5951C52.542 65.4755 49.4572 65.5951 46.3957 65.5951C39.902 65.5951 33.1544 65.8221 26.5762 65.9981C23.4821 66.0808 20.3922 66.401 17.261 66.401C14.8296 66.401 11.9069 65.9386 9.53141 66.4905C8.4507 66.7416 2.56363 67.5469 2 66.401" stroke="black" stroke-width="3" stroke-linecap="round"/>
<path d="M7.94584 65.5951C7.64522 65.5569 6.02265 62.7498 5.78772 62.1925C5.3049 61.0474 7.87809 63.5078 8.82671 64.2968C10.6508 65.8139 11.7686 65.7908 10.126 63.379C9.56207 62.551 9.59884 61.1478 9.04693 60.4465C8.36211 59.5763 8.75762 59.9733 9.33321 60.5584C10.5065 61.7511 11.6585 64.3705 13.0989 65.1026C13.8477 65.4832 11.9353 60.3431 11.9097 59.6406C11.9022 59.4339 11.1469 57.2154 11.9097 57.6259C12.8736 58.1446 13.5159 59.975 14.3101 60.7823C15.5903 62.0836 19.7957 65.9129 17.6574 61.5657C16.7902 59.8026 16.2533 57.8765 15.8736 55.947C15.5098 54.0979 15.8871 54.3842 16.6664 55.9246C17.1649 56.91 21.905 64.2201 22.37 62.7074C22.9536 60.8091 20.8723 57.4368 20.6523 55.4993C20.6084 55.112 19.9434 48.4479 20.322 48.4479C21.1359 48.4479 23.0309 52.3667 23.4051 52.9026C25.2186 55.5002 27.0884 57.9752 29.2628 60.2674C29.8912 60.9298 30.4491 61.5095 30.0556 59.954C29.4851 57.6989 28.4838 55.7013 28.1617 53.3279C27.9475 51.7491 27.7653 50.2661 27.7653 48.6718C27.7653 48.4584 29.1163 51.0426 29.395 51.5147C30.901 54.0663 32.7393 56.5104 34.482 58.9019C34.782 59.3137 37.251 62.3442 37.2787 61.3867C37.3742 58.0855 36.4859 54.856 36.4859 51.5371C36.4859 50.1641 36.4692 47.212 37.6751 49.9701C38.9612 52.9117 40.9533 55.977 42.8282 58.5661C42.9869 58.7853 45.876 62.4632 45.9773 62.103C46.3986 60.6042 45.5928 58.4011 45.4047 56.9096C45.334 56.3486 45.3874 51.4523 45.5148 51.5819C46.7493 52.8368 47.6338 55.3227 48.6859 56.8201C49.5544 58.056 51.0997 61.2733 52.5397 61.9239C53.2688 62.2533 51.019 58.325 50.756 57.8498C49.5941 55.7501 48.8216 53.6724 48.3997 51.3132C48.1662 50.008 49.7092 51.6818 49.9632 51.94C51.7976 53.8048 53.1896 55.9828 55.4246 57.4468C58.5579 59.4994 57.4281 58.6661 56.2174 56.3276C56.0623 56.0281 54.9959 54.1905 55.5127 54.7158C56.7112 55.9342 57.7875 57.2121 59.0582 58.3423C60.6475 59.7559 61.5639 61.7323 62.8239 63.379C64.1669 65.1342 63.6255 65.1922 61.7668 65.1922C57.8639 65.1922 54.0305 64.3863 50.1614 64.3863C37.9336 64.3863 25.702 64.7892 13.4953 64.7892C10.9883 64.7892 8.47001 64.86 5.96389 64.7892C3.7864 64.7278 8.99871 63.8257 9.42129 63.7819C15.3949 63.1623 21.5856 63.1775 27.5892 63.1775C29.2041 63.1775 30.819 63.1775 32.4339 63.1775C33.7455 63.1775 32.2932 63.0652 31.8394 62.9313C27.4215 61.6275 23.2301 59.0129 19.331 56.5962C15.4766 54.2071 22.6174 56.4371 23.8014 56.8201C24.501 57.0463 28.7723 59.1899 27.9415 58.499C25.0779 56.1173 30.9594 58.1144 31.7293 58.4318C33.5418 59.1792 35.2988 60.0529 37.2126 60.5136C37.3225 60.5401 39.4426 60.7427 39.3928 60.6703C38.3093 59.0969 35.7372 58.114 35.7372 55.7903C35.7372 55.6457 41.4888 58.7783 42.1895 59.1257C42.7358 59.3966 46.1934 61.5399 45.4267 60.8942C43.2752 59.082 40.6089 55.8894 39.4368 53.2832C37.9808 50.0455 45.1317 57.4283 47.9592 59.5287C49.3211 60.5404 50.6614 61.5854 52.1654 62.3716C52.9054 62.7585 51.0397 60.9415 50.8441 60.6703C50.2955 59.91 49.3751 58.8799 49.0603 57.9841C48.7173 57.0079 51.676 58.8977 51.791 58.969C54.8093 60.8398 58.1064 62.1808 61.1943 63.9386C63.3746 65.1797 59.0788 60.9213 58.6838 60.3569C55.4866 55.7894 50.1721 52.9553 45.691 49.8806C45.0253 49.4238 41.0224 47.3331 41.0224 46.3437C41.0224 46.1936 43.0437 47.6018 42.2116 47.8435C40.4885 48.344 38.3318 47.0893 36.574 47.06C35.3309 47.0393 33.4262 46.7361 35.2968 47.6868C35.793 47.939 37.2347 49.0114 37.2347 49.6567C37.2347 50.7423 33.2598 48.9076 33.0065 48.7613C30.352 47.2282 36.3395 49.4776 31.9054 49.4776C30.4667 49.4776 26.392 48.6888 27.5892 49.5C27.9212 49.725 29.2106 51.4559 28.8664 51.8057C28.2272 52.4555 25.992 49.9254 25.2329 49.9254C25.1228 49.9254 25.8268 51.8897 24.5061 50.5969C20.7954 46.9646 23.5567 50.0461 22.9866 52.0744C22.8065 52.7152 20.8009 51.6815 20.2339 51.9848C18.6814 52.8154 18.4049 54.9528 16.4682 55.7232C14.6745 56.4367 13.3395 55.5872 12.3942 54.6263C10.9898 53.1987 16.8466 52.3203 17.1289 52.2982C21.6655 51.9435 26.2992 51.6073 30.8484 51.9848C33.3703 52.1941 35.5956 52.6373 37.9834 53.4175C39.5999 53.9457 36.8079 52.9588 36.3098 52.5444C35.3011 51.7055 38.0356 52.7704 38.4679 52.8802C39.8214 53.2242 41.2024 54.1364 40.5379 52.7011C40.2066 51.9854 42.1806 53.0727 42.4318 53.1936C42.6286 53.2884 43.0894 53.6859 43.2025 53.2832C43.2677 53.0512 43.0676 52.7011 43.0704 52.7011C43.2623 52.7011 40.07 51.1805 39.4368 50.8879C39.062 50.7148 37.405 49.8237 38.2697 50.5074C39.4385 51.4315 39.8186 53.2533 40.4498 54.5367C41.3472 56.3612 42.4318 57.8851 42.4318 59.954C42.4318 61.4535 41.9819 62.7746 40.2516 62.7746C36.7631 62.7746 32.4275 61.4406 29.1968 60.1555C27.9517 59.6602 27.369 58.7063 27.369 57.3573C27.369 56.1733 29.9765 56.7305 30.7163 56.7305C35.3848 56.7305 40.0534 56.7305 44.722 56.7305C45.0456 56.7305 49.0848 56.9351 48.1574 55.7232C46.3602 53.3743 43.3854 49.3887 40.4498 48.5822C37.517 47.7765 34.053 48.2688 31.0246 48.2688C29.907 48.2688 27.8391 48.2585 26.8184 47.8435C24.6989 46.9817 31.3404 47.06 33.6231 47.06C37.5933 47.06 41.6158 46.8703 45.5809 47.0824C46.9754 47.157 52.1458 47.7488 53.0462 49.4776C53.7363 50.8026 53.1969 52.6799 51.9452 53.1041" stroke="black" stroke-width="3" stroke-linecap="round"/>
<path d="M31.5528 40.4362C28.1853 40.4362 25.2057 40.369 21.9882 39.2788C19.2295 38.344 17.0188 36.5835 15.384 34.1345C13.9648 32.0086 13.7898 28.7482 13.7898 26.2638C13.7898 23.4282 13.7956 20.9512 14.5236 18.213C15.1152 15.9882 16.5324 13.3877 18.1167 11.7312C20.102 9.65552 22.3248 7.18718 24.7715 5.661C27.7335 3.81339 31.1415 2.06494 34.6905 2.00857C37.9971 1.95605 41.5793 2.09891 44.5462 3.75762C47.4695 5.39199 49.8033 8.38514 51.4793 11.2682C52.8267 13.5862 53.6094 15.9052 53.9843 18.5731C54.961 25.5227 54.9531 32.3175 49.0881 37.1953C46.2885 39.5237 41.9368 39.0473 38.5113 39.0473C36.0579 39.0473 33.9573 39.5103 31.5528 39.5103" stroke="black" stroke-width="3" stroke-linecap="round"/>
<path d="M16.5226 30.7136C18.6548 32.6839 20.4587 34.8181 22.1653 37.1953C23.4918 39.0432 20.2168 35.441 19.9259 35.0862C18.5276 33.3805 14.8643 27.8961 16.4088 29.4661C18.3384 31.4276 19.8058 33.6987 22.1653 35.2405C22.9555 35.7569 21.1658 32.9706 21.0519 32.7584C19.6416 30.1302 18.3493 27.6055 17.2058 24.8491C16.4713 23.0785 17.0453 23.299 18.0408 24.6176C19.7252 26.8486 21.9028 28.7627 24.0124 30.5721C24.1749 30.7114 25.6424 32.0444 25.3029 30.9708C24.3449 27.9411 22.8864 25.1732 22.1273 22.0583C21.7484 20.5033 21.4483 18.9335 21.2038 17.3513C21.1492 16.9982 20.6226 15.2397 20.9001 14.895C21.0457 14.714 21.907 16.1726 21.9123 16.181C22.8428 17.6815 24.0231 18.9723 25.1764 20.2964C26.8946 22.2692 28.5154 24.8001 30.604 26.3924C30.9003 26.6183 31.0898 26.706 31.0594 26.2123C30.9167 23.8901 29.9478 21.5084 29.478 19.2419C29.0369 17.1138 28.778 14.9799 28.643 12.8115C28.6384 12.7389 28.3271 11.079 28.858 11.5512C30.9375 13.4008 32.6081 15.7194 34.7031 17.5828C35.1364 17.9682 37.2966 20.101 37.9799 19.9621C38.5759 19.8409 37.0098 14.0355 36.9172 13.596C36.6282 12.2251 36.4334 10.8775 36.3352 9.48062C36.3131 9.16536 35.9648 7.91051 36.1581 7.61583C36.3846 7.27045 38.4768 10.0499 38.6125 10.2137C40.5653 12.5696 42.6434 14.7912 44.7233 17.0298C44.8131 17.1265 46.3372 19.1387 46.077 17.9815C45.4488 15.1875 43.9295 12.6054 43.0659 9.89216C43.0006 9.68699 42.2407 7.78012 42.9394 8.49035C43.4846 9.04455 44.0383 9.63289 44.5462 10.2265C46.7615 12.8162 48.6829 15.1811 50.4039 18.1616C50.6808 18.6411 51.1377 19.6623 51.1377 18.5088C51.1377 16.7529 50.9465 14.8469 50.4039 13.1716C50.0077 11.9485 49.4632 10.7969 49.0881 9.55778C48.7848 8.55566 49.0876 9.57595 49.2273 10.0336C50.697 14.8475 52.0278 19.449 52.8457 24.4376C53.0875 25.9124 53.1873 27.3178 53.1873 28.8102C53.1873 29.8487 51.7938 27.6575 51.5426 27.3698C50.0205 25.6268 48.4237 23.9327 46.9373 22.1612C46.6692 21.8416 45.5456 20.1678 45.0396 20.1678C44.943 20.1678 46.5959 28.1294 46.6843 28.733C46.7315 29.0549 47.4965 33.1657 46.6843 33.0156C45.7517 32.8433 44.5843 31.6255 43.7997 31.1251C41.7842 29.8396 39.7173 28.6453 37.5245 27.7042C35.8682 26.9933 36.3094 27.8299 36.7907 29.3246C37.0078 29.999 38.4836 35.3434 37.3473 35.3434C36.5175 35.3434 35.9153 35.1558 35.1459 34.829C33.1817 33.9945 31.0572 33.455 29.1743 32.4369C28.6994 32.1801 24.4651 29.222 25.227 31.4595C25.812 33.1773 26.0873 34.5885 26.0873 36.4494C26.0873 38.0997 24.1178 36.6869 23.3419 36.2694C23.1688 36.1762 20.723 35.1822 20.723 35.1119C20.723 34.9309 22.4748 35.6557 22.5701 35.6906C25.2348 36.6657 27.9517 37.2441 30.6419 38.1213C33.6274 39.0947 30.8754 33.4521 30.5407 32.3597C29.2666 28.2005 27.871 24.0378 26.2265 20.0135C25.8173 19.0121 24.3209 16.2117 25.0752 16.9784C26.2778 18.2009 27.192 19.7883 28.4152 21.0424C31.0521 23.7457 33.5777 26.5668 36.2972 29.1831C37.6559 30.4903 38.9867 31.9028 40.156 33.3886C41.1382 34.6366 40.1907 30.9705 40.156 30.8422C39.0055 26.5894 37.6162 22.4045 36.4744 18.1487C35.8607 15.8615 35.0303 13.5086 34.564 11.1911C34.4406 10.578 35.95 13.208 36.1454 13.506C38.4244 16.9809 40.753 20.4128 43.1292 23.8203C43.5365 24.4044 45.4264 27.8328 46.3554 27.8328C47.0326 27.8328 46.1636 23.0016 46.115 22.7142C45.6209 19.7949 45.0504 16.9086 44.1287 14.0976C43.9477 13.5456 43.7906 12.9988 43.534 12.4772C43.1839 11.7653 44.1813 13.927 44.5335 14.6377C44.8046 15.1849 49.3268 23.1008 49.9484 22.3284C50.381 21.791 50.2268 19.8061 50.2268 19.139C50.2268 18.92 50.2268 16.4958 50.2268 17.5443C50.2268 21.6379 51.4732 26.6681 49.5436 30.4821C47.6827 34.1602 43.9722 36.0379 39.8777 36.0379C36.5647 36.0379 33.7062 35.5054 31.2113 33.1571C29.3591 31.4138 28.1369 29.6913 28.1369 27.0097C28.1369 25.3651 29.1438 24.5595 27.6814 23.4859C27.0428 23.017 21.558 22.0163 21.558 22.7528C21.558 24.7394 23.8347 26.2344 23.3419 28.4887C23.2184 29.0535 21.8737 27.9779 21.7604 27.8842C19.9594 26.3948 18.0448 25.3624 16.1178 24.1032C15.4584 23.6723 15.7446 24.0207 15.9406 24.4761C16.1252 24.9049 16.5226 26.2173 16.5226 25.7494C16.5226 25.0598 15.671 24.0491 15.3966 23.4216C14.9613 22.4259 15.1562 21.1586 15.1562 20.0907C15.1562 19.3289 14.7008 18.7992 14.7008 18.0973C14.7008 16.3055 15.7278 18.2176 16.0672 18.9075C16.4313 19.6477 18.7023 21.9888 18.2939 19.6534C18.2309 19.2932 17.1192 15.0451 17.7751 15.5637C18.2966 15.976 20.394 19.2469 20.394 16.9269C20.394 16.5131 19.3097 12.2445 20.8495 12.9401C21.9387 13.4322 21.9882 13.4363 21.9882 12.0913C21.9882 10.1399 22.704 11.1399 23.3545 12.2971C23.8572 13.1913 23.5815 10.4352 23.6329 10.3423C23.8607 9.93066 25.0634 11.8652 25.518 10.6638C25.8707 9.73156 25.0471 8.02737 26.4289 8.02737C27.4159 8.02737 27.9527 8.21383 28.314 7.15284C28.7215 5.95628 29.48 7.33289 30.1865 7.33289C30.8106 7.33289 30.4173 6.52177 30.7685 6.41978C31.5315 6.19817 32.7302 6.99924 33.4506 7.20428C34.4 7.4745 34.3041 6.49324 35.3231 6.86991C35.7546 7.02941 36.3013 7.53016 36.7907 7.28145C37.25 7.048 37.1258 6.86991 37.7522 6.86991C38.1002 6.86991 38.6333 6.96746 38.9668 6.84419C39.6611 6.58753 39.6265 5.62851 40.2066 5.30091C41.2955 4.68596 42.5696 7.2728 43.7491 6.50981C45.06 5.66185 45.8852 6.68975 46.7096 7.68013C46.9349 7.95077 47.6685 8.46325 47.6205 8.90189C47.5967 9.1201 45.1355 8.28882 44.9384 8.20742C39.8556 6.10843 35.4847 2.38746 29.6424 4.19489C28.0569 4.68541 31.7293 4.55499 32.2234 4.55499C32.9997 4.55499 32.7709 4.49981 32.1854 4.83792C30.9753 5.53686 30.2197 6.11892 30.0093 7.61583C29.8421 8.80569 29.9955 10.1597 30.5281 11.2425C30.7653 11.7248 31.2755 11.96 31.5023 11.3197C31.7641 10.5803 31.6318 10.6793 31.9198 11.6927C32.8563 14.9879 33.7126 18.2695 34.3868 21.6339C34.6795 23.0942 34.9174 24.2625 33.7796 22.277C32.771 20.5171 32.0528 18.6851 30.7811 17.0941C30.0967 16.2379 30.9148 18.6739 30.9709 18.8303C31.5187 20.3577 32.9772 24.9492 32.818 23.3315C32.7392 22.5305 32.2368 21.6208 31.9577 20.888C31.3598 19.318 30.8036 17.7126 30.0853 16.1939C29.8956 15.7928 29.0762 13.4456 29.0478 14.9721C29.0252 16.1884 29.0818 17.3382 29.2629 18.5345C29.3995 19.437 28.4391 16.5786 28.352 16.3482C27.6831 14.5805 26.8764 12.7126 25.9102 11.0882C25.4091 10.2459 25.7026 13.1284 25.7584 13.4931C26.0045 15.1015 26.1818 16.7086 26.0873 18.3416C26.0864 18.3583 24.8634 15.9465 24.4932 15.4865C23.7352 14.5448 22.8229 15.0401 22.5701 16.091C21.9281 18.761 21.9948 21.6011 21.5327 24.309C20.9579 27.677 20.6443 22.6526 19.1415 23.3315C18.3383 23.6944 18.3534 26.116 18.3445 26.8296C18.3351 27.5821 18.3445 29.4319 18.3445 27.5113C18.3445 25.7005 17.9713 23.2415 18.7999 21.5568C19.4319 20.272 20.7934 24.7212 20.9001 24.9777C21.8129 27.1722 23.0593 30.1473 24.9234 31.7038C26.2381 32.8017 25.8596 29.1553 25.8596 28.5015C25.8596 28.2577 25.8618 25.3719 26.2138 26.3152C26.5177 27.1296 26.6212 31.0983 27.5549 31.3695C27.7625 31.4297 27.5192 27.2373 27.4537 26.8296C27.3987 26.4872 27.0304 23.684 27.2513 25.3121C27.5352 27.4048 29.507 29.5174 31.3504 30.3277C32.4442 30.8085 32.9022 30.1018 33.6024 29.4275C34.5116 28.5519 34.7558 32.2416 35.2472 32.5141C35.6091 32.7148 36.5739 29.1097 36.6641 28.7845C36.9005 27.9326 37.2461 27.0366 37.2461 28.3986C37.2461 30.4414 37.916 27.2204 37.9799 26.8039C38.4016 24.0577 38.6256 20.9016 39.6246 18.2902C39.7301 18.0144 39.7556 20.1129 39.8018 20.4765C39.9912 21.9688 40.1652 21.6203 40.7127 20.5279C40.8062 20.3414 42.012 18.3616 42.3701 18.766C43.1867 19.6884 42.3206 22.2316 42.0285 23.2544C41.4979 25.1122 41.3069 26.331 39.6753 27.7685C38.8155 28.5259 38.9675 26.5944 39.65 28.18C40.4868 30.1245 42.3495 31.293 43.7491 32.797C44.4893 33.5924 45.277 35.1664 45.2167 36.2694C45.121 38.0198 42.5467 38.657 41.2314 38.2113C40.5559 37.9824 39.69 36.9018 39.068 36.8352C38.6599 36.7916 37.701 37.2588 37.36 37.4397C36.6045 37.8404 35.793 38.2935 34.9688 38.5328C34.5148 38.6647 33.7666 38.6563 33.3747 38.8672C32.8792 39.1339 32.9715 40.5412 33.8302 40.1533C34.5382 39.8334 35.2611 40.0981 36.0063 39.9604C36.8589 39.8028 37.6727 39.4782 38.4986 39.2916C39.2279 39.1269 39.7693 38.4079 40.4344 38.0699C41.3791 37.5897 42.4443 37.4984 43.3949 37.0153C43.7288 36.8455 43.0775 37.1953 43.4328 37.1953C44.0947 37.1953 44.7356 37.1841 45.3306 36.8481C46.3337 36.2816 47.6269 36.4751 48.6327 35.7935C49.9232 34.919 49.5436 33.2163 49.5436 31.8196C49.5436 30.6877 49.6653 29.485 49.3159 28.3986C48.2827 25.1861 45.603 22.976 44.1034 19.9749C43.6589 19.0855 42.953 16.1586 41.9779 15.718C40.9459 15.2518 40.1438 14.9083 39.3084 14.059C38.9889 13.7342 37.8781 11.8438 37.9293 13.3002C37.9619 14.2273 38.5843 15.0448 39.068 15.7823C40.2676 17.6115 41.5698 19.3493 42.7117 21.2224C44.8284 24.6945 46.3554 28.1025 46.3554 32.2183C46.3554 33.6904 43.5021 30.74 43.3063 30.4949C42.5021 29.4888 41.6982 28.4795 40.8898 27.4727C40.7036 27.2407 38.2968 24.5587 39.4475 25.0806C41.9309 26.2069 44.3331 27.9988 46.5198 29.6333C47.5652 30.4147 47.1317 30.4751 46.1276 30.1477C42.5176 28.9707 38.9911 30.2445 35.3104 30.4821C32.1241 30.6877 28.9634 30.7136 25.771 30.7136C24.899 30.7136 25.7891 29.915 26.2138 29.7104C26.3089 29.6647 26.4114 30.4074 26.4416 30.4949C26.6005 30.9564 26.8187 31.3991 26.9476 31.871C27.3052 33.1794 28.2872 34.2757 28.934 35.4592C29.2324 36.0053 25.763 35.873 25.1764 35.5749" stroke="black" stroke-width="3" stroke-linecap="round"/>
</svg>
