<svg width="150" height="138" viewBox="0 0 150 138" fill="none" xmlns="http://www.w3.org/2000/svg">
<path d="M57.9157 132.234C58.074 130.968 60.053 134.775 58.8885 133.063C57.494 131.012 53.2437 124.968 54.9973 126.722C56.7488 128.473 57.8657 131.342 58.9605 133.531C59.2912 134.193 59.4889 134.801 59.7892 135.477C60.3213 136.674 59.4349 136.52 60.8341 136.45C65.0614 136.238 69.4011 135.801 73.6245 135.801C76.6569 135.801 79.6894 135.801 82.7219 135.801C83.0704 135.801 84.7035 135.999 84.8116 135.621C85.4051 133.544 84.8296 130.51 84.8296 128.361C84.8296 125.393 85.1539 116.493 85.1539 119.462C85.1539 122.137 85.0413 124.712 84.6675 127.37C84.3683 129.497 84.0331 131.621 83.5325 133.711C83.3877 134.316 83.3317 135.586 82.812 136.053C82.2522 136.557 79.539 136.135 78.9208 136.125C74.8919 136.061 70.7689 135.827 66.7429 135.549C65.049 135.432 63.1933 135.729 61.5366 135.315C61.2252 135.237 60.4565 134.888 61.2304 134.828C63.3775 134.663 65.4541 134.504 67.6436 134.504C68.5333 134.504 71.81 134.438 71.787 134.432C67.8712 133.352 63.4283 134.789 59.6091 133.603C54.6409 132.061 80.2855 131.586 75.0837 131.586C72.1117 131.586 75.6527 131.477 76.6689 131.604C76.9511 131.639 78.0675 132.091 78.7947 132.252C80.8435 132.708 70.6069 133.856 72.7057 133.856C74.6219 133.856 76.9638 134.252 78.8307 133.837C79.9649 133.585 78.9928 130.248 78.9928 129.514C78.9928 127.586 78.9928 129.583 78.9928 130.289" stroke="black" stroke-width="3" stroke-linecap="round"/>
<path d="M115.879 121.989C114.531 121.989 118.564 122.299 119.913 122.299C120.502 122.299 120.869 121.088 121.171 120.748C122.493 119.261 123.585 117.567 124.894 116.094C126.399 114.402 127.714 112.415 129.221 110.819C130.973 108.964 127.758 112.799 127.342 113.319C125.978 115.024 124.494 116.605 123.085 118.266C122.209 119.297 120.258 122.532 120.258 121.179C120.258 118.851 124.298 115.323 125.808 113.991C126.745 113.164 129.277 111.023 128.566 109.423C128.363 108.966 127.57 108.541 127.221 108.199C125.997 106.997 124.807 105.907 123.395 104.924C122.073 104.004 120.196 102.867 119.292 101.511" stroke="black" stroke-width="3" stroke-linecap="round"/>
<path d="M141.632 84.1363C142.71 84.1363 143.661 84.1106 144.596 83.8433C145.646 83.5435 145.121 78.9148 144.976 77.9309C144.562 75.1419 143.02 72.9679 142.873 70.1742C142.815 69.0794 143.068 70.9768 143.2 71.5704C143.569 73.2317 145.129 74.6975 145.596 76.3796C146.048 78.0044 146.639 79.5824 147.216 81.1715C147.433 81.768 147.367 83.2808 147.837 83.5158" stroke="black" stroke-width="3" stroke-linecap="round"/>
<path d="M109.011 20.2874C109.827 20.2874 110.45 19.7344 110.998 19.202C111.219 18.9866 111.637 18.5935 111.862 18.9628C112.373 19.7984 113.721 20.3045 114.511 20.7841C116.75 22.1427 119.051 23.327 121.189 24.8497C123.922 26.7952 125.895 28.9937 128.051 31.5092C129.137 32.7755 130.373 33.943 131.28 35.3541C131.319 35.4145 131.894 36.1185 131.758 36.1727C131.1 36.4361 130.366 36.5606 129.707 36.8534C128.698 37.3017 127.583 37.9989 126.828 38.8126C126.647 39.0072 126.508 39.337 126.313 39.4933C126.106 39.6589 125.186 41.0792 125.338 41.1398C126.091 41.4412 128.138 39.552 128.621 39.1622C129.306 38.6101 130.632 37.8078 131.031 37.0098" stroke="black" stroke-width="3" stroke-linecap="round"/>
<path d="M116.876 98.5322C115.898 98.4344 115.055 97.8067 114.172 97.4205C112.563 96.7165 116.18 100.306 116.471 100.654C118.51 103.09 120.596 105.507 122.585 107.981C123.923 109.644 123.311 109.175 122.232 107.88C120.044 105.255 118.122 102.414 115.865 99.846C114.479 98.2689 114.444 98.9359 115.309 100.351C115.601 100.829 116.754 101.882 116.674 102.524C116.668 102.57 113.08 100.487 112.783 100.25C112.506 100.03 110.067 98.0534 110.357 98.6333C111.448 100.814 113.21 102.779 114.779 104.621C115.506 105.475 116.81 107.451 115.41 105.152C113.708 102.354 111.679 99.152 110.711 96.0057C110.151 94.1854 115.145 99.086 115.511 99.467C117.944 101.997 120.129 105.108 122.914 107.274C124.13 108.22 121.665 104.454 120.969 103.08C120.81 102.767 119.22 99.136 118.796 99.1891C118.463 99.2307 120.059 106.404 120.059 107.324C120.059 107.571 119.604 106.46 119.604 107.173C119.604 108.208 120.453 109.026 120.867 109.901C121.304 110.823 122.143 111.956 122.99 113.287C123.971 114.829 122.788 111.709 122.788 111.468C122.788 110.731 122.039 108.749 122.56 109.27C122.762 109.472 124.171 111.009 124.051 111.165C123.125 112.355 122.072 113.314 121.221 114.651C120.731 115.422 120.321 116.819 119.604 117.178" stroke="black" stroke-width="3" stroke-linecap="round"/>
<path d="M117.785 51.2366C112.88 51.2366 130.956 36.7019 127.487 40.1706C123.893 43.764 120.136 47.197 116.699 50.9334C116.684 50.9494 114.661 52.7463 115.158 51.6913C115.61 50.729 117.089 49.7744 117.785 48.9627" stroke="black" stroke-width="3" stroke-linecap="round"/>
<path d="M85.9516 117.632C85.9516 120.731 86.4018 124.415 85.2695 127.359C84.8915 128.342 85.0421 127.423 85.0421 126.904C85.0421 125.026 85.0421 123.148 85.0421 121.27C85.0421 120.541 85.4968 113.497 85.4968 116.824C85.4968 119.626 85.4959 122.385 85.0421 125.161C84.7368 127.029 83.7819 128.947 83.6778 130.821C83.4849 134.292 83.6711 123.824 84.3347 120.411C84.4083 120.033 84.9846 116.92 85.0168 117.001C85.3417 117.813 85.0082 119.378 84.7894 120.159C84.5684 120.948 82.8326 125.702 82.7935 125.565C82.0073 122.814 84.1547 117.594 84.8147 114.954C85.1506 113.611 85.4289 112.23 85.8505 110.912C86.1003 110.132 85.9521 111.469 86.0527 111.821C86.8571 114.637 86.4064 117.9 86.4064 120.816C86.4064 122.702 86.4064 117.043 86.4064 115.156C86.4064 113.027 86.4064 112.259 86.4064 114.676C86.4064 117.555 85.9516 120.358 85.9516 123.09C85.9516 124.377 85.2664 128.889 84.1325 129.456" stroke="black" stroke-width="3" stroke-linecap="round"/>
<path d="M54.9327 118.137C54.9327 120.026 54.9327 121.915 54.9327 123.804C54.9327 124.028 55.0726 125.212 54.8609 124.45C54.4266 122.886 53.6225 121.451 53.0675 119.93C51.6419 116.026 50.3107 112.089 48.8707 108.201C48.0687 106.036 50.5948 112.487 51.3816 114.658C52.2008 116.918 53.069 119.072 54.1435 121.222C54.4114 121.757 54.5092 123.259 54.9327 122.836C55.5221 122.246 53.6643 118.216 53.3903 117.635C52.1094 114.919 53.9561 118.628 54.287 119.428C54.9425 121.012 55.7286 123.94 57.1925 124.916" stroke="black" stroke-width="3" stroke-linecap="round"/>
<path d="M56.224 119.751C56.1719 119.23 55.2555 117.229 55.2555 117.653C55.2555 120.079 56.7102 123.131 57.2642 125.49C57.6057 126.945 57.8928 128.559 58.4838 129.938C58.7202 130.49 57.4533 128.038 57.318 127.732C56.4231 125.709 55.753 123.613 54.9327 121.562C54.5753 120.669 53.9642 119.769 53.9642 118.783" stroke="black" stroke-width="3" stroke-linecap="round"/>
<path d="M51.3816 121.365C51.3816 120.672 51.3816 119.978 51.3816 119.285C51.3816 117.58 54.3548 121.714 54.6637 122.1C56.8453 124.828 59.1075 127.5 61.2457 130.261C61.3082 130.341 62.5307 131.986 62.2859 131.301C61.6607 129.55 60.9433 127.862 60.4387 126.064C60.2243 125.301 58.9032 121.986 59.6316 121.258C60.1999 120.689 62.8035 124.317 63.0033 124.916" stroke="black" stroke-width="3" stroke-linecap="round"/>
<path d="M63.0033 125.239C62.8748 121.253 61.5091 117.413 60.8153 113.51C60.633 112.485 61.8674 113.323 62.2501 113.581C64.5127 115.109 66.591 117.148 68.2761 119.285C69.4993 120.836 72.5814 125.649 68.4914 125.418C66.8084 125.324 65.4411 123.837 64.7609 122.405C64.6098 122.087 64.024 119.255 64.1332 119.321C64.5193 119.552 64.0561 120.008 63.7925 120.056C63.1097 120.18 62.4132 119.808 61.8914 119.41C60.1499 118.083 61.3275 116.468 63.2544 117.563C65.7825 118.999 62.338 119.677 61.0664 119.823C60.223 119.919 59.4554 120.077 58.8066 119.428C58.1176 118.739 60.9722 119.461 61.1202 119.518C63.0849 120.274 65.0771 121.6 66.8055 122.8C68.416 123.918 67.519 124.163 65.9805 124.271C63.0225 124.478 54.2337 125.067 57.0848 124.253C59.2082 123.646 65.9111 124.558 63.7028 124.558C62.2908 124.558 56.47 119.798 57.874 119.249C59.4296 118.64 61.8631 119.105 63.5055 119.105C63.7018 119.105 66.0606 119.248 65.6935 119.356C64.5118 119.707 62.9716 119.312 61.7838 119.177C61.0586 119.094 59.4613 118.409 60.7256 118.962C63.2209 120.054 57.7121 120.008 57.0848 119.877C56.8858 119.835 54.6896 119.19 55.0044 118.639C55.3165 118.093 57.5929 118.194 58.1609 118.137" stroke="black" stroke-width="3" stroke-linecap="round"/>
<path d="M59.4522 121.365C57.6529 119.366 55.9848 116.507 55.0044 114.012C53.9224 111.258 56.9363 119.612 57.6767 122.477C58.3152 124.948 58.766 127.364 59.2011 129.866C59.4188 131.118 58.7146 129.327 58.6272 129.041C57.4297 125.122 56.5681 121.128 55.5783 117.168" stroke="black" stroke-width="3" stroke-linecap="round"/>
<path d="M55.5783 117.168C55.5783 119.163 55.5214 121.165 55.5783 123.159C55.5836 123.343 55.8653 123.838 55.8653 123.428C55.8653 122.133 55.2659 120.507 55.0761 119.213C54.6152 116.07 53.9642 112.825 53.9642 109.636C53.9642 108.849 55.0221 110.801 55.5783 111.358" stroke="black" stroke-width="3" stroke-linecap="round"/>
<path d="M70.7511 119.105C70.9537 117.283 74.8602 118.032 75.737 118.729C79.3197 121.577 78.0101 127.898 73.4055 128.575C70.6495 128.98 68.3959 128.397 67.2897 125.705C66.2262 123.117 66.5433 120.979 69.1011 119.518C69.8727 119.077 79.5975 116.538 78.212 120.002C77.6872 121.314 73.248 122.14 72.2577 121.15C70.1444 119.037 76.7812 118.863 77.6381 119.177C78.7482 119.585 79.3253 120.888 78.6962 121.957C77.8418 123.41 75.3285 123.591 73.8539 123.428C72.6379 123.293 70.7511 122.866 70.7511 121.365" stroke="black" stroke-width="3" stroke-linecap="round"/>
<path d="M70.7511 121.365C68.0905 121.365 65.6221 119.629 63.0033 119.105" stroke="black" stroke-width="3" stroke-linecap="round"/>
<path d="M59.1294 125.239C59.0106 124.526 58.613 123.852 58.3403 123.194C57.3602 120.831 56.6033 118.412 55.9191 115.949C55.796 115.506 54.0206 110.396 55.0044 112.326C56.6173 115.49 59.1294 119.314 59.1294 122.979" stroke="black" stroke-width="3" stroke-linecap="round"/>
<path d="M59.1294 122.979C58.9094 117.039 57.9193 111.083 57.1924 105.188C57.0732 104.221 56.8696 101.308 56.8696 102.283C56.8696 103.726 57.1595 105.144 57.3539 106.569C57.5286 107.85 58.8668 113.694 57.6229 114.711C55.661 116.317 49.7328 109.696 48.6196 108.596C48.1088 108.09 45.4158 105.22 47.5794 106.981C48.0075 107.33 50.7454 109.834 48.5838 108.865C41.5697 105.72 50.0354 108.507 49.1218 109.421" stroke="black" stroke-width="3" stroke-linecap="round"/>
<path d="M49.1218 96.1847C48.9768 96.0397 46.8479 94.2079 47.7229 93.9967C49.5955 93.5447 53.9981 96.3183 55.112 97.7271C56.0373 98.8973 53.0606 98.0956 52.8881 98.0499C50.596 97.4432 48.4123 96.4662 46.3598 95.288C45.6936 94.9055 42.6636 93.6021 44.6022 93.6021" stroke="black" stroke-width="3" stroke-linecap="round"/>
<path d="M48.799 97.1532C50.5365 97.327 55.2693 99.2022 53.5338 99.395C51.8153 99.586 50.1754 98.7935 48.6196 98.1934C46.0571 97.205 48.7755 98.2653 49.7675 98.8391C50.173 99.0736 53.937 101.416 52.655 100.758C50.3097 99.5538 47.9583 98.3202 45.6604 97.0277C45.3174 96.8347 49.6021 98.6098 49.1218 99.0902" stroke="black" stroke-width="3" stroke-linecap="round"/>
<path d="M48.799 99.0902C46.4707 98.4382 44.5534 97.1392 42.5935 95.7543C41.9791 95.3201 39.1138 93.9358 38.8272 93.1717C38.7223 92.8918 39.4051 93.3267 39.6881 93.4228C41.4948 94.0361 43.2712 94.7154 45.0327 95.4494C48.7887 97.0144 52.4916 98.7012 56.2598 100.238C57.4283 100.715 60.9114 101.924 59.6495 101.924C58.6646 101.924 57.3204 101.088 56.4392 100.704C55.5309 100.308 54.7663 99.9477 53.9642 99.413" stroke="black" stroke-width="3" stroke-linecap="round"/>
<path d="M128.507 80.7796C128.693 82.2619 134.309 80.1566 128.338 81.3508C128.049 81.4087 125.998 81.5135 126.688 81.5411C128.333 81.6069 129.949 82.296 131.553 82.5988C131.697 82.6258 134.4 83.0917 133.605 83.4449C132.537 83.9194 129.312 83.9178 130.284 84.5659C130.929 84.9961 132.218 84.152 132.844 84.7775C132.94 84.8734 132.388 85.0637 132.484 84.9678C132.72 84.7322 133.521 84.5551 133.838 84.3967C134.219 84.2059 135.873 83.8256 135.276 83.8256C134.345 83.8256 131.826 84.4837 132.484 83.8256C132.947 83.3625 134.374 83.4612 134.726 82.8737C134.814 82.7278 131.735 82.0685 131.405 81.9219C131.317 81.8828 135.21 81.1737 136.038 81.1604C136.496 81.153 137.871 81.1604 137.413 81.1604C137.166 81.1604 136.425 81.1604 136.672 81.1604C139.398 81.1604 138.636 81.5411 136.503 81.5411" stroke="black" stroke-width="3" stroke-linecap="round"/>
<path d="M142.976 81.5411C142.976 80.5636 142.496 79.2384 142.024 78.3894C141.552 77.5408 142.356 80.3041 142.595 81.245C142.954 82.658 143.356 84.3875 143.356 85.8562C143.356 87.3516 142.568 82.9707 142.13 81.5411C141.602 79.8226 140.311 74.6669 140.311 76.4645C140.311 77.0108 140.345 77.5693 140.311 78.1144C140.284 78.5406 139.459 75.8073 139.359 75.428C138.848 73.4978 137.247 67.8021 138.216 69.5476C139.16 71.2454 140.015 72.9222 141.051 74.4762C141.857 75.6847 141.072 68.6663 141.072 70.1188C141.072 71.8374 141.872 74.3052 142.68 75.8299C143.677 77.7146 141.556 71.714 141.093 69.6322C140.598 67.4023 141.919 74.1265 142.405 76.3588C142.976 78.9854 142.912 77.4038 142.045 76.0415C141.261 74.8093 140.691 70.4139 140.691 71.8744C140.691 73.3084 140.08 74.9114 139.464 76.2107C138.542 78.1574 136.265 79.0159 134.43 79.9335C132.966 80.6657 131.447 81.4989 129.861 81.9219C128.796 82.2059 128.322 82.3026 129.671 82.3026C132.397 82.3026 134.773 82.3717 137.265 81.5411" stroke="black" stroke-width="3" stroke-linecap="round"/>
<path d="M114.335 93.9771C115.617 93.9771 116.323 94.7007 117.192 95.5696C117.481 95.8583 118.991 97.3737 118.129 96.2956C117.571 95.5985 116.468 95.2673 115.81 94.6094C113.233 92.0322 117.901 95.7759 118.55 96.3659C120.901 98.4999 123.111 100.938 125.295 103.251C125.611 103.585 122.447 100.434 121.712 99.6447C120.955 98.8313 118.019 94.1644 116.864 94.1644C116.323 94.1644 117.438 95.0835 117.754 95.5228C118.734 96.883 119.779 98.2244 120.635 99.6681C120.872 100.069 122.664 103.57 121.267 102.174C120.922 101.828 118.977 99.691 119.909 100.909C121.393 102.85 122.615 104.787 124.359 106.53C125.947 108.119 124.303 106.051 123.843 105.383C123.399 104.737 122.391 102.748 122.391 103.532C122.391 105.789 124.44 109.095 125.295 111.167C126.443 113.945 124.259 109.698 123.82 108.966C123.291 108.084 122.849 107.548 122.438 106.624C122.257 106.217 122.102 104.769 122.86 105.031C124.663 105.656 126.053 108.116 127.567 109.294C127.973 109.61 126.73 107.577 126.56 107.28C126.109 106.489 126.56 107.183 126.56 106.202C126.56 104.349 126.139 105.99 126.139 107.045C126.139 109.312 125.661 110.578 124.686 112.526C123.635 114.629 122.113 117.394 120.447 119.06C119.782 119.725 119.129 120.574 118.363 121.121C116.987 122.104 120.153 118.25 121.08 116.835C122.264 115.028 124.011 113.921 125.295 112.315C125.698 111.812 126.354 111.592 126.724 111.074C127.452 110.054 124.822 112.725 124.031 113.697C122.115 116.051 119.841 117.98 117.707 120.114" stroke="black" stroke-width="3" stroke-linecap="round"/>
<path d="M97.4282 30.187C98.802 30.187 102.517 29.3963 101.545 30.3677C99.6103 32.3029 96.2661 33.3602 93.8331 34.5051C93.5434 34.6414 90.5129 35.9675 91.5435 35.2081C93.5859 33.7031 95.7086 32.2797 97.8299 30.8899C100.983 28.8242 104.302 26.823 107.691 25.1659C108.714 24.6658 110.118 23.6797 111.306 23.6797C111.596 23.6797 110.704 23.6362 110.443 23.76C109.18 24.3583 107.964 25.2362 106.747 25.9291C104.739 27.0733 102.951 28.5295 101.043 29.8255C100.232 30.3769 98.8862 31.1521 100.481 30.0263C103.608 27.819 106.717 25.4718 110.363 24.1215C111.846 23.5721 111.599 23.4585 111.527 22.2336C111.357 19.3428 106.748 24.1409 106.285 24.5634C104.083 26.5746 101.484 28.0909 99.0751 29.8255C97.8646 30.697 96.7965 31.8679 95.4399 32.5168C94.7295 32.8565 92.9259 34.2564 93.331 33.5812C93.7441 32.8927 94.6313 32.61 95.2591 32.1954C97.2768 30.863 99.3281 29.6255 101.405 28.3794C103.792 26.9474 107.962 25.4675 109.439 22.9566C111.32 19.7581 118.824 26.771 119.481 28.7409" stroke="black" stroke-width="3" stroke-linecap="round"/>
<path d="M13.9177 33.0791C14.9774 33.0791 15.8906 33.5254 16.7295 34.1637C18.1767 35.2648 18.7843 35.7767 17.1512 34.1436C15.7181 32.7105 14.0873 31.5633 12.6323 30.187C11.5589 29.1716 11.036 28.4706 12.8733 29.5041C14.3865 30.3553 15.9824 31.3917 17.3119 32.5167C18.1471 33.2234 17.8944 32.394 17.8944 31.633C17.8944 30.9671 18.0075 30.3312 17.1311 30.7694C15.9283 31.3708 12.5979 33.6644 13.7168 32.9184C15.4974 31.7314 17.3491 30.653 19.1797 29.5443C21.6922 28.0226 20.1543 29.225 18.8182 30.187C18.4822 30.4289 16.7335 31.5833 17.091 32.0749C18.0069 33.3343 18.16 35.3911 18.7981 36.8148C19.3907 38.1366 19.995 38.8824 18.8986 37.1361C18.637 36.7196 16.7319 34.6506 17.9747 36.0315C18.9524 37.1179 22.8401 39.5918 22.9958 40.9923C23.0019 41.0477 20.2857 38.2239 20.3446 38.2408C21.8056 38.6582 23.6217 40.8067 24.8837 41.7154C26.7328 43.0467 23.8696 40.8619 23.3975 40.3898C21.1771 38.1694 24.7265 41.7189 25.2653 42.2576C25.7712 42.7635 26.264 43.2721 26.852 43.6836C26.904 43.7201 25.5232 42.7059 25.205 42.3982C24.6327 41.8447 23.2993 40.0074 23.4376 40.7915C23.6072 41.7526 25.463 42.9231 26.1289 43.4828C26.7221 43.9813 30.9669 47.4976 28.3583 45.1899C28.1074 44.968 25.7566 42.7847 26.6511 43.6435C27.6958 44.6464 28.0343 45.2238 26.5909 43.9246C26.1707 43.5465 24.5004 41.8082 25.5465 43.4426C26.4191 44.8061 29.6436 48.4435 28.4989 47.2988C26.5544 45.3543 24.7166 43.2968 22.8552 41.2735C21.2442 39.5224 23.9339 42.019 24.3213 42.4786C24.7018 42.9298 26.5316 44.8434 25.0644 43.5229C23.9334 42.505 20.5942 39.3941 21.6702 40.4701C23.3431 42.1431 24.9182 43.7589 26.8921 45.1297C27.6697 45.6697 29.4232 46.0143 29.8244 46.8168" stroke="black" stroke-width="3" stroke-linecap="round"/>
<path d="M13.7186 80.3676C12.5358 80.2493 11.5302 79.5614 10.3948 79.3212C9.90078 79.2167 8.492 78.9827 9.73314 78.9827C12.754 78.9827 15.7758 78.9602 18.7965 78.9827C19.33 78.9867 24.3794 79.6417 22.2126 79.5213C17.2223 79.244 12.515 76.6215 7.80967 75.1665C7.62889 75.1106 3.42169 73.6199 4.47052 73.4585C6.84976 73.0925 9.75394 73.8689 11.9951 74.551C13.6069 75.0416 15.039 76.056 16.6115 76.5053C20.3637 77.5773 8.81913 77.0438 4.91677 77.0438C3.62024 77.0438 7.40861 77.7632 8.64061 78.1672C12.4177 79.4056 16.3024 80.4344 20.0276 81.8141C22.4344 82.7055 10.1072 79.6283 12.6722 79.5367C15.8541 79.423 19.1198 79.4384 22.2896 79.6905C24.7725 79.8881 27.7332 79.9907 30.0604 80.9216" stroke="black" stroke-width="3" stroke-linecap="round"/>
<path d="M16.4884 81.7525C17.6835 81.7525 18.8786 81.7525 20.0737 81.7525C21.1649 81.7525 22.1392 82.2673 23.1974 82.3065C24.2508 82.3455 24.9443 82.4175 26.0442 82.3218C27.1247 82.2279 28.1365 82.0295 29.2294 82.0295" stroke="black" stroke-width="3" stroke-linecap="round"/>
<path d="M90.8743 113.497C90.4697 113.497 88.4468 113.56 89.7742 113.486C91.5616 113.387 93.3192 112.92 95.0159 112.375C95.2464 112.301 98.1114 111.428 96.7631 111.599C95.0449 111.816 93.3699 112.544 91.7803 113.195C91.293 113.395 88.9527 114.447 90.6802 113.691C90.8762 113.606 92.7595 112.876 91.9421 113.044C89.9677 113.451 88.1029 114.222 86.1612 114.737C86.0369 114.77 84.4301 115.159 84.9425 115.007C86.4654 114.554 87.9695 113.838 89.4723 113.303C90.8785 112.803 92.2325 112.116 93.6569 111.674C94.9064 111.287 93.0909 111.683 92.7618 111.771C91.1858 112.196 89.7083 112.737 88.2427 113.454C87.7943 113.673 87.3321 113.861 86.8838 114.08C86.7537 114.143 86.3932 114.171 86.4955 114.274C86.803 114.581 88.5861 113.816 88.8899 113.734C89.8574 113.475 90.8561 113.25 91.845 113.109" stroke="black" stroke-width="3" stroke-linecap="round"/>
<path d="M56.7529 25.2677C56.7529 19.4598 55.1334 10.4934 56.7931 4.6847C57.2453 3.10202 74.5466 3.55906 76.5319 3.55906C81.2019 3.55906 80.3876 4.40785 81.7178 8.66462C82.7535 11.9788 84.2505 16.4153 84.2505 19.8808C84.2505 21.3933 84.2068 22.4558 84.8133 23.8205C85.097 24.4587 84.7376 26.4171 85.1349 26.1522C86.0452 25.5453 95.8285 32.9074 95.8285 34.6748" stroke="black" stroke-width="3" stroke-linecap="round"/>
<path d="M95.8285 36.8457C98.6038 34.3787 102.012 32.8805 104.874 30.6547C107.609 28.5274 112.611 26.7221 114.643 24.1823C115.087 23.6264 124.164 32.9394 125.336 34.112C128.004 36.7798 124.208 37.9751 122.602 40.7854C121.188 43.2604 118.163 45.0165 116.814 47.3784C114.745 50.9983 113.003 50.7763 115.205 54.9363C116.577 57.5277 118.456 59.6675 119.708 62.1725" stroke="black" stroke-width="3" stroke-linecap="round"/>
<path d="M118.984 63.6198C122.293 63.6198 126.555 63.8054 129.477 65.4288C131.578 66.596 136.777 67.9615 139.246 67.9615" stroke="black" stroke-width="3" stroke-linecap="round"/>
<path d="M137.075 69.4087C137.075 71.33 140.942 84.5106 139.246 84.6048C132.664 84.9704 126.217 87.4993 119.708 87.4993" stroke="black" stroke-width="3" stroke-linecap="round"/>
<path d="M118.261 89.6701C115.848 92.0834 113.247 95.3568 111.748 98.3536" stroke="black" stroke-width="3" stroke-linecap="round"/>
<path d="M110.301 101.248C114.546 101.779 117.164 108.452 120.432 110.494C124.005 112.728 123.139 115.712 119.708 117.731C117.309 119.142 116.149 122.983 112.472 121.349C109.96 120.232 107.729 119.299 105.236 118.052C103.327 117.098 99.9469 113.793 97.9993 113.55C96.1397 113.317 94.0678 110.655 92.2104 110.655C89.4576 110.655 87.2311 113.55 84.2505 113.55" stroke="black" stroke-width="3" stroke-linecap="round"/>
<path d="M42.694 108.603C41.1242 108.778 39.7209 110.08 38.3178 110.704C36.13 111.676 33.9845 112.861 31.841 113.932C30.1061 114.8 28.5846 115.846 26.7646 116.655C25.7602 117.102 22.8153 117.902 22.3883 118.756" stroke="black" stroke-width="3" stroke-linecap="round"/>
<path d="M20.9879 119.106C17.5292 115.829 13.6736 112.842 10.3099 109.478C8.99239 108.161 8.87151 107.226 10.485 105.958C12.3753 104.473 13.4203 102.264 15.4642 100.901C18.5634 98.8347 20.9072 95.7008 23.9832 93.7433C25.2741 92.9218 26.6834 92.0157 27.7954 90.9037C28.3764 90.3226 29.779 89.6206 30.0905 88.9976" stroke="black" stroke-width="3" stroke-linecap="round"/>
<path d="M30.4406 88.9975C30.2711 87.4725 28.9128 85.6174 28.1649 84.2712C27.6493 83.3431 27.2832 82.3261 26.9396 81.2954" stroke="black" stroke-width="3" stroke-linecap="round"/>
<path d="M26.2394 80.5952C22.0936 80.5952 17.3909 78.3352 13.6358 76.6663C11.5668 75.7467 9.38627 75.3557 7.15903 75.0131C5.59944 74.7731 2.78279 75.2857 2.78279 73.2431C2.78279 69.3196 2.0826 65.4206 2.0826 61.5343C2.0826 60.7022 1.64538 59.006 2.78279 59.5115C4.03778 60.0692 6.44408 59.6109 7.76197 59.5893C10.4615 59.545 13.8078 59.3115 16.4366 58.714C17.9706 58.3654 20.3031 57.8388 21.8632 57.8388C23.7892 57.8388 25.6895 56.7885 27.6398 56.7885" stroke="black" stroke-width="3" stroke-linecap="round"/>
<path d="M26.5895 56.4384C26.7862 54.6679 28.6106 52.6721 29.5653 51.1869C30.3459 49.9726 31.5576 48.9528 32.1911 47.6859" stroke="black" stroke-width="3" stroke-linecap="round"/>
<path d="M32.5412 47.3358C28.2815 43.0761 23.6465 39.2213 20.4433 34.1877C19.7542 33.1049 19.3389 31.8341 18.7123 30.7062C18.0442 29.5036 19.6901 28.9783 20.6378 28.0804C21.5279 27.2372 28.8747 19.0653 29.3125 19.4058C33.2659 22.4806 37.9119 24.8472 41.8188 27.8859C44.249 29.7761 46.9894 32.3269 49.696 33.7598C50.5584 34.2164 53.0442 31.0333 53.8777 30.3561C54.9014 29.5243 57.1971 28.1324 57.7483 27.0301" stroke="black" stroke-width="3" stroke-linecap="round"/>
<path d="M68.3698 49.7528C71.058 49.7528 73.7569 48.6844 76.4823 48.6844C79.1304 48.6844 81.172 49.0349 83.6846 49.7528C87.7011 50.9004 91.7459 56.5244 93.0239 60.3585C94.2906 64.1585 94.7995 67.8429 94.7256 71.8347C94.649 75.9686 92.4361 79.7068 90.8078 83.3704C90.0296 85.1214 86.118 86.1077 84.575 86.7935C83.0376 87.4768 81.1127 88.2181 79.4899 88.2181C73.8739 88.2181 66.6699 90.229 61.6027 86.9715C59.7611 85.7876 58.1581 84.4252 56.8144 82.6976C55.1673 80.58 55.0965 77.7535 54.4004 75.3172C53.5773 72.4363 54.1234 68.7794 54.1234 65.78C54.1234 62.6292 55.0831 59.1821 56.7946 56.5199C59.2132 52.7576 62.662 50.1121 66.9451 48.6844" stroke="black" stroke-width="3" stroke-linecap="round"/>
<path d="M31.2991 102.149C30.3602 102.149 27.7642 101.589 27.7146 102.879C27.6479 104.612 28.0589 106.657 27.6814 108.356C27.026 111.305 18.5342 104.288 21.6077 109.451C21.9765 110.071 23.7395 112.903 22.8025 112.903C19.1621 112.903 16.0154 111.381 12.8789 109.617C10.6506 108.364 16.0582 109.923 16.6625 110.214C17.8701 110.796 23.0356 113.972 19.2181 111.575C17.7075 110.627 13.6727 107.513 15.4345 107.792C18.3709 108.255 21.569 112.195 24.0637 113.799C26.3555 115.272 18.0177 104.804 19.6163 104.804C22.0434 104.804 25.0736 107.406 27.1172 108.455C30.0454 109.959 29.3306 108.593 28.312 106.265C28.0599 105.688 25.0487 98.2597 25.7232 98.067C28.041 97.4048 33.7174 103.566 35.3482 104.871C40.6739 109.131 32.1097 93.775 36.1779 97.4364C38.5471 99.5686 41.0307 101.653 43.546 103.61C44.5985 104.428 43.8737 102.831 43.712 102.481C42.3176 99.4693 41.1297 96.3614 39.7956 93.3209C38.6395 90.6862 35.0112 82.9759 36.8085 85.2226C38.8134 87.7287 40.1519 90.8605 42.318 93.4205C45.7892 97.5228 39.3141 83.0848 37.3396 78.0869C36.0716 74.8772 34.9931 71.6067 33.8215 68.3623C33.4464 67.3238 32.515 65.047 34.4189 66.5701C38.9808 70.2196 42.696 74.9242 47.1637 78.7175C47.4035 78.9211 49.0513 80.8706 49.1882 79.9123C49.5334 77.496 48.8094 74.7218 48.624 72.3119C48.3097 68.2263 48.0266 64.2322 48.0266 60.1313C48.0266 57.052 48.2312 66.3759 49.2214 69.2916C51.1886 75.0838 48.9221 61.2593 48.7568 60.1977C47.9655 55.1154 46.3008 39.8201 46.3008 44.9637C46.3008 49.8691 47.5642 55.3932 48.3253 60.2641C49.0452 64.8712 47.5172 58.8607 46.699 57.4762C43.5864 52.2086 45.0519 61.445 45.0396 63.583C45.0136 68.075 44.7144 72.4695 44.1766 76.9252C43.9332 78.9418 44.0919 81.3641 43.2473 83.2645C42.678 84.5455 37.5841 76.349 37.2732 75.8632C35.687 73.3848 34.1922 70.853 32.6266 68.3623C32.0321 67.4164 30.7428 64.788 30.7017 67.3003C30.6212 72.2105 30.8108 77.1268 30.7017 82.0364C30.6486 84.4247 25.8258 76.0484 25.3249 75.2658C24.6178 74.1609 20.2448 65.1761 19.0521 65.1761C18.4505 65.1761 18.7534 74.7708 18.7534 75.7304C18.7534 77.3881 18.7163 80.387 16.8284 77.5227C14.157 73.4695 11.0429 69.6901 8.66378 65.4417C5.28302 59.4046 8.48085 73.6371 6.20775 70.3537C5.66081 69.5637 4.57088 65.9727 3.35345 65.9727C2.64666 65.9727 3.64683 69.1788 3.78491 69.524C4.40668 71.0784 4.28212 66.2114 4.4487 64.5455C4.80604 60.9721 6.59729 64.5946 7.53533 65.7072C9.09625 67.5585 11.5094 70.3771 13.8414 71.2166C15.2307 71.7168 14.4983 68.4572 14.6047 67.4994C15.3419 60.865 18.2759 64.2075 21.1431 67.6322C21.7508 68.358 24.6482 71.9882 24.7275 69.2916C24.8032 66.7189 24.7275 64.1322 24.7275 61.5585C24.7275 60.8553 24.8935 57.9409 25.3581 60.0318C25.7728 61.8977 27.6571 63.1129 28.7767 64.5123C33.3652 70.248 32.4939 63.074 32.4939 59.5007C32.4939 59.0487 32.9448 55.0321 33.6887 57.0779C34.8486 60.2676 35.6172 63.5899 37.1404 66.6365C37.2754 66.9063 39.0654 70.461 39.0654 68.5615C39.0654 62.0215 38.0397 55.097 37.5719 48.5482C37.4094 46.2739 37.2732 44.0241 37.2732 41.7443C37.2732 40.4217 37.9507 44.3107 38.468 45.5279C40.5146 50.3434 41.8019 55.5809 44.1434 60.2641C44.8631 61.7035 45.0681 60.6554 44.774 59.6003C44.028 56.9232 42.8661 54.3348 42.0525 51.668C40.8484 47.7212 38.468 35.693 38.468 39.8193C38.468 44.4014 41.55 50.2296 43.2473 54.3563C44.3242 56.9747 45.0454 59.6177 45.9357 62.2886C46.4019 63.6874 47.0515 64.0429 46.4667 62.2886C43.0767 52.1187 39.2104 42.4326 34.4189 32.8495C34.1988 32.4092 34.0293 34.4308 33.8215 35.1064C33.4059 36.4571 32.8064 37.9166 31.0004 36.6663C28.3739 34.848 26.8293 32.2559 24.7607 29.9288C23.1251 28.0887 23.0307 30.3058 23.6655 31.6547C24.0978 32.5733 23.9986 30.5273 23.3999 29.9952C22.8456 29.5024 22.9353 32.2057 22.9353 32.4844C22.9353 32.6263 22.5602 31.8337 22.4706 31.6547C22.0641 30.8416 22.6115 32.152 22.6698 32.2853C23.6697 34.5709 25.1778 36.647 26.387 38.8236C27.3856 40.621 26.3428 33.1089 28.0133 33.4801C29.5544 33.8226 31.5208 37.6155 32.4607 38.7904C33.8362 40.5098 34.8835 43.0244 34.8835 39.421C34.8835 36.9128 34.2861 29.412 34.2861 31.9202C34.2861 37.73 35.455 43.5106 36.6758 49.1788C36.9208 50.3164 39.0654 59.2617 39.0654 57.277C39.0654 52.4214 37.8561 47.8218 37.4059 43.0055C36.9549 38.1793 36.1307 33.4497 35.3482 28.6676C35.065 26.9368 34.1507 23.8054 34.9831 27.2736C36.2739 32.6521 40.1845 38.2517 42.6167 43.2378C42.8849 43.7876 45.716 49.4887 44.1766 46.3245C42.5108 42.9002 41.2584 38.9163 40.2603 35.2391C39.8193 33.6147 38.3936 29.3183 40.5921 32.9159C41.9568 35.1489 43.3909 37.9143 45.9025 39.0559C47.2699 39.6775 46.8318 36.0332 46.8318 35.3719C46.8318 35.167 52.4109 44.7399 52.7727 43.8352C53.1715 42.8384 53.8116 35.7239 55.6602 39.421C56.4198 40.9403 62.9619 51.8384 62.9619 47.0546C62.9619 42.51 63.1901 38.2456 64.4223 33.8452C65.6357 29.5113 66.376 39.452 66.5464 40.4831C67.0251 43.3806 67.8541 49.6921 70.2636 51.8339C70.8767 52.3789 70.7382 50.2303 70.6951 49.4111C70.3106 42.1061 69.0892 34.7126 67.7412 27.5392C66.4984 20.9256 64.9242 13.0835 61.7671 6.99481C61.4324 6.34923 59.2355 2.78809 60.1076 5.50128C61.9126 11.1167 64.0146 16.7056 66.0817 22.2288C68.9841 29.9836 73.702 37.3961 76.0718 45.2956C76.4989 46.7192 76.6949 42.3677 76.7024 40.8814C76.7359 34.277 76.7024 27.6716 76.7024 21.0672C76.7024 16.7636 76.7024 12.46 76.7024 8.15645C76.7024 7.29674 76.4213 3.47586 76.8352 6.49697C78.2444 16.7845 80.4711 27.2181 82.6765 37.3633C83.0827 39.2317 85.6904 50.1094 84.1701 42.5077C83.3724 38.5195 82.8412 34.501 81.9464 30.5262C81.6147 29.0532 80.6987 20.5263 79.1916 19.7728C78.788 19.571 79.3477 20.6626 79.4571 21.1004C79.9485 23.0659 80.5334 25.0125 81.1498 26.9417C83.4446 34.1237 86.3735 41.0505 88.9825 48.1167C90.48 52.1723 94.0274 64.3881 94.0274 60.0649C94.0274 54.087 91.9491 48.1896 91.6709 42.209C91.6082 40.8607 90.4305 37.5562 91.6377 38.1598C92.1995 38.4407 93.2401 42.5252 93.4631 43.1051C95.5933 48.6436 98.076 54.043 100.134 59.6003C100.356 60.1983 100.255 52.3864 100.134 50.9046C99.8993 48.0259 98.5602 39.9623 100.333 42.2421C102.547 45.0879 103.504 49.0928 105.345 52.199C108.262 57.1211 107.17 51.5479 107.17 48.3822C107.17 42.8619 107.664 37.408 107.768 31.9202C107.828 28.7343 109.019 30.6252 109.859 32.584C113.62 41.361 111.867 25.7957 113.145 25.9461C114.38 26.0914 119.716 39.2217 119.716 34.6417" stroke="black" stroke-width="3" stroke-linecap="round"/>
<path d="M115.099 116.092C114.968 116.092 114.17 116.166 114.17 116.353C114.17 116.55 114.566 116.308 114.75 116.237C115.431 115.974 116.095 115.686 116.782 115.439C119.15 114.586 117.095 116.336 117.507 116.353C118.098 116.376 118.546 116.274 118.813 116.875C119.127 117.581 117.767 117.892 117.377 118.283C116.753 118.907 119.142 117.757 120.003 117.949C120.402 118.038 120.303 118.457 120.134 118.718C119.524 119.656 118.155 120.005 117.13 120.154C115.749 120.356 113.053 120.769 112.603 118.907C112.044 116.597 116.319 114.839 117.928 114.321C118.459 114.151 121.504 113.417 120.917 114.916C120.388 116.27 117.889 116.225 116.724 116.034C113.98 115.584 117.163 112.703 118.334 114.525C119.032 115.61 116.647 115.592 116.158 115.54C114.476 115.363 113.517 114.482 113.009 112.957" stroke="black" stroke-width="3" stroke-linecap="round"/>
<path d="M99.1666 101.204C99.9901 99.2827 110.102 107.652 110.876 108.343C112.264 109.583 113.814 110.749 115.055 112.145C115.828 113.015 112.127 110.473 111.848 110.23C107.752 106.649 102.295 102.736 100.879 97.1995C100.829 97.0061 100.224 95.3175 100.647 95.2406C101.889 95.0147 104.066 96.7598 104.971 97.3446C107.144 98.7498 109.259 100.298 111.268 101.93C111.471 102.095 113.831 104.256 113.575 104.295C111.931 104.548 109.329 102.426 108.105 101.654C104.326 99.2709 100.721 96.6078 97.0481 94.0653C96.2297 93.4987 94.3576 91.4122 94.5814 92.3822C94.66 92.7226 95.3247 93.4405 95.4665 93.6445C96.5945 95.2676 97.6681 96.9307 98.7603 98.578C100.1 100.598 101.749 102.696 102.562 105.006C103.044 106.377 100.451 105.317 99.9066 105.151C93.3725 103.156 87.5987 99.012 81 97.2285C80.344 97.0512 81.6201 98.2383 81.7835 98.4474C82.9894 99.9902 83.9029 101.585 84.3808 103.497C85.1716 106.66 80.8182 103.997 79.8972 103.294C78.3904 102.144 76.7205 100.77 75.7038 99.1438C75.3372 98.5572 75.0024 97.7656 75.196 98.9697C75.6497 101.793 76.6758 105.633 75.7764 108.459C74.9651 111.009 65.9899 103.284 65.213 102.713C62.5701 100.771 59.9524 98.7968 57.2906 96.8803C55.2185 95.3884 56.3339 96.7952 57.0584 98.2442C59.0782 102.284 61.0741 106.351 63.0075 110.433C63.1105 110.65 65.1388 115.165 64.7487 115.236C63.5362 115.456 60.7377 112.279 59.9604 111.623C57.2204 109.309 54.6583 106.81 52.0089 104.396C51.8304 104.234 50.1055 102.514 51.2253 103.468C53.4113 105.33 55.4066 107.543 57.3341 109.664C58.6524 111.114 60.182 112.621 61.2083 114.307C61.5372 114.847 61.0155 114.393 60.9181 114.292C59.8258 113.159 58.9526 111.746 58.1031 110.433C57.2802 109.161 48.0721 93.2344 49.3971 92.4982C49.9162 92.2098 53.0323 94.825 53.3728 95.052C56.4461 97.1009 59.5722 99.0594 62.5287 101.277C63.3483 101.892 65.7343 103.815 65.0099 103.091C63.198 101.279 61.1401 99.7493 59.351 97.896C54.7626 93.1429 50.1023 88.3984 45.6825 83.4875C44.8226 82.532 47.2486 85.3586 47.3657 85.5044C49.5645 88.2433 51.5048 91.0999 53.4019 94.0508C53.5671 94.3079 54.7347 95.9784 54.7223 95.8791C54.6476 95.2815 54.3357 94.6749 54.1274 94.1234C53.4122 92.2304 52.8726 90.304 52.3571 88.3484C51.5593 85.3217 50.7915 82.294 50.1226 79.236C50.0619 78.9585 49.564 76.7041 49.7163 76.8564C54.7855 81.9256 59.9176 86.7622 65.5613 91.2214C66.7392 92.152 66.7585 92.3231 65.866 91.0037C65.0805 89.8425 64.3583 88.6267 63.646 87.4197C63.5076 87.1852 62.4706 85.7566 63.4718 86.5201C67.1547 89.3283 70.6032 92.469 74.2818 95.2987C74.3875 95.38 76.1671 96.7928 76.0085 96.4305C75.4503 95.1545 74.823 93.9234 74.4124 92.5853C74.2137 91.9374 73.6012 90.6302 73.6869 89.9445C73.718 89.6956 74.0969 90.2393 74.2673 90.4233C75.0195 91.2357 75.718 92.0917 76.5019 92.8755C78.6235 94.9971 85.4249 100.801 83.5828 98.4329C81.8771 96.2399 80.0042 93.9029 77.8658 92.121C75.6596 90.2825 77.6872 95.1351 77.8658 95.9516C77.9231 96.2136 78.2458 97.2421 77.8078 97.3881C76.0165 97.9852 72.8581 96.1162 71.3653 95.4003C68.5897 94.0691 65.7828 92.8176 62.8189 91.9614C61.4667 91.5707 61.2484 91.5948 62.195 92.8175C64.0037 95.1538 65.6643 97.5862 67.3025 100.043C67.9891 101.073 70.1175 103.33 70.1175 104.687C70.1175 105.226 69.0714 104.382 68.6084 104.106C66.439 102.814 64.3527 101.37 62.282 99.9274C58.5573 97.3321 55.0947 94.4542 51.4865 91.7147C51.4092 91.656 49.7632 90.3284 49.9194 90.3507C50.358 90.4134 51.0626 90.9904 51.3559 91.1778C54.4148 93.1321 57.4323 95.1448 60.4247 97.1995C65.9007 100.96 71.4594 104.619 76.8791 108.459C79.2007 110.104 76.8962 108.814 76.023 108.082C72.9812 105.534 70.2634 102.598 67.5201 99.7388C66.6776 98.8606 63.0779 95.8211 66.4899 97.4607C69.0618 98.6965 71.614 99.9635 74.2383 101.088C76.0797 101.877 76.8871 102.214 75.3701 100.145C75.2706 100.009 73.2734 97.7202 73.9191 97.5768C75.1797 97.2966 76.4788 98.0776 77.6917 98.2732C80.2864 98.6917 78.0797 95.6487 78.9105 95.2551C80.7758 94.3716 83.3319 98.2848 85.1499 97.7654C85.3329 97.7131 83.9619 95.3421 83.873 95.1826C83.1355 93.8602 82.1084 92.5072 81.7255 91.0182C81.5456 90.3187 82.8772 91.7336 83.0314 91.8598C84.3166 92.9113 85.3443 94.2433 86.7315 95.1681C87.9549 95.9837 87.2995 95.0172 86.833 94.3555C86.2169 93.4815 85.6157 92.671 85.1934 91.6857C84.9784 91.184 84.0403 89.8949 85.1789 90.4958C86.0963 90.98 86.9006 91.6449 87.7907 92.179C88.6016 92.6656 90.2674 93.7594 88.937 92.2516C87.2675 90.3594 82.9211 84.2281 84.8016 85.9107C87.6338 88.4447 90.4188 91.5437 93.8269 93.3108C94.1811 93.4944 94.7675 93.8739 94.4653 93.2528C93.5769 91.4265 92.7878 89.613 92.1437 87.6809C91.8132 86.6894 90.3936 84.0698 91.2441 84.6773C92.1926 85.3548 92.8651 86.7418 93.6238 87.6229C94.3017 88.4102 94.9784 89.1807 95.7132 89.9154C96.5451 90.7473 94.4943 87.9006 93.9575 86.8538C93.3905 85.7481 92.2505 84.2116 92.1147 82.9216C92.0908 82.6947 93.0504 83.8573 93.2175 84.0244C94.582 85.3889 95.848 86.8367 97.1787 88.2323C97.6291 88.7046 98.087 89.1747 98.5862 89.5962C98.7851 89.7642 99.0502 90.3514 99.1666 90.1186C99.432 89.5879 98.0021 87.6062 97.8027 87.2456C96.0874 84.1448 94.6437 80.9667 93.4932 77.6109C93.2273 76.8353 92.4554 74.5009 92.6806 75.2893C93.0791 76.6842 94.3712 78.21 95.1038 79.4392C96.8002 82.2854 101.592 90.8768 100.618 87.7099C99.8654 85.2654 98.8391 82.9196 98.1219 80.4549C97.6346 78.7804 97.1856 77.0949 96.6999 75.4199C96.3858 74.3368 95.6156 72.782 95.6987 71.6183C95.7244 71.2582 96.1253 72.2011 96.3226 72.5034C97.0233 73.5763 97.7983 74.5991 98.5282 75.6521C100.226 78.1009 101.936 80.5613 103.549 83.0667C103.749 83.3785 104.678 84.7222 104.216 83.473C103.089 80.4267 101.807 77.4597 100.763 74.3752C100.568 73.7992 98.5339 69.1544 100.327 71.5457C101.516 73.1305 102.762 74.6843 103.839 76.3485C103.994 76.5881 104.781 77.5616 104.738 77.4948C103.621 75.7384 102.556 73.9459 101.401 72.2132C99.8839 69.9373 95.6424 62.9372 96.816 65.4079C98.5682 69.0969 100.735 72.5725 102.678 76.1599C103.357 77.4133 104.797 81.2999 104.797 79.8745C104.797 78.3631 103.553 76.3104 103.084 74.912C101.678 70.7113 100.457 66.3309 99.5874 61.9836C99.3904 60.9987 99.3632 60.6026 100.023 61.5918C101.7 64.1084 103.612 66.5038 105.377 68.9629C106.474 70.4909 109.742 75.0628 108.453 73.6932C107.937 73.1453 107.521 72.1372 107.176 71.5167C105.779 69.0023 104.501 66.4275 103.215 63.8554C101.42 60.2653 99.653 56.6541 97.6721 53.1614C97.3579 52.6075 95.8967 50.1895 97.2513 52.0732C100.935 57.1955 113.232 71.539 108.714 67.1346C103.871 62.4127 99.1695 57.5852 93.7689 53.4807C93.7503 53.4666 91.9159 51.9664 92.3179 52.6971C94.1467 56.0223 96.4776 59.0973 98.325 62.4334C99.1777 63.9731 99.9024 65.5573 100.676 67.1346C101.192 68.1888 99.6579 64.6356 99.5439 64.3052C98.3399 60.8178 94.4042 50.4848 95.9309 53.8434C98.1681 58.7654 99.4863 64.0107 101.14 69.137C101.159 69.1965 99.9679 67.0823 99.6309 66.5542C97.2947 62.8934 95.1288 59.1266 92.8112 55.454C91.5632 53.4765 90.2533 51.5493 88.7919 49.7226C88.2483 49.0431 89.5414 51.9434 89.706 52.3634C89.8061 52.6187 90.775 54.605 90.2284 54.1191C88.4797 52.5647 86.9298 50.657 85.382 48.91C83.9795 47.3268 82.5602 45.7442 81.2031 44.1217C80.1888 42.9088 81.1287 43.728 81.711 44.3103C83.3071 45.9064 84.9032 47.5025 86.4993 49.0986C87.7801 50.3795 87.0002 49.6432 86.3107 48.852C85.3293 47.7258 84.4657 46.5043 83.4957 45.3695C83.399 45.2564 81.9014 43.8032 82.9008 44.1942C84.4978 44.8191 85.907 46.3587 87.2974 47.3429C88.0003 47.8405 89.7946 49.5664 89.4449 48.7794C88.9289 47.6185 87.3596 46.4342 86.5428 45.4856C84.8823 43.5572 82.676 41.8887 81.2031 39.8267C80.9095 39.4156 81.6029 42.7428 81.653 43.193C81.6721 43.3656 81.7862 44.0978 81.4933 43.6719C80.5221 42.2592 79.2768 41.0925 78.069 39.8847C77.3859 39.2017 76.3402 37.5454 75.4426 37.1714C75.2328 37.0839 75.3776 37.6403 75.4572 37.8533C75.9802 39.2543 76.7063 40.5809 77.3144 41.9452C77.4946 42.3493 78.5588 44.1646 78.4172 44.7311C78.3724 44.9104 76.1086 43.6423 76.0085 43.5848C74.5444 42.7437 73.0827 41.8956 71.641 41.0165C71.0327 40.6456 69.3934 39.2823 69.8853 39.7977C71.118 41.0891 72.3058 42.4288 73.5128 43.7444C73.8942 44.1601 77.2273 47.3613 75.8489 47.0237C72.2684 46.1468 68.718 43.6133 65.6193 41.684C65.2127 41.4308 64.1536 40.6393 64.6326 40.6393C66.255 40.6393 67.9578 42.4768 69.1453 43.3526C71.0522 44.759 72.7573 46.287 74.5575 47.8072C74.8404 48.0461 75.4567 48.4457 74.7026 48.4457C72.2325 48.4457 69.8801 47.3992 67.5782 46.6319C66.679 46.3322 59.2059 44.8728 59.2059 43.4832C59.2059 42.2754 64.6977 45.3837 65.213 45.7178C65.2792 45.7607 66.4934 46.3146 66.1997 46.5594C65.0025 47.557 60.83 46.8786 59.5396 46.8786C58.7564 46.8786 53.0639 47.5043 52.6473 46.2547C52.4945 45.7962 56.0526 47.0612 56.2748 47.1978C57.0653 47.6836 58.3763 48.4029 58.8867 49.2292C59.3465 49.9737 53.5147 49.1025 52.9375 48.9825C52.436 48.8783 46.9449 47.1214 49.8759 47.43C50.5763 47.5037 57.7248 50.1309 57.2615 51.0575C56.8018 51.9769 50.9215 51.3187 50.0645 51.3187C49.9007 51.3187 45.3137 51.0865 47.5108 51.0865C49.8982 51.0865 52.5739 52.5737 54.6497 53.6693C55.1208 53.9179 55.1661 54.3901 54.5627 54.4383C53.0987 54.5554 51.5908 54.4528 50.1226 54.4528C46.8137 54.4528 50.4885 54.2876 51.6026 54.8446C52.9538 55.5202 52.0651 56.1593 51.0512 56.5423C50.3957 56.7899 49.7132 56.8233 49.0198 56.8035C48.3809 56.7852 48.5121 56.4746 49.0924 56.5713C50.1451 56.7468 54.6413 58.5982 52.0089 59.5459C51.701 59.6567 48.8987 60.1748 49.0779 59.9957C49.7925 59.2811 51.8508 60.566 52.3861 60.9824C53.5767 61.9084 53.696 62.2714 52.0959 62.6075C49.8623 63.0768 43.0808 63.8554 45.3633 63.8554C47.2631 63.8554 48.9511 64.3078 50.5434 65.4225C52.259 66.6234 50.6084 67.0005 49.4841 67.4539C48.9344 67.6755 45.3313 68.7581 47.3366 69.079C48.8322 69.3183 51.9649 70.7027 52.5167 72.3583C53.0875 74.0706 50.6172 73.245 52.6473 74.5348C53.7169 75.2142 55.5057 76.316 55.7525 77.698C55.9716 78.9248 54.2007 80.077 53.4164 80.7306C53.1717 80.9345 50.6564 82.8547 51.0222 83.1683C51.5004 83.5781 52.3328 83.8262 52.8795 84.1695C55.822 86.0171 49.7442 86.0449 48.8167 86.0558C48.7012 86.0571 47.0086 86.0558 47.5688 86.0558C49.5594 86.0558 51.39 86.3993 53.3003 86.9699C54.8458 87.4316 56.5121 87.8338 57.9725 88.537C58.0661 88.582 58.7774 88.987 58.1612 89.0739C55.8605 89.3983 52.9899 88.3164 50.8191 87.7389C48.3924 87.0934 46.08 86.1927 43.7091 85.3883C39.2826 83.8864 52.9381 87.0594 57.3776 88.5225C60.9137 89.6878 64.4298 90.958 67.7088 92.7304C68.6016 93.213 65.1934 92.9581 65.097 92.9481C61.7448 92.5972 58.4788 91.8123 55.1721 91.1923C54.1678 91.004 51.0354 90.1239 53.576 91.1343C55.5384 91.9148 57.5228 92.8998 59.2059 94.1814C60.5006 95.1673 59.8243 95.1971 58.7416 95.1971C58.6266 95.1971 60.3174 95.6184 60.6859 95.7485C61.4165 96.0064 62.2487 96.2543 62.9205 96.6481C63.6546 97.0784 61.2466 97.021 60.3957 97.0254C59.2772 97.0311 58.0867 96.9192 56.9713 97.0544C56.2958 97.1363 59.337 98.3256 59.351 98.3313C60.9769 98.9956 62.5973 99.6352 64.1683 100.421" stroke="black" stroke-width="3" stroke-linecap="round"/>
<path d="M25.5135 98.0701C25.6359 97.0906 27.7251 95.5703 28.3865 94.994C29.2834 94.2124 31.9213 92.1088 29.5183 94.2685C29.0055 94.7294 22.8355 99.6888 22.8146 99.6082C22.5214 98.4772 25.0998 96.0397 25.6876 95.3422C27.7317 92.9168 29.9962 90.7932 32.3913 88.7256C33.0332 88.1714 36.2025 84.835 34.5388 87.6809C31.826 92.3212 27.7147 96.2612 24.4398 100.508C24.1081 100.938 23.1047 102.842 22.4374 102.916C21.7271 102.995 23.2625 101.732 23.8013 101.262C24.7928 100.398 25.9575 99.6847 27.0225 98.9117C27.6082 98.4866 29.4584 97.5768 28.7347 97.5768C28.1437 97.5768 26.7859 98.9855 26.3696 99.289C24.45 100.688 22.5861 102.179 20.6091 103.497C19.8588 103.997 18.7751 104.877 17.8667 105.078C17.1114 105.246 18.8867 103.913 19.4338 103.366C22.7426 100.057 26.55 96.4708 30.5195 93.9638C31.8868 93.1002 27.9964 95.9876 26.7323 96.9964C23.4768 99.5946 20.4645 102.492 17.3879 105.296C16.2616 106.323 15.0102 107.297 13.9345 108.372C13.4091 108.898 14.2467 108.08 14.3843 107.893C16.5894 104.901 20.0576 102.659 23.0178 100.508C27.6247 97.1598 32.458 94.1085 37.3827 91.2504C38.9054 90.3667 40.4533 89.5552 42.055 88.8272C42.3785 88.6801 40.8083 90.4927 40.7926 90.5104C37.8873 93.7788 34.8631 96.9392 31.985 100.232C29.6332 102.923 27.6597 105.881 25.3684 108.604C24.2242 109.964 26.2974 107.426 26.4712 107.24C29.1173 104.415 31.9537 101.804 34.945 99.347C36.6213 97.9701 38.3627 96.4974 40.2267 95.3712C40.9417 94.9392 40.7612 95.3573 40.3718 95.8065C34.8963 102.124 29.4246 108.468 24.1205 114.931C23.3471 115.873 21.857 117.804 21.857 117.804C21.857 117.804 23.3706 116.282 24.2366 115.656C29.497 111.855 35.6606 108.754 41.7358 106.486C42.6862 106.131 42.668 106.184 41.8518 106.805C39.8806 108.304 37.9392 109.843 35.9607 111.332C34.2623 112.611 32.601 113.982 30.8532 115.192C29.7362 115.965 31.9628 114.23 32.072 114.147C38.4643 109.3 45.4696 105.401 52.0524 100.856C52.4776 100.562 53.7879 99.8984 53.2713 99.8984C51.8235 99.8984 50.4136 99.9996 48.9763 100.203C44.8357 100.789 40.7802 101.687 36.7443 102.771C35.0193 103.235 33.2951 103.723 31.5497 104.106C31.2856 104.164 31.0204 104.222 30.7516 104.251C30.3093 104.301 30.5551 104.15 30.7661 104.005C36.54 100.023 43.0504 97.0781 49.0343 93.4269C50.0355 92.816 50.9584 92.3241 49.31 92.3241C47.0149 92.3241 44.724 92.3097 42.4322 92.4547C41.1817 92.5339 39.6167 92.84 38.3839 92.4547C37.9494 92.3189 40.0296 91.9521 40.1977 91.9178C42.4191 91.4653 49.1642 90.9087 46.9013 90.7716C45.9372 90.7131 39.6364 90.757 43.8252 90.757C44.9219 90.757 48.8094 90.4959 45.6245 90.4959C45.2952 90.4959 44.0526 90.321 44.7538 90.8731C46.6438 92.3609 48.767 93.4389 50.5869 95.052C51.0623 95.4734 58.0016 101.888 55.5784 102.191C53.5382 102.446 51.3898 102.234 49.339 102.249C48.0057 102.259 47.7326 102.36 48.8457 103.265C52.6474 106.356 56.5322 110.328 60.9181 112.58C61.0647 112.655 59.2189 109.62 59.0027 108.837C58.7392 107.881 61.1308 108.845 61.2663 108.895C64.3672 110.03 67.3664 111.391 70.5818 112.203C72.7037 112.739 73.3969 112.281 73.2516 110.084C73.1544 108.614 72.7372 107.151 72.2649 105.76C71.8073 104.413 72.326 107.705 71.583 107.705C69.8724 107.705 68.3611 105.549 66.9397 104.759C66.7364 104.646 66.738 105.124 66.6205 105.267C66.0097 106.014 65.0813 106.347 64.1393 106.384C62.6883 106.442 61.3545 105.984 60.0475 105.412C58.6195 104.787 60.2626 106.592 60.5408 106.994C61.4402 108.293 62.2589 109.627 63.1091 110.955C63.5108 111.583 63.5083 111.68 63.3848 110.97C63.0077 108.802 62.3477 106.806 65.5178 108.343C67.6075 109.356 72.4402 114.747 74.1948 111.086C74.4134 110.629 75.5196 105.244 76.3132 107.095C76.9707 108.629 77.1391 109.149 78.0109 107.589C79.0116 105.798 80.8671 110.65 81.1451 111.071C82.0436 112.431 83.1301 108.934 83.3796 108.401C83.3866 108.386 84.323 106.42 84.4824 106.863C84.6232 107.254 84.3755 110.361 84.8016 109.243C85.0316 108.639 85.2339 107.775 85.2079 107.124C85.195 106.801 84.5346 108.11 84.4824 108.198C83.1514 110.451 85.1207 107.415 85.7883 106.747C87.3801 105.155 86.4547 107.159 87.0942 107.995C87.769 108.877 90.8088 105.976 90.8088 107.066C90.8088 107.642 90.5164 108.217 90.5476 108.779C90.5756 109.282 92.2736 107.583 92.3759 107.487C92.7666 107.121 94.8339 105.076 93.6818 106.689C92.8641 107.834 94.6545 105.394 94.5234 105.441C93.8771 105.676 93.0182 106.502 92.55 106.863C90.917 108.124 89.2928 109.394 87.6021 110.578C87.0964 110.932 84.6859 113.049 83.9455 112.885C83.091 112.695 90.1884 107.627 84.1632 109.519C81.0912 110.483 72.608 115.142 75.6458 114.075C77.3536 113.475 78.7073 112.374 80.0423 111.187C80.6848 110.616 81.3433 109.86 79.9117 110.418C78.8419 110.836 76.8676 111.8 76.1972 112.769C76.0184 113.027 78.6697 112.411 78.9105 112.304C79.1661 112.192 81.1154 111.158 80.971 112.072C80.9058 112.485 80.3178 113.219 80.6227 113.219" stroke="black" stroke-width="3" stroke-linecap="round"/>
<path d="M91.5923 97.0254C93.3569 98.2228 94.9324 99.5819 96.4387 101.088C96.6557 101.305 97.2297 101.85 96.4242 101.494C94.4572 100.627 92.7397 98.9229 91.128 97.5478C89.2739 95.9657 87.3968 94.368 85.6722 92.6434C85.1466 92.1177 83.6937 91.0606 84.3954 90.8151C85.1982 90.5341 87.0851 92.3785 87.5731 92.7594C89.1983 94.0285 90.7326 95.3818 92.0567 96.9674C92.8599 97.9292 94.2992 100.058 91.7955 98.9988C91.5478 98.894 87.7751 96.8892 89.4158 96.5611C93.0924 95.8258 97.2517 97.3985 100.298 99.318C100.394 99.3783 102.386 100.647 101.488 100.74C100.037 100.89 98.4535 99.7729 97.3093 99.0278C95.7957 98.0422 97.5845 99.6246 97.9042 99.9709C99.2016 101.376 100.396 102.913 101.401 104.542C102.638 106.545 102.854 107.901 100.066 107.357C99.4048 107.227 98.3938 106.989 97.8317 106.588C97.12 106.079 99.3387 107.49 100.008 108.053C101.334 109.168 102.618 110.35 103.81 111.608C104.052 111.864 105.058 112.733 105.058 113.161C105.058 113.414 102.82 112.769 102.62 112.435C101.822 111.105 105.144 114.282 106.16 115.453C107.103 116.54 106.503 116.555 105.232 116.295C105.115 116.271 104.162 115.859 104.477 115.859C105.341 115.859 106.162 116.387 106.842 116.861C108.224 117.822 106.416 116.575 105.986 116.237C105.233 115.644 108.64 115.978 109.033 116.063C110.013 116.272 109.495 114.682 109.498 114.684C109.793 114.895 110.843 115.998 110.905 115.192C111.006 113.878 110.403 111.314 112.356 111.144C113.144 111.075 114.054 111.375 114.054 110.331C114.054 109.815 113.804 108.799 114.605 109.199C114.874 109.334 116.998 110.546 116.753 110.055C116.552 109.654 115.083 107.869 115.94 108.822C116.317 109.24 118.715 111.88 118.291 111.739C117.973 111.633 114.995 109.991 114.881 110.505C114.812 110.817 115.682 112.145 114.939 112.145C114.48 112.145 114.206 111.589 113.807 111.361C112.506 110.618 110.95 110.233 109.614 109.504C107.912 108.575 106.266 107.518 104.724 106.341C104.651 106.285 103.277 105.343 103.839 105.18C105.055 104.828 106.638 104.89 107.887 104.89C109.108 104.89 110.312 105.122 111.529 105.122C111.9 105.122 109.591 103.752 109.295 103.555C108.082 102.75 106.67 101.977 105.682 100.885C105.15 100.297 107.8 101.434 107.989 101.524C109.212 102.102 110.694 102.816 111.689 103.758C112.227 104.268 110.213 103.613 110.078 103.555C109.952 103.501 108.14 102.744 108.235 102.554C108.264 102.497 108.748 102.881 108.453 102.975C107.494 103.28 105.873 102.157 105.203 101.654C103.747 100.562 102.864 99.1088 102.301 97.4027C101.419 94.732 104.639 94.2172 106.306 95.7775C107.418 96.8191 107.314 99.3986 106.218 96.9964C105.125 94.5988 103.879 90.4732 104.709 87.797C104.885 87.2326 105.668 88.5585 105.116 89.1319C103.716 90.586 101.534 86.9817 100.995 86.1138C100.132 84.7239 101.396 88.5239 101.198 89.1319C100.552 91.1129 97.9559 88.8739 97.0771 88.9288C96.7772 88.9475 97.5446 90.1634 97.585 90.2492C97.9272 90.9763 98.0173 91.6969 98.1799 92.4692C98.2383 92.7467 98.372 93.3043 97.8607 93.1947C97.6563 93.1509 97.3203 92.6585 97.4544 92.7014C98.7026 93.1008 99.9593 94.7403 100.879 95.6179C100.981 95.7158 102.006 96.9567 102.243 96.9093C103.159 96.7261 100.685 91.3038 103.897 91.9178C105.414 92.2078 105.752 93.7096 105.304 91.2214C105.082 89.9845 104.852 88.7267 104.709 87.4778C104.556 86.1356 105.302 87.3969 105.653 87.8841C107.648 90.6585 109.236 94.1168 111.515 96.6481C112.404 97.6361 110.742 94.0992 110.223 92.8755C109.104 90.2358 107.791 87.6892 106.538 85.1126C105.96 83.9242 104.655 80.4801 106.364 83.4875C106.657 84.0038 108.828 87.4336 108.787 86.8393C108.655 84.9326 107.926 82.9628 107.466 81.1224C107.047 79.4466 106.8 77.5372 106.102 75.9423C104.813 72.9946 108.912 81.7327 110.209 84.6773C111.166 86.8505 112.053 89.0303 113.096 91.1633C114.054 93.1207 113.646 91.5182 113.357 90.1766C111.759 82.7394 109.318 75.494 107.64 68.0633C107.618 67.9628 106.97 65.0902 107.597 66.2495C108.633 68.1658 109.516 70.1651 110.397 72.1551C111.229 74.0325 112.162 75.8673 112.966 77.756C113.723 79.5348 113.445 78.3855 113.067 77.0015C112.058 73.3074 110.947 69.6422 109.948 65.9448C109.417 63.9835 109.935 65.1914 110.31 66.2641C112.408 72.2528 114.493 78.253 116.55 84.2565C116.941 85.3979 117.201 85.7964 117.13 84.0824C116.976 80.3864 116.403 76.7192 116.201 73.0257C116.136 71.8186 115.873 70.1469 116.172 68.9484C116.23 68.7171 117.363 70.9714 117.449 71.1685C117.779 71.9203 119.36 76.6242 120.438 76.6242C120.744 76.6242 120.583 68.613 120.583 67.8602C120.583 66.9702 120.448 64.3107 120.583 65.1903C120.888 67.1722 121.318 69.1066 121.817 71.0524C122.769 74.7684 123.875 78.4394 125.169 82.051C125.528 83.0535 125.893 85.0098 126.692 85.8091C126.736 85.853 126.853 83.268 126.852 83.0667C126.839 81.0737 126.665 79.0936 126.605 77.1031C126.597 76.8251 126.439 72.5034 126.721 72.5034C127.411 72.5034 129.081 78.4703 129.304 79.091C129.769 80.3835 130.113 81.6967 130.508 83.0087C130.588 83.2733 130.977 84.3416 131.016 83.4004C131.223 78.4349 131.292 73.4261 131.292 68.4551C131.292 67.7428 131.817 69.7792 132.075 70.443C132.792 72.2835 133.347 74.1611 133.889 76.0583C133.995 76.4292 135.107 80.8092 135.195 79.1345C135.361 75.9766 135.542 72.8167 135.717 69.6594C135.742 69.2134 135.789 68.1297 135.993 69.3402C136.295 71.1346 136.254 72.9832 136.254 74.796C136.254 76.1599 136.254 77.5239 136.254 78.8878C136.254 79.0801 136.3 80.4225 136.24 79.3957C136.051 76.1854 135.082 73.0328 133.918 70.0512C133.417 68.7671 132.932 67.9909 132.728 69.819C132.346 73.2644 132.309 76.7522 131.872 80.1937C131.659 81.8749 130.695 81.1792 129.986 80.0196C129.334 78.9525 128.877 77.7596 128.564 76.5517C128.54 76.4599 128.41 75.4392 128.216 75.4634C128.003 75.4901 128.158 79.8481 128.158 80.3098C128.158 82.6322 127.097 81.2585 126.068 79.8745C123.656 76.6305 121.897 72.0758 121.222 68.0923C121.15 67.671 120.487 63.7599 121.164 65.0162C122.458 67.4201 124.309 69.2641 126.213 71.1685C126.535 71.4904 128.537 74.1072 128.042 72.0971C127.943 71.6967 126.344 67.1672 126.126 67.2217C125.928 67.2712 127.95 74.8042 128.1 75.4925C128.26 76.2267 129.023 78.2438 128.491 77.7125C127.678 76.8995 127.155 75.5468 126.591 74.5638C125.952 73.4507 125.376 72.1416 124.545 71.1539C124.132 70.6644 124.241 75.0502 124.24 75.0862C124.226 75.8405 123.424 89.5734 120.322 87.3907C118.119 85.8401 118.001 80.7996 117.972 78.3945C117.937 75.5801 118.678 80.6817 118.755 81.2384C118.895 82.2468 119.016 87.1548 119.016 83.473C119.016 81.3934 119.001 79.3132 119.016 77.2337C119.023 76.3478 118.949 75.8514 119.553 76.6823C119.783 76.9978 121.144 79.624 121.483 79.091C121.6 78.9076 121.951 77.2404 122.02 77.3643C122.703 78.5944 122.673 80.846 122.673 82.2106C122.673 84.0608 120.866 82.5364 119.872 81.993C118.939 81.4819 117.577 80.571 116.463 80.571C115.821 80.571 115.904 82.2735 115.882 82.5879C115.851 83.0432 115.52 88.3485 115.041 88.0292C114.647 87.767 114.425 87.3088 114.214 86.9119C113.039 84.7023 112.172 82.2775 111.326 79.9325C109.322 74.3777 107.743 68.7107 106.262 62.9993C105.598 60.4376 104.719 57.872 104.245 55.2654C103.979 53.8003 104.879 55.2372 105.203 55.6717C106.021 56.7715 106.794 57.9003 107.466 59.0961C107.565 59.2718 108.372 60.6341 108.366 60.5036C108.219 57.2628 105.753 54.3324 105.188 51.1301C104.915 49.5842 105.784 51.4921 106.073 51.9571C108.175 55.3298 110.179 58.7532 112.414 62.0416C113.484 63.616 114.493 65.2876 115.708 66.7574C116.223 67.3798 115.218 65.2172 114.925 64.4648C113.11 59.8134 111.396 55.083 110.049 50.274C109.114 46.9358 111.693 57.0097 112.472 60.3875C112.512 60.561 112.756 62.1959 112.69 61.882C111.984 58.5461 111.422 55.1623 110.978 51.783C110.894 51.1475 109.128 38.1459 109.672 38.0855C109.727 38.0794 110.462 40.2997 110.542 40.4652C110.98 41.3602 111.389 42.3436 111.906 43.193C112.746 44.5704 111.465 39.9888 111.442 38.3757C111.413 36.3285 112.063 38.363 112.545 39.3043C112.713 39.6325 114.561 43.2659 115.041 43.106C115.789 42.8565 114.932 33.574 114.896 32.7458C114.834 31.3306 114.869 31.3236 115.519 32.4266C116.195 33.5723 116.865 34.7284 117.623 35.8219C117.797 36.0728 119.481 38.2993 119.481 37.8824C119.481 35.4012 118.87 32.8407 118.639 30.3661C118.546 29.3716 118.382 28.2646 118.494 27.261C118.56 26.6714 119.122 28.2677 119.437 28.77C119.619 29.0602 121.945 32.8543 122.252 32.7313C122.315 32.706 121.628 31.1241 121.628 32.296C121.628 34.0959 121.563 35.6687 120.714 37.302C120.122 38.4396 118.677 38.3455 117.594 38.129C115.784 37.767 115.982 39.5928 114.707 40.5377C113.645 41.324 113.21 41.365 112.632 42.6852C112.301 43.4416 112.065 43.3289 111.442 43.7444" stroke="black" stroke-width="3" stroke-linecap="round"/>
<path d="M114.837 38.5208C115.654 38.827 115.099 43.8391 115.099 44.7456C115.099 45.4006 115.019 45.8997 115.476 45.0794C116.749 42.7938 118.634 40.9092 120.38 38.9851C122.032 37.1648 123.721 35.3836 125.459 33.6454C126.175 32.929 126.888 32.0484 125.415 33.1811C122.483 35.4365 120.023 38.4246 117.493 41.1036C115.475 43.2397 113.46 45.4184 111.631 47.7202C109.114 50.886 112.491 45.9225 111.529 48.6343C110.106 52.6454 108.021 56.3137 107.379 60.6051C107.181 61.9326 107.263 63.2989 107.263 64.6389" stroke="black" stroke-width="3" stroke-linecap="round"/>
<path d="M79.0557 28.0736C79.468 26.4244 92.604 33.9478 93.8269 34.7482C94.7029 35.3215 97.3922 36.8462 96.3807 36.5765C95.4269 36.3221 94.3236 35.2787 93.5947 34.7192C90.7824 32.5602 88.0216 30.3263 85.2369 28.1316C82.1029 25.6615 78.8008 21.9375 75.0509 20.3542C73.2536 19.5954 77.9052 23.0145 79.3459 24.33C84.851 29.3564 90.1687 34.5979 95.3359 39.9718C97.5411 42.2651 99.944 44.6204 101.72 47.2849C103.295 49.6467 96.858 44.3253 94.6395 42.5546C93.0439 41.2811 91.5045 39.9318 89.8802 38.6949C89.649 38.5189 88.168 37.7365 88.168 37.331C88.168 36.4809 95.7153 39.2926 95.8873 39.3624C98.3333 40.355 100.745 41.4189 103.113 42.5836C103.681 42.8627 105.566 44.2233 106.306 43.9766C107.242 43.6645 101.89 35.7842 101.372 35.0384C100.477 33.7495 98.3093 29.6174 98.7603 31.1207C99.1354 32.3709 100.938 34.0523 101.778 35.0674C101.888 35.1997 103.084 36.9154 103.084 36.1121C103.084 35.7097 102.541 34.7193 102.678 34.3999C102.843 34.0139 103.363 34.8915 103.665 35.1835C104.313 35.8108 104.972 36.4132 105.696 36.9537C106.054 37.2205 107.608 38.5593 108.047 37.9404C108.199 37.7254 108.34 36.7504 108.308 37.418C108.301 37.5683 107.236 35.5819 107.06 35.1835C106.282 33.4256 106.51 35.0725 106.422 36.1412C106.26 38.1021 105.904 40.295 104.971 42.0613C104.239 43.4452 102.978 42.59 102.04 41.9162C98.822 39.605 95.4972 41.441 91.7955 40.6973C88.0297 39.9407 84.6467 38.2198 81.2612 36.4894C80.3858 36.042 79.9666 35.7408 79.4039 35.0094C77.4672 32.4917 75.4116 30.1559 73.6869 27.4641C73.4804 27.1418 71.2992 22.9969 71.3943 23.0241C73.0049 23.4842 74.8153 25.1298 76.0666 26.1873C78.3698 28.1336 75.9915 24.3647 75.5442 23.5754C74.2294 21.2551 72.1987 18.7542 71.5394 16.1173C71.2591 14.9961 75.5494 16.7357 75.8054 16.8428C76.1783 16.9987 79.5075 18.7022 78.6203 17.4522C77.2285 15.491 75.5319 13.7701 74.1512 11.7933C73.7551 11.2261 73.553 10.8074 74.4705 11.5901C75.9696 12.8692 77.2909 14.3448 78.7364 15.682C79.0202 15.9444 82.067 18.8283 81.2902 17.4522C80.2902 15.6808 79.0024 14.0579 78.069 12.2576C77.8704 11.8746 77.605 10.9891 78.2721 11.6191C79.694 12.9621 78.4369 10.562 78.0109 9.99402C75.9007 7.18032 67.7974 0.430791 70.7559 2.3327C72.7808 3.63442 74.4978 5.4538 76.2697 7.06298C76.7108 7.46358 79.5412 9.56893 77.3725 8.94929C76.6247 8.73565 73.7162 6.97582 73.1065 7.2371C72.2058 7.62314 71.6244 7.94911 70.4367 7.96261C69.9561 7.96807 67.4349 7.85773 67.8249 8.07869C68.1689 8.27363 69.205 8.90998 68.2311 8.89125C67.4899 8.877 63.127 7.19463 65.2711 7.64339C66.9841 8.00192 67.8229 8.69846 65.5323 8.16575C65.2067 8.09004 64.353 7.30364 65.0099 7.49828C65.2368 7.56553 66.9243 8.37575 66.8092 8.42693C65.8909 8.83503 64.3637 7.74482 63.5009 7.49828C62.9557 7.34252 63.8074 7.66455 63.9652 7.96261C64.4249 8.83093 59.8114 8.44102 60.6279 9.06537C61.799 9.96097 63.7592 11.4657 61.1502 11.6191C60.0934 11.6813 62.978 13.507 61.6726 14.1004C61.2772 14.2801 60.4943 14.1092 60.9471 14.7678C61.5307 15.6167 62.8334 16.6009 62.8334 17.7424C62.8334 17.9825 61.9983 18.1487 62.2385 18.1487C63.0524 18.1487 63.6003 18.4519 64.2699 18.9177C66.4714 20.4492 62.8915 19.7344 61.9918 19.9915C60.9872 20.2785 63.8745 20.9028 64.7777 21.4279C65.0047 21.5599 67.5178 23.2852 67.1284 23.619C66.4293 24.2181 65.0438 24.0513 64.1973 24.2864C63.3561 24.5201 63.8855 24.5244 64.2699 24.8233C65.3663 25.6761 61.8467 26.3147 61.8467 26.8837C61.8467 27.0129 62.9474 27.6238 63.1091 27.8124C63.7419 28.5506 63.0718 28.8043 62.3691 29.0167C61.9159 29.1537 58.6738 30.3489 58.8431 30.4242C59.2068 30.5858 60.2216 30.8332 60.2216 31.3528C60.2216 33.7596 52.0108 35.6478 54.4176 35.6478C57.0476 35.6478 52.1706 38.3228 51.443 38.8545C49.0612 40.5951 56.3124 35.5141 58.8576 34.0227C60.5696 33.0196 62.3151 32.076 64.0377 31.0917C64.3961 30.8869 61.0027 32.899 60.6569 33.1086C56.6859 35.5152 52.7309 37.9593 48.7151 40.291C48.2997 40.5322 47.8964 40.6641 48.7006 40.262C51.5385 38.843 54.7148 38.0096 57.7839 37.2875C60.8307 36.5705 65.996 34.8807 69.1598 36.1557C70.6484 36.7555 69.2034 38.6097 68.6664 39.3189C67.4106 40.9776 63.5666 45.7811 64.4005 43.875C65.4309 41.5199 67.8679 37.4156 64.0232 36.1702C62.9011 35.8067 61.6693 36.1982 60.5843 35.851C59.9717 35.6549 62.6635 34.3756 62.7318 34.3419C63.6284 33.8997 68.3159 31.9469 65.9531 30.7869C63.6594 29.661 60.1124 29.1945 58.3788 27.1594C57.0023 25.5436 64.5385 23.7992 65.4307 23.4739C66.3004 23.1568 69.0181 22.3478 68.6374 20.9201C68.4046 20.047 67.1604 19.8852 66.9252 19.1208C66.5602 17.9346 76.2546 21.3883 69.3194 18.0326C66.245 16.545 71.8085 17.1514 69.5951 16.0447C69.3149 15.9046 66.2423 14.8534 66.3448 14.6227C66.7661 13.6748 69.9516 14.1163 70.7849 13.8247C71.141 13.7001 68.7891 13.2014 68.71 13.1862C67.4912 12.9525 66.2496 12.8057 65.0389 12.5333C62.4305 11.9464 67.5092 10.6377 68.2021 10.3568C70.7241 9.33434 68.9065 9.44351 67.3315 9.26851C65.5416 9.06963 66.5841 9.00733 67.7088 9.00733C68.4856 9.00733 70.7848 8.74615 68.6664 8.74615C66.9349 8.74615 65.2034 8.74615 63.4718 8.74615C63.108 8.74615 64.8697 8.48497 63.9071 8.48497C62.0072 8.48497 59.9213 8.26584 58.0886 8.87674C56.8355 9.29445 57.1217 9.729 57.5082 10.734C58.2389 12.6338 57.9514 15.2417 58.1612 17.2345C58.3637 19.1583 58.4523 21.0785 58.5529 23.0095C58.571 23.356 58.943 25.3409 58.669 25.7519C58.2616 26.363 58.4562 24.2951 58.4368 23.5609C58.3967 22.0337 58.4223 20.5034 58.4223 18.9757C58.4223 18.6337 58.588 14.76 58.8286 15.9286C59.1202 17.3449 59.8201 28.7562 62.7318 26.4775C63.0318 26.2427 63.921 24.6377 64.2989 24.7217C64.8172 24.8369 66.1482 27.5026 66.548 27.9285C68.0202 29.4967 70.1359 30.7335 72.1634 31.4544C73.1973 31.822 75.9456 32.8126 76.9227 31.9332C78.0304 30.9363 77.0246 29.9636 76.9227 28.9442C76.9065 28.7824 78.3583 30.1568 78.3882 30.192C78.9963 30.9093 79.8353 31.8932 79.9843 32.8619C80.3625 35.3201 69.7214 33.4575 68.1731 32.9199C66.5385 32.3524 64.4975 31.588 67.4766 31.4834C68.9171 31.4329 73.1865 31.0875 71.8006 31.4834C70.8269 31.7616 69.8867 31.9913 68.8696 31.9913" stroke="black" stroke-width="3" stroke-linecap="round"/>
<path d="M29.6924 27.8124C29.6924 26.8819 30.1054 24.8298 29.5618 24.0688C29.4906 23.9692 28.741 25.5022 28.6477 25.6649C28.3092 26.2548 27.0983 27.8994 27.5159 27.3626C27.664 27.1721 28.6791 26.1044 28.5606 25.897C28.1746 25.2215 24.8339 28.0323 24.5268 28.2767C24.2711 28.4802 21.5456 30.5363 22.4954 30.0614C24.5076 29.0553 26.302 27.4199 28.0673 26.0421C28.181 25.9534 29.8375 24.7138 29.8375 24.7943C29.8375 25.8042 28.5569 27.293 28.1398 28.1896C27.9395 28.6204 26.8261 30.6103 27.4578 31.0917C28.0978 31.5792 30.7103 29.3301 31.2305 29.0022C31.5944 28.7728 33.4939 27.1492 33.8713 28.1026C34.4409 29.5417 34.3125 32.0192 33.9584 33.5003C32.9182 37.85 27.2905 31.3374 26.4712 29.6987C25.8768 28.51 28.9952 29.141 29.3006 29.1908C32.9632 29.7888 36.2618 31.3562 39.5883 32.9199C42.1732 34.135 39.9666 32.8628 38.8482 31.8752C36.1606 29.5017 33.4628 27.1116 30.9112 24.5911C30.6997 24.3822 28.9547 22.8938 30.3308 23.3143C32.3388 23.9278 34.3863 25.1815 36.0478 26.4484C38.2239 28.1077 35.6114 26.7606 34.7419 26.1727C33.0547 25.0321 30.7061 23.6062 29.4893 21.9213C28.9613 21.1902 33.6746 23.1164 33.7262 23.1401C39.424 25.7639 44.8567 28.9307 49.7888 32.8183C50.6101 33.4657 54.149 36.357 50.819 35.1545C48.3245 34.2537 46.2307 32.7384 44.2605 31.0046C43.0412 29.9316 46.8185 32.5039 46.9884 32.6297C48.5595 33.7935 51.9036 35.7247 52.4442 37.8098C52.8184 39.2531 46.7285 36.4364 46.3209 36.2282C45.8036 35.9639 42.2662 33.5081 41.6197 33.8776C40.9717 34.2478 45.3422 38.1137 42.2581 36.2572C40.2209 35.031 38.6002 33.3249 36.9329 31.6575C35.4151 30.1398 39.6696 33.0995 39.8494 33.2101C42.985 35.1397 46.2414 36.7057 49.5422 38.3177C51.2463 39.1499 48.0071 36.1993 47.7139 35.909C47.4433 35.641 44.4878 33.1858 45.3633 33.065C48.4729 32.6361 51.6691 32.8911 54.7948 32.3976C56.6488 32.1048 59.0612 31.6201 60.5988 30.4242C60.7118 30.3363 61.088 29.9599 60.6714 29.9599C59.6752 29.9599 58.6122 30.8348 57.8855 31.3964C56.262 32.6508 54.9311 34.1243 53.5179 35.5898C53.047 36.0782 54.9642 34.0419 55.1721 33.8195C55.736 33.2162 56.325 32.655 56.9423 32.1074C57.2194 31.8616 57.8615 31.0197 57.7839 31.3819C57.6832 31.8515 57.069 32.6415 56.8697 32.978C55.4788 35.3272 54.1084 37.6996 52.894 40.1459C52.484 40.9719 49.2079 47.3928 51.1963 48.1555C53.069 48.8738 56.4949 46.5364 58.1031 45.7323C62.1538 43.707 57.1876 47.1107 57.2325 48.5908C57.2544 49.3124 63.4078 45.5966 61.9628 44.7892C61.2354 44.3827 60.0322 44.4037 59.5106 43.6864C58.7063 42.5806 59.5321 40.452 59.9894 39.3624C61.126 36.6545 59.442 39.156 58.6835 40.233C57.4101 42.0412 56.1772 43.8866 54.9399 45.7178C54.6905 46.087 56.6316 44.4159 56.8552 44.1507C57.1189 43.838 59.4978 40.7106 58.5674 41.3793C56.8864 42.5875 55.2249 44.1279 53.8952 45.7178C53.668 45.9895 53.0857 46.8496 53.8517 46.8496C55.8962 46.8496 49.8124 46.1668 47.7719 46.037C45.9871 45.9235 43.3933 45.9618 42.2871 44.2523C41.4862 43.0145 40.4371 37.1988 37.9486 37.7518C37.4514 37.8623 40.5261 43.2407 38.0792 43.9476C35.3895 44.7246 32.5238 43.0869 30.4469 41.5679C29.2094 40.6629 28.4334 39.7285 29.8955 41.1907C30.0252 41.3203 31.1473 42.4432 31.0854 42.2644C30.731 41.2406 29.6344 40.2418 28.8073 39.5945C27.542 38.6044 29.427 40.6289 29.6344 40.8714C30.0732 41.3847 31.2388 43.0441 30.8242 42.5111C29.8754 41.2912 28.4028 39.6115 30.7952 41.4518C31.8934 42.2967 32.9185 43.2005 33.9729 44.0927C35.0773 45.0272 35.1651 47.5882 35.4384 48.881C36.2642 52.7879 37.2888 57.2368 36.991 61.2581C36.932 62.0542 36.5705 59.4345 36.5411 59.1541C36.5213 58.9643 36.4012 56.7383 36.0623 57.529C35.653 58.4841 35.1643 59.4381 34.6548 60.3439C34.3969 60.8024 34.2005 57.1565 34.1905 56.8905C34.0829 54.0251 34.1325 51.1531 34.1325 48.2861C34.1325 45.7879 31.8174 50.2976 31.5352 49.592C31.3666 49.1707 31.7809 48.9433 31.2014 49.8677C30.6541 50.7409 29.4005 51.9445 29.2136 52.9728C29.1553 53.2934 31.0587 53.1322 31.2595 53.147C33.7877 53.3328 30.8708 57.7765 30.2728 58.7333C30.181 58.8802 28.4489 61.0633 29.1265 60.5036C30.4936 59.3742 31.858 58.243 33.2328 57.1227C34.7465 55.8894 32.0381 59.012 31.8834 59.1977C30.4876 60.8727 28.9524 62.5054 27.661 64.2617C26.1312 66.3421 31.5441 60.8547 33.4215 59.0816C33.5778 58.934 34.7124 57.6406 35.1482 57.6741C35.3359 57.6885 34.2187 60.1867 34.1905 60.2569C33.7756 61.2905 31.8589 65.4627 33.7407 66.0899C36.0947 66.8746 38.9726 64.0894 40.5459 62.7236C40.71 62.5812 42.3742 61.009 41.9099 61.9981C40.9425 64.0591 42.1351 62.6547 43.1142 61.795C43.7369 61.2482 45.3587 59.3882 45.1891 61.3887C44.8792 65.0461 43.2802 68.5335 42.5483 72.1116C42.3882 72.8946 41.5936 76.3899 43.0707 74.3316C44.1534 72.823 45.0937 70.9051 46.5096 69.6739C47.5788 68.7441 47.6361 71.3307 47.7719 71.894C48.0962 73.2392 48.5421 74.9164 49.5131 75.9568C49.9607 76.4363 49.5802 76.3705 49.0924 76.4066C46.57 76.5934 44.3849 77.0256 42.142 75.4344C41.3485 74.8714 40.7923 74.1427 40.1396 73.4465C39.5763 72.8456 40.7571 74.9744 41.0973 75.7246C42.3401 78.4651 44.0776 81.8743 43.9413 84.982C43.7899 88.4333 37.0035 83.7635 36.1349 83.1102C33.4592 81.0981 30.3561 78.387 28.8218 75.3183C27.8822 73.4391 32.0643 78.0239 33.4215 79.6278C33.7945 80.0687 38.3341 86.0181 35.8447 84.982C31.9182 83.3479 28.3027 80.0123 25.6876 76.7113C25.1792 76.0696 24.349 75.1371 24.106 74.3171C23.8027 73.2934 26.218 74.7317 27.1967 75.1587C30.415 76.5631 33.5617 78.3019 36.9764 79.207C38.7954 79.6892 36.4856 74.0055 36.2655 73.3305C35.9166 72.2606 35.6442 71.1998 35.4384 70.0947C35.2813 69.2517 35.2147 69.1081 35.5545 69.9786C36.0597 71.2734 36.1716 73.0203 36.8604 74.2011C37.6951 75.632 36.6667 70.7734 37.3247 69.2531C37.9966 67.7007 40.3879 70.3576 40.8797 70.8783C40.9771 70.9814 42.3997 72.6931 42.4467 72.1987C42.7362 69.1592 41.6605 65.5854 41.2424 62.5785C41.1611 61.994 40.4337 58.4364 41.4746 60.5181C41.9853 61.5396 43.5456 64.5885 42.9836 63.5942C42.5219 62.7774 42.1218 61.922 41.7648 61.0549C41.5319 60.4893 41.3092 58.7951 41.0683 59.3573C40.8182 59.9408 41.2505 61.1664 41.3875 61.7659C41.6028 62.708 41.2322 60.6576 41.1553 60.46C40.7784 59.4906 40.3395 58.5092 39.8785 57.587" stroke="black" stroke-width="3" stroke-linecap="round"/>
<path d="M20.2899 61.7659C23.1488 61.7659 26.0883 61.9851 28.9379 61.7659C34.3831 61.3471 18.0173 61.5047 12.556 61.5047C9.84146 61.5047 13.6839 61.6657 14.5149 61.8965C15.662 62.2152 9.81289 62.5495 11.0034 62.5495C14.6354 62.5495 18.2973 62.2883 21.944 62.2883C24.649 62.2883 16.517 62.1994 13.8329 62.535C13.4968 62.577 16.3566 62.4837 15.6757 62.6075C13.4096 63.0195 6.46562 62.8106 8.76888 62.8106C9.37698 62.8106 13.6374 62.2825 11.4097 62.7091C9.43265 63.0877 7.45777 63.4514 5.46058 63.7103C5.27408 63.7344 2.57839 63.9644 3.86448 63.5942C8.9011 62.1443 14.215 61.4663 19.3322 60.3149C20.9849 59.9431 18.3 60.1988 17.9102 60.1988C15.0159 60.1988 12.2335 60.2364 9.39281 60.8373C9.2335 60.871 7.4614 61.2436 7.82573 61.2436C9.1413 61.2436 10.4569 61.2436 11.7725 61.2436C12.8022 61.2436 14.0966 61.0329 15.1098 61.2581C15.3365 61.3085 14.7267 61.5255 14.5149 61.6208C13.2392 62.1949 11.9524 62.7418 10.6842 63.333C9.34802 63.956 7.7578 64.4771 6.56335 65.3644C5.91309 65.8475 8.99174 66.0503 9.26222 66.0899C11.35 66.3961 13.4077 66.789 15.4 67.4974C16.3831 67.847 17.4644 68.1642 15.8788 68.6147C15.3324 68.7699 8.34024 69.5733 8.39162 69.8045C8.44442 70.0421 11.296 70.6745 11.5258 70.7622C13.1156 71.3683 15.7701 72.2838 16.8075 73.7657C17.5028 74.759 13.7821 74.9206 13.4556 74.9556C11.335 75.1828 9.18298 75.2001 7.0712 75.4779C4.99728 75.7508 10.2153 75.4772 10.0167 76.0729C9.85789 76.5494 3.51595 76.1309 2.64563 76.1309C1.08821 76.1309 5.78557 76.395 7.31787 76.1164C7.89924 76.0107 6.66942 75.329 6.65041 75.3183C5.44385 74.6396 4.26266 73.9062 3.16799 73.0548C1.8708 72.0458 5.74085 72.9153 6.14256 72.9822C6.45689 73.0346 5.61591 72.356 5.63471 72.1116C5.67665 71.5664 8.85589 71.3716 9.29124 71.299C9.85786 71.2046 11.5618 71.2195 12.0046 70.7767C12.072 70.7093 9.89132 70.3525 9.69752 70.3269C7.40865 70.0239 10.1646 70.295 10.8874 70.6461C12.0411 71.2065 9.77407 71.3652 9.20418 71.6908C8.59333 72.0399 10.6337 72.67 10.1764 73.1273C9.97319 73.3305 6.88653 73.9657 8.0724 74.0414C9.75076 74.1486 11.4476 74.6487 13.0639 75.0862C14.2022 75.3943 17.5289 76.2398 16.3576 76.3776C15.5902 76.4679 8.61965 75.3952 8.85594 75.0862C9.61391 74.095 13.3874 74.3734 14.3988 74.3026C17.3497 74.0962 20.2933 74.0414 23.2499 74.0414C26.9565 74.0414 21.7081 74.0414 20.6671 74.0414C18.9081 74.0414 27.6681 74.355 25.9198 74.5493C24.6514 74.6902 23.3066 74.5638 22.0311 74.5638C19.4245 74.5638 22.8539 75.4206 23.6272 75.6085C24.5346 75.8291 25.4458 76.0342 26.3551 76.247C26.7189 76.3321 27.6902 76.4182 27.3998 76.6533C26.3794 77.4793 23.213 76.9144 21.973 76.9144C21.7402 76.9144 19.4823 76.9047 19.9416 76.9144C22.246 76.9635 24.5832 77.2417 26.8629 77.5674C26.9113 77.5743 28.4307 77.7095 28.5026 77.9011C28.7321 78.5131 27.1944 77.8756 26.5437 77.8141C26.4035 77.8008 22.8435 77.4368 24.3817 77.4368C25.4134 77.4368 26.5611 77.5557 27.5449 77.1756C28.4737 76.8168 27.5108 76.7643 27.2547 76.5082C27.1835 76.437 30.4613 74.3141 29.2281 72.7355C28.4136 71.693 27.1372 71.3013 25.9778 70.7912C24.7163 70.2361 27.4688 70.4291 27.661 70.4429C28.5901 70.5099 30.3299 71.0063 31.2305 70.6461C31.6718 70.4696 30.2986 70.4567 29.8375 70.3414C28.6599 70.047 27.4957 69.6981 26.3551 69.2821C25.4108 68.9378 20.2083 67.2101 23.7433 66.8444C28.5761 66.3445 33.5716 66.4672 38.4275 66.4672C39.24 66.4672 40.0526 66.4672 40.8651 66.4672C41.7019 66.4672 39.1912 66.467 38.3549 66.4382C34.4772 66.3045 30.6121 65.8036 26.8339 64.9146C26.4756 64.8303 22.8113 63.7764 25.1362 64.4503C29.5496 65.7295 34.2206 66.5658 38.4855 68.2955C38.8979 68.4627 40.6067 69.0657 40.5314 69.819C40.45 70.633 38.2362 70.5674 37.8761 70.588C35.2545 70.7386 32.3592 70.2269 29.7795 70.7912C27.9807 71.1847 33.33 72.9865 32.3913 73.1999C31.4492 73.414 26.2005 73.5461 29.5473 74.6218C30.4019 74.8965 31.2448 75.1998 32.1301 75.3473C33.1758 75.5216 30.0012 75.371 28.9524 75.2168C27.5817 75.0152 28.5876 75.1007 29.3151 75.2313C30.6456 75.4701 31.8614 75.6779 32.5073 77.016C33.3221 78.7037 33.2772 81.0676 32.7976 82.8491C32.7657 82.9674 31.7919 85.3313 31.5787 84.6918C31.3306 83.9476 31.464 82.9832 31.3175 82.1961C31.1397 81.2405 31.5331 83.287 31.5787 83.444C31.8705 84.4477 32.1511 85.6541 32.7105 86.5491C32.7882 86.6735 32.072 84.8208 32.072 85.5189C32.072 87.8975 34.7346 91.9268 32.9136 94.1524C32.0085 95.2587 30.3641 95.9093 29.112 96.503C27.3229 97.3513 25.6827 98.3313 23.9899 99.347C22.0392 100.517 24.8629 97.7998 24.4107 97.4607C23.7973 97.0006 17.655 102.32 17.0106 103.236C16.3356 104.195 21.1302 101.038 20.2028 101.756C19.586 102.233 18.7171 102.803 18.3165 103.497C17.9753 104.088 21.9153 102.783 22.0601 102.728C26.4372 101.056 30.8542 99.0983 35.5835 100.595C37.5895 101.23 39.5061 102.116 41.5181 102.742C41.9965 102.891 42.4532 103.011 42.9546 103.033C43.1962 103.043 43.8511 102.862 43.6801 103.033C43.2714 103.441 41.6054 103.298 41.1263 103.294C38.9869 103.276 36.7296 103.045 34.6839 102.394C33.4818 102.012 33.912 101.727 34.916 101.727" stroke="black" stroke-width="3" stroke-linecap="round"/>
<path d="M117.456 62.7392C117.456 61.016 115.651 56.9158 116.995 55.572C118.134 54.433 120.273 54.9365 121.536 55.5366C124.323 56.8603 125.487 60.5233 124.676 63.3601C123.737 66.6461 120.257 69.2982 116.977 69.8708C113.106 70.5466 111.141 68.8656 109.863 65.2938C109.732 64.927 108.759 59.3882 109.881 60.5571C111.361 62.099 112.115 64.6501 112.772 66.6066C113.79 69.6346 114.875 73.1919 114.44 76.4347C113.596 82.7219 104.82 72.5154 103.76 71.1126C102.56 69.5237 95.6558 60.4318 98.7753 58.2154C100.218 57.19 102.405 58.0302 103.654 58.9427C106.175 60.7848 107.166 64.0516 107.025 67.0678C106.747 72.9956 100.185 73.2577 97.1255 69.037C94.2569 65.0804 94.336 60.2174 99.9462 59.3862C102.351 59.0299 104.879 59.4462 106.617 61.2667C108.17 62.8937 109.334 66.0666 107.379 67.8839C103.942 71.0802 97.3284 69.1775 96.54 64.5132C95.5547 58.6835 105.775 59.0761 109.153 58.9072" stroke="black" stroke-width="3" stroke-linecap="round"/>
<path d="M98.935 69.1257C98.935 67.9666 98.935 66.8076 98.935 65.6486C98.935 65.355 98.6993 63.0342 99.3253 63.839C101.295 66.3713 104.403 75.5393 103.707 72.4077C103.153 69.9131 101.637 67.5373 100.922 65.0454C100.079 62.1098 99.0413 58.8688 98.935 55.7849C98.7842 51.4127 101.17 64.3428 101.17 68.7176C101.17 70.094 99.9363 67.2546 99.822 66.9968C98.9065 64.9316 98.5818 62.773 98.1544 60.5748C97.7711 58.6037 97.977 60.3818 97.977 61.3554C97.977 64.2175 97.977 67.0796 97.977 69.9417C97.977 70.328 98.0446 72.3069 97.498 70.9707C96.4504 68.4098 96.5108 65.1451 96.2207 62.4375C95.9912 60.2952 96.0876 57.865 95.4933 55.7849C95.1193 54.4758 95.9079 58.4769 96.061 59.8297C96.5466 64.1191 97.1053 77.0607 97.019 72.7447C96.9497 69.2783 96.7149 65.7943 96.54 62.3311C96.4981 61.5003 95.6211 55.6004 96.4158 55.0043C96.5607 54.8957 99.4917 60.5431 99.6446 60.8232C101.026 63.3535 102.263 66.6305 104.293 68.7354C104.942 69.4093 104.211 63.3819 104.381 62.6149C104.41 62.4837 106.114 65.8394 106.28 66.2163C107.723 69.5005 109.057 72.8309 110.111 76.2573C110.842 78.6326 109.896 75.2006 109.774 74.7139C108.787 70.7625 107.688 66.8189 106.794 62.8456C106.395 61.0721 106.753 61.9589 107.379 63.023C109.011 65.7935 110.307 68.657 111.708 71.5384C112.887 73.9626 111.634 71.5315 111.14 70.5449C109.238 66.7399 107.812 62.8482 106.333 58.8717C105.484 56.5913 107.684 58.8298 108.408 59.4394C110.898 61.5358 113.422 63.644 115.788 65.8792C116.52 66.57 117.651 67.6182 116.427 66.1098C115.281 64.6971 114.018 63.2214 113.305 61.5328C112.696 60.09 113.635 61.1387 114.316 61.6392C115.747 62.6917 117.17 63.8197 118.662 64.7793C120.628 66.0428 110.687 60.1348 112.95 60.7167C114.444 61.1009 115.811 62.3559 117.083 63.1826C118.402 64.0395 117.195 63.6732 116.409 62.9698C114.386 61.1597 112.421 59.3008 110.502 57.3815C109.998 56.8779 108.677 54.9676 110.253 56.2461C112.209 57.8324 117.267 63.4728 115.487 61.6924C114.32 60.526 113.38 59.0352 112.418 57.7009C111.313 56.1694 111.728 56.4233 113.056 57.3815C114.11 58.1416 114.925 59.2105 115.966 59.9539C116.388 60.2554 115.447 59.0544 115.221 58.5879C114.529 57.1647 114.724 55.7911 116.179 57.488C116.869 58.2936 117.593 59.0438 118.343 59.7942C118.862 60.313 116.656 57.8597 116.356 57.488C115.22 56.0795 114.174 54.3835 112.897 53.1061C110.746 50.9556 116.477 58.0233 118.237 60.5038C120.024 63.024 121.789 65.5269 123.701 67.9548C124.478 68.9428 123.939 68.5032 123.452 67.8484C123.235 67.5555 122.18 66.5266 122.299 66.1098C122.465 65.5291 125.873 66.0157 126.362 66.0921C127.009 66.1932 128.562 66.3983 126.894 66.1808C125.133 65.951 123.358 65.6268 121.678 65.0454C121.146 64.8613 125.722 65.2938 123.328 65.2938C121.121 65.2938 121.366 64.9744 123.328 64.9744C123.698 64.9744 122.581 64.8836 122.246 64.7261C121.938 64.581 123.813 64.6485 124.162 64.6551C124.734 64.6659 126.419 64.9744 125.847 64.9744C125.081 64.9744 124.15 64.8254 123.399 64.9922C122.937 65.0948 123.374 65.721 123.452 65.9324C123.948 67.2774 119.943 67.6698 119.372 67.7774C118.192 67.9997 114.562 67.8863 113.855 69.1434C113.243 70.2304 115.753 72.0177 116.356 72.5673C118.397 74.4284 116.579 74.4825 114.529 74.5365C112.332 74.5943 105.832 73.9753 108 73.614C108.506 73.5297 110.333 73.7158 110.289 74.5542C110.248 75.3223 108.103 75.1753 107.628 75.1929C106.782 75.2242 111.653 78.2209 108.976 79.1845C108.81 79.2441 106.88 79.7444 107.273 79.9828C108.387 80.6591 109.932 80.4586 111.158 80.7811C111.511 80.8739 109.818 80.683 110.076 80.9408C110.488 81.3529 113.136 81.4507 113.66 81.1892C114.239 80.8996 112.355 80.3236 112.435 79.6812C112.559 78.6901 114.695 79.122 115.327 79.0071C115.835 78.9148 114.988 77.0759 114.901 76.7895C114.328 74.8919 116.174 74.8947 117.633 74.8736C118.714 74.8579 119.414 74.9332 117.829 74.8558C115.536 74.744 113.427 74.0028 111.779 72.3544C110.774 71.3496 112.797 71.3686 113.376 71.361C114.026 71.3524 114.832 71.2462 115.469 71.4319C115.766 71.5187 114.373 71.2065 114.263 71.1481C112.828 70.3875 110.914 68.5264 110.36 66.9436C109.9 65.6297 114.07 66.6922 114.529 66.9081C114.762 67.0181 116.615 68.647 115.717 68.4161C114.524 68.1093 112.858 66.8735 112.418 65.684C112.236 65.1936 112.811 65.2938 113.11 65.2938C114.084 65.2938 111.15 64.8701 110.36 64.3003C108.143 62.7024 106.691 60.239 105.818 57.7009C105.706 57.3736 105.171 56.7074 105.517 56.7074C105.657 56.7074 106.017 56.9632 105.871 57.1332C104.537 58.6896 97.1279 51.362 102.448 54.5785C103.384 55.1445 105.424 56.2659 105.747 57.4525C106 58.3776 102.846 57.6088 102.501 57.488C101.794 57.2406 101.747 57.4846 101.88 58.1621C102.279 60.2035 102.429 61.7044 99.8575 61.7812C97.0469 61.865 104.894 61.3164 104.275 62.8633C104.07 63.3751 94.4839 58.3228 98.8285 56.7429C100.275 56.2169 101.978 56.0333 103.512 56.0333C104.166 56.0333 100.325 51.8399 99.9817 51.4208C98.551 49.6742 97.2079 47.8588 95.9901 45.9567C95.7359 45.5598 94.5801 44.0885 94.8547 43.4021C95 43.0387 96.3094 43.3409 96.3094 43.7037C96.3094 43.8341 94.4022 42.2154 94.216 41.9119C93.0698 40.0439 96.3338 40.6935 97.3383 40.7765C98.3601 40.861 101.452 41.786 101.33 41.7345C99.5392 40.9769 97.1503 39.6923 95.8481 38.2041C95.2793 37.5541 100.574 38.1676 100.141 38.1509C99.3572 38.1208 98.2286 37.7655 97.7641 37.0688C97.7306 37.0185 102.287 37.7691 103.015 38.1332C107.084 40.1674 93.7527 37.8767 89.4971 36.2704C85.1341 34.6236 80.9032 32.3624 76.9369 29.9194C74.7114 28.5486 72.4327 27.0317 70.7987 24.9521C67.6561 20.9524 76.5665 22.831 72.7501 24.7392" stroke="black" stroke-width="3" stroke-linecap="round"/>
<path d="M87.0756 112.065C87.0756 117.758 85.6284 123.51 85.6284 129.07C85.6284 131.826 66.2934 130.88 62.4724 130.88C58.9631 130.88 59.2622 128.808 58.2915 125.653C57.5142 123.127 56.9289 119.888 55.598 117.493C54.871 116.184 54.0836 111.788 52.6633 111.382C51.1317 110.944 48.7565 108.513 48 107" stroke="black" stroke-width="3" stroke-linecap="round"/>
<path d="M53.2995 93C52.3939 93.551 54.3209 101.492 54.5684 102.64C54.7381 103.427 55.0072 104.211 55.0072 105.036C55.0072 105.619 54.557 104.006 54.355 103.477C53.1492 100.323 51.5163 97.4634 50.2397 94.3565C48.8558 90.9885 53.8438 100.483 55.5172 103.65C56.8793 106.228 58.0944 108.919 59.5613 111.414C59.787 111.798 60.6814 113.811 61.1505 113.925C61.2486 113.949 61.1979 113.686 61.1979 113.564C61.1979 112.867 61.1979 112.169 61.1979 111.472C61.1979 109.163 61.1979 106.854 61.1979 104.545C61.1979 104.381 61.1733 101.634 61.1979 102.698C61.2551 105.17 61.7832 107.569 62.3127 109.942C62.9012 112.58 63.4026 115.182 63.7596 117.879C63.8725 118.732 64.1865 121.283 64.1865 120.419C64.1865 117.658 63.1338 114.561 62.5973 111.89C62.4926 111.369 62.2653 109.795 62.2653 110.332C62.2653 112.142 62.684 114.025 62.9176 115.801C63.3975 119.451 64.6135 130.393 64.6135 126.697C64.6135 122.16 64.596 117.623 64.7202 113.088C64.7727 111.172 64.6099 108.99 64.9337 107.099C65.0954 106.154 65.2961 107.301 65.3843 107.648C66.1017 110.468 66.765 113.298 67.4005 116.148C68.151 119.512 69.06 122.837 69.6063 126.264C69.632 126.425 70.0607 129.435 70.2586 128.024C70.6249 125.414 70.5047 122.598 70.5907 119.957C70.6573 117.91 70.9175 115.894 71.0058 113.853C71.1467 110.596 71.8394 116.158 72.002 116.884C73.0823 121.703 73.8182 126.721 75.0736 131.473C75.2154 132.01 75.367 132.299 75.4531 131.531C75.7342 129.023 75.7751 126.435 75.9275 123.912C76.0987 121.077 76.3877 112.664 76.8288 115.455C77.3607 118.82 77.984 122.185 78.7026 125.499C78.8439 126.15 79.1757 126.775 79.2956 125.701C79.5342 123.563 79.8202 121.473 80.1495 119.351C80.3166 118.274 80.281 116.717 80.6713 115.715C80.7288 115.567 80.8374 117.749 80.8374 117.908C80.8374 120.111 80.8374 122.314 80.8374 124.518C80.8374 125.23 80.6523 127.329 80.8374 126.653C81.7641 123.27 82.1039 119.286 82.6637 115.772C83.2106 112.34 82.9283 116.439 82.8535 117.648C82.6766 120.507 82.379 123.33 82.0233 126.163C81.9748 126.549 81.8897 128.907 81.4896 129.15C81.2173 129.316 81.4804 128.409 81.4778 128.039C81.4689 126.786 81.429 125.537 81.3592 124.287C81.2309 121.99 81.153 119.662 80.9441 117.374C80.8848 116.724 80.7332 115.586 80.28 116.754C79.4977 118.769 78.8409 120.853 78.1808 122.93C77.913 123.773 76.7144 128.586 75.6903 126.264C74.1485 122.767 73.2308 118.936 71.7766 115.397C70.8996 113.263 69.6394 120.964 69.5233 121.516C69.2418 122.855 68.2958 128.592 66.4991 126.148C64.8409 123.893 64.02 120.707 62.2653 118.572C62.0279 118.283 62.0518 121.697 62.0518 121.949C62.0518 123.496 62.0794 125.048 62.0518 126.596C62.0361 127.474 61.5028 126.535 61.364 126.22C60.4146 124.068 60.0511 121.53 59.4901 119.207C59.0819 117.516 58.6821 115.846 58.4702 114.098C58.3001 112.695 59.1157 115.154 59.2529 115.426C61.4607 119.803 63.5242 125.175 66.6059 128.775C67.5635 129.893 67.5705 127.651 67.7088 126.827C68.0534 124.774 68.2182 122.685 68.5627 120.636C68.771 119.396 69.0366 119.934 69.3454 120.78C70.1261 122.917 70.8061 125.112 71.6462 127.216C71.8956 127.841 73.3658 132.519 73.3658 129.9C73.3658 125.051 73.6992 120.117 74.2197 115.311C74.2843 114.714 74.2016 112.65 74.6467 112.222C74.9878 111.895 76.0195 114.749 76.141 115.022C76.5155 115.865 78.0142 120.271 78.2757 117.389C78.6994 112.718 78.4892 107.939 78.4892 103.246C78.4892 101.287 79.1985 105.074 79.343 105.671C80.121 108.879 79.7816 103.334 79.7226 102.409C79.668 101.554 79.2888 99.0733 79.604 99.8404C80.195 101.279 80.345 103.117 80.8374 104.631C81.2917 106.029 81.7837 107.546 82.4977 108.788C82.8799 109.452 83.1559 105.784 83.1855 105.469C83.3297 103.939 83.5341 102.403 83.6006 100.865C83.6048 100.769 83.625 99.0916 83.9446 99.8692C84.2894 100.709 85.4023 107.793 86.8264 106.926C87.8585 106.298 88.1941 103.445 88.5223 102.265C88.7822 101.331 89.0961 99.6329 89.6964 98.9023C90.0556 98.4652 91.1351 102.651 91.4042 103.087C91.7918 103.716 92.4557 99.8768 92.8036 101.5C92.9086 101.99 93.3774 105.238 93.9659 104.92C94.3295 104.723 94.7209 102.726 95.0332 103.867C95.3718 105.103 95.4681 106.484 95.6618 107.763C95.7109 108.087 95.6441 109.244 95.899 109.466C96.1192 109.657 96.2161 109.163 96.3734 109.221C96.6569 109.324 96.6311 111.172 96.6343 111.443C96.6606 113.682 97.0981 113.416 98.176 111.76C98.8142 110.78 99.5118 109.579 100.334 108.817C100.858 108.331 100.326 110.143 100.263 110.346C100.117 110.817 99.9295 111.351 100.572 111.068C102.158 110.369 103.498 108.99 105.102 108.297C107.461 107.277 105.022 110.433 104.675 111.385C103.725 113.996 109.044 111.813 109.775 111.183C109.983 111.004 110.759 109.786 110.889 110.577C111.074 111.701 110.994 113.111 110.889 114.243C110.787 115.346 110.114 116.1 110.937 115.599" stroke="black" stroke-width="3" stroke-linecap="round"/>
</svg>
