<svg width="68" height="52" viewBox="0 0 68 52" fill="none" xmlns="http://www.w3.org/2000/svg">
<path d="M12.3049 17.4124C14.2882 15.4291 16.5656 13.8298 19.1091 12.6204C24.0736 10.2596 29.7745 9.46407 35.2326 9.62864C41.0529 9.80412 47.8138 10.8854 52.7593 14.1824C60.4266 19.2939 58.5529 30.912 54.2949 37.6131C52.9799 39.6827 51.1742 41.6442 48.6689 42.114C45.9066 42.6319 42.9486 41.9542 40.3159 41.1344C34.1242 39.2062 28.2868 35.7688 23.1863 31.8018C20.8048 29.9495 20.3192 28.4839 21.1874 25.5536C22.5856 20.8348 25.8857 16.882 30.7715 15.5988C37.9455 13.7148 43.0987 23.1351 44.8167 28.5983C45.8632 31.926 46.4617 37.136 41.6397 37.0836C38.1632 37.0458 34.6876 35.4986 31.5128 34.264C26.3925 32.2728 21.2816 30.0553 16.541 27.2613C13.2293 25.3094 9.26299 21.7094 13.1654 18.1008C16.4051 15.1049 21.4226 13.9947 25.675 13.6264C31.3606 13.134 37.5344 13.764 42.5795 16.6049C49.2376 20.3541 52.8718 30.3987 48.3115 37.1101C43.2699 44.5298 31.7551 40.318 25.172 37.9308C20.5424 36.2521 15.4944 34.2833 11.418 31.4576C9.86722 30.3827 9.53358 28.8577 10.6899 27.2613C13.5399 23.3266 19.5512 21.5445 23.9144 20.2188C29.9299 18.3911 36.1302 17.4195 42.328 16.4593" stroke="#da5e59" stroke-width="18.4659" stroke-linecap="round"/>
</svg>
