<svg width="77" height="61" viewBox="0 0 77 61" fill="none" xmlns="http://www.w3.org/2000/svg">
<path d="M19.7427 18.4405C21.7522 14.8918 25.2409 12.4146 29.1043 11.1991C32.7478 10.0527 36.7054 9.92001 40.4759 10.373C43.0594 10.6835 46.2133 11.3883 48.6811 12.1215C52.8277 13.3534 57.0453 14.9273 60.7341 17.2222C63.8555 19.164 66.455 21.9169 67.3423 25.5719C68.4777 30.2487 66.5786 35.3171 64.1277 39.2563C61.7674 43.05 58.539 46.2324 54.5458 48.2738C49.8771 50.6605 44.4128 51.7259 39.2024 51.7706C34.6057 51.8101 30.1419 50.9036 25.752 49.6023C21.5915 48.3689 16.8568 46.9679 13.4511 44.1299C9.18207 40.5723 9.63152 34.8542 10.8079 29.9498C11.386 27.5396 12.2732 25.1697 13.6232 23.08C15.549 20.0991 18.4822 18.2183 21.7389 16.9262C27.9173 14.4748 35.7955 14.9715 41.7218 18C44.2069 19.27 46.2349 21.2709 47.2699 23.8923C48.3473 26.6211 48.2568 29.7686 47.8963 32.6275C47.2688 37.6048 44.7537 44.762 38.8927 45.5341C37.1788 45.7599 35.3639 45.3159 33.7576 44.7632C30.6749 43.7024 27.6169 42.2971 24.6988 40.8533C22.7146 39.8716 20.687 38.7999 18.9855 37.3634C18.1074 36.622 17.1962 35.5913 17.3747 34.3415C17.5723 32.9588 18.6796 31.6517 19.7152 30.8034C22.3561 28.6398 26.19 27.5393 29.5104 27.1276C32.8425 26.7144 36.2 27.1053 39.3608 28.2289C42.1424 29.2177 44.7289 30.8938 45.2531 34.0249C45.9071 37.9316 43.4195 42.7554 39.051 42.4228C35.8458 42.1787 32.8141 40.4951 30.0267 39.0085" stroke="#da5e59" stroke-width="18.4659" stroke-linecap="round"/>
</svg>
