<svg width="73" height="64" viewBox="0 0 73 64" fill="none" xmlns="http://www.w3.org/2000/svg">
<path d="M33.2591 37.1475C33.4748 35.0617 35.126 33.1234 36.3994 31.5543C39.5282 27.6993 44.0341 25.0839 49.1281 25.5523C54.5618 26.052 56.43 31.419 57.0441 36.1441C57.6808 41.0432 57.0884 46.1454 53.179 49.5231C49.6625 52.5614 45.6346 53.2124 41.1193 52.4405C36.0046 51.5662 29.4371 48.9468 25.5289 45.4351C21.5567 41.8659 22.4102 36.6582 24.5627 32.3534C28.6731 24.1325 35.3026 19.4681 43.5535 15.8525C47.0631 14.3146 54.6189 10.5978 58.4563 13.4369C60.9197 15.2594 61.9887 19.5773 62.6558 22.3191C63.8205 27.1058 63.9323 32.0981 63.2133 36.9617C62.4148 42.3634 60.2583 47.1007 55.3345 49.8205C48.1306 53.7998 39.7076 54.8258 31.7353 53.0909C24.5534 51.528 17.1058 49.1471 13.1533 42.462C9.40007 36.1139 8.36128 28.2304 11.6667 21.5015C14.5398 15.6528 20.6696 11.2831 27.0898 10.2779C29.9744 9.82628 32.8092 9.75501 35.2659 11.3928M38.5404 37.7306C38.9293 41.2309 45.0623 44.0541 48.0257 44.0541" stroke="#da5e59" stroke-width="18.4659" stroke-linecap="round"/>
</svg>
